<?xml version="1.0" ?><svg viewBox="0 0 1000 1000" xmlns="http://www.w3.org/2000/svg"><path d="m418.66 333c-2.34 3.88-3.27 9.37-.16 13.13 2.48 3 7.31 4.23 10.53 1.68 1.64-1.3 2.74-3.27 5.11-2.52 1.92.61 3.53 2.08 5.23 3.12a9.91 9.91 0 0 0 6.1 1.74c2.42-.21 4.6-1.27 6.89-2a8.65 8.65 0 0 1 7.39.87c2.51 1.43 4.87 3.15 7.29 4.72 5 3.23 10.07 6.38 15.15 9.5 10.11 6.2 20.23 12.34 30.56 18.16 11.65 6.56 23.44 13.2 35.64 18.7 1.67.76 3.15-1.63 1.47-2.51-10.3-5.38-20.79-10.36-31-15.9s-20-11.18-29.8-17.13c-5-3-9.84-6.18-14.69-9.38q-3.54-2.32-7.05-4.71a53.37 53.37 0 0 0 -7.22-4.59 10.77 10.77 0 0 0 -7-.87c-2.3.5-4.41 1.65-6.7 2.21-4.38 1.08-7.26-2.68-11-4.1a5.58 5.58 0 0 0 -5.84 1 14.76 14.76 0 0 1 -2.61 2.39 4.89 4.89 0 0 1 -3.06.4 6.49 6.49 0 0 1 -5.12-4.66 11.17 11.17 0 0 1 1.43-8.43.85.85 0 0 0 -1.47-.87z"/><path d="m587.07 346.17c-14.37-2.88-28-8.46-41.57-13.81-13.87-5.46-27.83-10.46-42.66-12.51-7.86-1.09-15.76-1.77-23.62-2.86s-15.59-2.61-23.42-3.72c-14.3-2-29.26-2.77-43.16 1.89a42.22 42.22 0 0 0 -10.34 4.72c-1.4.95-2.64 2.38-2.31 4.19a4.14 4.14 0 0 0 3 3 21.2 21.2 0 0 0 5.2.88 60.79 60.79 0 0 0 6.61.29 57.75 57.75 0 0 0 13-1.56c1.83-.45 1-3.17-.77-2.81-7.16 1.43-14.83 2.07-22.06.7-.71-.13-2.52-.44-2-1.48a3.68 3.68 0 0 1 1.41-1.15c.85-.53 1.75-1 2.64-1.45a51.75 51.75 0 0 1 9.23-3.59c13.44-3.84 27.62-2.87 41.28-.86 7.34 1.08 14.64 2.41 22 3.54 7.51 1.16 15.07 1.91 22.58 3.06a156.44 156.44 0 0 1 20.76 4.53c6.59 1.94 13.06 4.24 19.49 6.62 14.53 5.38 29 11.22 44.3 14 1.07.2 1.54-1.43.45-1.65z"/><path d="m463.32 305.25q6.75-30.42 16.27-60.15c1.18-3.66 3-7.89 6.78-8.64 2-.39 4 .34 5.91 1a157.13 157.13 0 0 0 31.35 7.63c2 .28 4.25.48 6-.55 2.11-1.21 3-3.76 3.66-6.09 2.17-7.27 4.26-15.47.63-22.14-2.44-4.49-6.45-8.9-11.47-9.89-87.23-17.22-143.4-56.2-206.49-99.51-8.22-5.64-16.36-11.79-25.89-14.71s-21-1.91-27.88 5.31c-2.91 3.07-4.76 7-6.39 10.9-15.85 38.1-23.61 77.94-14.94 118.29 2.31 10.78 5.68 22.31 14.52 28.9 12.23 9.11 29.4 5.15 44 .8 39.22-11.65 87.48-19.82 126.62-31.4 6.09-1.81 13.61-3.27 18 1.3 1.49 1.56 2.4 3.67 4.13 5 2.85 2.18 6.85 1.49 10.43 1.23s8 .63 9.09 4c.54 1.69.06 3.52-.42 5.22l-12.12 43.25c-1.19 4.23-2.39 8.67-1.47 13s4.7 8.34 9.08 7.93" fill="#18c4ff"/><path d="m569.23 405.39a98.89 98.89 0 0 1 -27.82 35.82c-8.43 6.79-19.13 12.37-29.72 10.12-6.9-1.47-12.8-6.17-16.94-11.89s-6.68-12.44-8.75-19.16c-10.46-33.43-11-69-11.6-104.06-.09-6-.19-12-.82-17.92-.36-3.37-.93-6.85-2.76-9.71-5.5-8.59-19.21-7.83-25.69-15.7a6.17 6.17 0 0 1 -1.69-4.46c.47-4.1 6.13-4.72 10.22-4.21-3.1 2.7-8.92.23-9.13-3.88s5.33-7.15 8.69-4.78c-3.77 1-6.79-4.68-4.34-7.71s7.78-2.3 10.11.83a7.07 7.07 0 0 1 -5-9.08 3.3 3.3 0 0 1 1.05-1.53c.95-.71 2.27-.54 3.43-.33a130.06 130.06 0 0 1 26.35 7.77c-2.3-.25-4.64-2.9-3.16-4.67 1.2-1.45-.13-6.54 8.94-4.46 20.24 4.64 14.68 27.42 17.26 41.83s2.46 29.28 6.25 43.42c2.46 9.19 6.53 17.87 9.22 27s3.93 19.09.69 28" fill="#fff"/><path d="m455.43 238.8c1.13-.64 2.47-.18 3.66.06s2.43.52 3.64.81c2.49.59 5 1.27 7.43 2a141.42 141.42 0 0 1 14.3 5l.63-2.27c-1-.16-2.47-.83-2.7-2-.14-.65.47-1.23.7-1.83a9.47 9.47 0 0 1 .94-2.48c1-1.3 3.2-1.06 4.61-.85a21.55 21.55 0 0 1 6.82 2.2c7.54 4 9.33 12.65 10 20.48.35 4.17.37 8.36.65 12.53.37 5.47 1.54 10.85 2.14 16.3.78 7.07 1.31 14.16 2.32 21.21a107.8 107.8 0 0 0 5.15 20.69c5.15 14.5 12.56 30.16 7.07 45.68-.55 1.55 1.9 2.21 2.44.68 5.19-14.65-1-30-6-43.69a117.14 117.14 0 0 1 -6.09-22.12c-1.24-7.68-1.83-15.44-2.75-23.15-.68-5.66-1.84-11.24-2.15-16.93-.24-4.51-.22-9.05-.66-13.55a33.71 33.71 0 0 0 -3.3-12.57 18.66 18.66 0 0 0 -9.46-8.55c-3.59-1.49-10.77-3.69-13.12.87a9.36 9.36 0 0 0 -.66 1.79c-.07.26-.16.52-.24.78.07-.24 0 .05-.05.09a2.87 2.87 0 0 0 -.33.48c-1.65 2.76 1.44 5.76 4 6.15a1.18 1.18 0 0 0 .63-2.27 117 117 0 0 0 -15.67-5.31c-2.64-.67-5.29-1.26-8-1.77-2.15-.41-4.89-1.28-6.88 0a.85.85 0 0 0 .86 1.47z"/><path d="m568.49 405a106.25 106.25 0 0 1 -14.8 22.68c-5.88 6.88-12.75 13.34-20.61 17.91s-17.22 7-25.76 3.06c-8.25-3.83-13.59-11.62-17.07-19.76-3.93-9.19-6.36-19.11-8.35-28.88a270.89 270.89 0 0 1 -4.25-30.41c-.88-10.12-1.34-20.28-1.64-30.43-.3-10.3-.28-20.61-.63-30.91-.17-4.92-.29-10.05-1.42-14.87a15.94 15.94 0 0 0 -5.85-9.32c-5.49-4.2-12.66-5.12-18.43-8.82a15.93 15.93 0 0 1 -3.68-3.25c-1.06-1.25-2.85.56-1.8 1.8 4.62 5.48 12 6.78 18.23 9.65 3.19 1.48 6.17 3.48 7.86 6.66 2.31 4.36 2.33 9.93 2.58 14.73.55 10.47.44 21 .72 31.46s.73 20.95 1.63 31.39a299.64 299.64 0 0 0 4.13 30.57 176.14 176.14 0 0 0 8 29.44c3.22 8.42 8.06 16.54 15.88 21.43s17.18 4.78 25.6 1.23 15.83-9.74 22.2-16.29a96 96 0 0 0 16-22c1.08-2 2-4.1 3-6.21.43-1-1-1.86-1.48-.86z"/><path d="m649.14 426.77c1.05 65.75 19.2 151 52.17 207.85 8.49 14.65 18.75 29.45 34.16 36.44 21 9.52 45.46 2.17 66.85-6.37 43.87-17.54 65.26-30.16 104.33-56.73 17.14-11.66 37.32-24.77 57-18.29 3.16 1 6.93 2.49 9.53.42 3-2.41 1.68-7.2.07-10.72l-14.89-32.46c-2.43-5.3-5.59-11.22-11.28-12.53a13.58 13.58 0 0 0 -8.1.48c-34.63 14.19-73 17.71-111.38 25.54-27.9 5.68-33.65 7.1-60.22 17.32-6.64-65.25-26.17-118.31-50.85-158.24" fill="#fff"/><path d="m973.19 590.09c3-2.41 1.68-7.2.07-10.72l-14.89-32.46c-2.43-5.3-5.59-11.22-11.28-12.53a13.58 13.58 0 0 0 -8.1.48c-5.91 2.42-11.93 4.51-18 6.39a131.85 131.85 0 0 0 3.94 15.38c3.5 11.63 7.05 23.3 12.17 34.3 8.75-3.11 17.73-4.18 26.6-1.26 3.12 1.04 6.89 2.49 9.49.42z" fill="#18c4ff"/><path d="m648.29 426.77a515.5 515.5 0 0 0 25.52 148.32c7.7 22.94 17.23 45.53 30 66.13 6.53 10.49 14.27 20.71 24.79 27.49 11.27 7.27 24.75 9.1 37.88 7.48 13.88-1.72 27.07-6.63 40-11.85 11.55-4.69 23-9.63 34.2-15.12 21.09-10.33 40.9-22.86 60.36-36 11.49-7.74 22.94-16.3 36.1-21a43.9 43.9 0 0 1 19.41-2.82c3.41.36 6.49 1.53 9.77 2.42 2.59.71 5.56 1 7.76-.84 4.56-3.8 1-10.64-.93-14.82l-9.73-21.16c-2.67-5.83-4.93-12.49-9.18-17.41a14 14 0 0 0 -15.57-3.9c-6.84 2.58-13.62 5.12-20.63 7.18-6.85 2-13.77 3.74-20.74 5.28-14.37 3.17-28.91 5.57-43.41 8.08-14 2.42-28 5.08-41.9 8.12a235.41 235.41 0 0 0 -27.84 7.77c-5.74 2-11.43 4.18-17.1 6.36l1.65 1.26a425.81 425.81 0 0 0 -13.25-71.09 358.84 358.84 0 0 0 -22.23-59.37 313.22 313.22 0 0 0 -15.57-28.43c-.87-1.42-3.11-.12-2.23 1.3a323.22 323.22 0 0 1 25.94 52.36 384.31 384.31 0 0 1 18.55 64c2.73 13.61 4.76 27.36 6.18 41.18.07.75.78 1.59 1.65 1.26 10-3.86 20.13-7.72 30.51-10.62 10.67-3 21.58-5.1 32.43-7.26 28.19-5.6 56.88-9.08 84.6-16.88 6.73-1.89 13.39-4 19.92-6.54 3.36-1.28 6.41-2.8 10.11-2.36a11 11 0 0 1 7.18 4 31.55 31.55 0 0 1 4.42 7.38c1.58 3.36 3.1 6.75 4.65 10.12l9.44 20.59c1.21 2.63 2.74 5.43 2.77 8.41 0 3.76-3.19 4.54-6.31 3.77s-6.07-2-9.28-2.44a38.26 38.26 0 0 0 -9.32-.2c-13.09 1.33-25 8.21-35.79 15.26s-21.34 14.46-32.21 21.4c-9.27 5.92-18.7 11.59-28.38 16.8-10 5.39-20.22 10.29-30.61 14.84-12.34 5.4-24.86 10.78-37.78 14.65s-26.67 6.17-39.87 2.92c-12.38-3-22.23-11.11-30-20.92-7.38-9.29-13.25-19.84-18.63-30.38a329.88 329.88 0 0 1 -14.46-32.85 475.57 475.57 0 0 1 -20.75-72.36 497.63 497.63 0 0 1 -9.75-72.82q-.47-8.34-.62-16.69a.85.85 0 0 0 -1.7 0z"/><path d="m599.4 426.77c-25.23 65.84-41.58 143-50.34 206.72-11.91 86.64-16.8 174-16.6 261.49.06 26.95-6.07 41.16-21.81 56a5.63 5.63 0 0 0 3.33 9.67c11.49 1.08 23.25 1.22 34.51 2.73 10.48 1.4 22.6 2.09 30.07-5.39 4.63-4.63 6.3-11.37 7.78-17.76 12.67-54.79 24.35-106.62 37-161.42 5.17-22.36 10.37-44.93 10.73-67.88.35-21.83-3.66-44 1.36-65.29 3.25-13.76 10.12-26.34 16.59-38.91 24.78-48.17 47.38-133.93 37.86-187.26" fill="#fff"/><path d="m528.57 924.51c-3.4 10.16-9.17 18.23-17.92 26.48a5.63 5.63 0 0 0 3.33 9.67c11.49 1.08 23.25 1.22 34.51 2.73 10.48 1.4 22.6 2.09 30.07-5.39 4.63-4.63 6.3-11.37 7.78-17.76.73-3.17 1.45-6.31 2.18-9.46-20.18 1.52-41.36 1.08-59.95-6.27z" fill="#18c4ff"/><path d="m598.59 426.55c-12.91 32.7-22.7 66.61-30.92 100.77-7.93 33-14.18 66.35-19 99.9-5.46 38-9.46 76.2-12.27 114.47q-4.29 58.23-5 116.65-.21 14.6-.22 29.2c0 8.27.14 16.55-1.06 24.76a61 61 0 0 1 -15.55 33c-3.35 3.66-9.19 7.59-5.89 13.22 1.41 2.41 3.73 3.18 6.36 3.42 4.58.42 9.18.66 13.77.93 8.75.51 17.42 1.69 26.16 2.33 6.78.5 14.14.22 20.19-3.24 6.42-3.67 9.41-10.38 11.22-17.25 2.39-9.06 4.27-18.29 6.37-27.44q6.46-28.21 12.88-56.46 6.36-28 12.87-55.89c4.35-18.76 9.1-37.49 12.63-56.43a252.78 252.78 0 0 0 3.75-27.66 237.63 237.63 0 0 0 0-28.37c-.88-18.89-1.86-37.78 4.58-55.9 5.77-16.26 15.14-31 21.92-46.85a408.66 408.66 0 0 0 17.42-49.62q3.76-13.33 6.71-26.91c.34-1.55-2-2.21-2.38-.65-7.37 33.93-18.46 67.1-34.41 98-8 15.54-15.11 31-16.59 48.7-1.55 18.45 1.36 36.91.68 55.38-.7 19-4.57 37.77-8.78 56.3s-8.46 36.93-12.66 55.41q-12.43 54.78-25.08 109.51c-1.81 7.8-3.13 17-9.64 22.49-5.94 5-14.36 5.23-21.71 4.66-8.57-.65-17.07-1.84-25.65-2.38-4.59-.28-9.19-.53-13.77-1-1.94-.18-3.73-.46-4.78-2.3a4.46 4.46 0 0 1 .16-4.73c1.78-2.57 4.7-4.65 6.79-7a69.58 69.58 0 0 0 5.24-6.72 56.83 56.83 0 0 0 7.25-15c4.61-14.62 3.55-30.26 3.63-45.37q.3-57.33 3.75-114.58 3.51-56.94 10.57-113.6c4.23-33.52 9.7-66.86 16.8-99.9a905.28 905.28 0 0 1 27-99.9c2.67-7.88 5.39-15.74 8.27-23.54.38-1-1.23-1.44-1.62-.44z"/><path d="m566.34 187.91c-5.57 9.79-.54 23.56-7.43 32.46a7.92 7.92 0 0 0 -1.66 2.66c-.55 2.06 1 3.68 3 4.79 3.81 2.11 3.6 7.58 4.08 11.34.52 4 .71 8 1.46 11.9.65 3.36 2.05 6.76 4.79 8.8a12.41 12.41 0 0 0 7.72 2.15c4.08-.09 7.93-1.63 12-1.83 1.37-.07 2.91-.11 4 .8a5.26 5.26 0 0 1 1.3 2.4q2.46 7.37 4.72 14.82a6.81 6.81 0 0 0 1.88 3.5c1.33 1.07 3.24 1 4.93.73a48.91 48.91 0 0 0 32.34-19.52 5 5 0 0 0 1.26-3.18 5.64 5.64 0 0 0 -1.75-3 66.34 66.34 0 0 1 -14.21-28.45c-3.89-16.43 3.55-37.91-9.09-51.68a21.88 21.88 0 0 0 -11.32-6.5 37.89 37.89 0 0 0 -22 2c-6.14 2.42-14.08 7.16-15.1 14.37" fill="#fff"/><path d="m565.6 187.48c-2.52 4.44-3 9.56-3.35 14.57s-.33 10.18-2.49 14.72a15.91 15.91 0 0 1 -1.93 3.08 7 7 0 0 0 -1.85 3.52c-.29 2.56 1.67 4.27 3.64 5.49s2.58 3.31 2.93 5.46c.39 2.38.54 4.83.79 7.22.61 5.71.62 12.34 4.28 17.11s9.6 5.08 15 4.08c3-.57 6.1-1.58 9.19-1.35 1.75.13 2.2 1.28 2.71 2.78l1.59 4.85c1 3.16 2 6.33 3 9.51.77 2.47 1.92 4.68 4.7 5.16 2.52.44 5.35-.29 7.8-.87a50 50 0 0 0 7.54-2.47 51.31 51.31 0 0 0 13.5-8.34 48 48 0 0 0 5.71-5.79c1.5-1.81 3.75-4.11 3.49-6.65a5.81 5.81 0 0 0 -1.56-3.1c-1-1.22-2.07-2.39-3-3.66a61.06 61.06 0 0 1 -4.85-7.56 70.07 70.07 0 0 1 -6.34-16.47 62.69 62.69 0 0 1 -1.46-14.85c0-9.79.89-20.22-2.85-29.52a26.19 26.19 0 0 0 -8.88-11.7c-4.75-3.39-10.66-4.61-16.41-4.54a41.76 41.76 0 0 0 -16.5 3.74c-4.28 1.9-8.5 4.52-11.24 8.39a13.65 13.65 0 0 0 -2.43 6c-.15 1.12 1.54 1.63 1.74.48.79-4.51 4.29-7.81 8-10.2a39.39 39.39 0 0 1 13.68-5.43 32.14 32.14 0 0 1 17 .85 21.76 21.76 0 0 1 11.34 9.85c4.72 8.26 4.33 18.34 4.21 27.53a109.45 109.45 0 0 0 .41 14 60.66 60.66 0 0 0 3.85 14.8 66.31 66.31 0 0 0 7.78 14.64c.76 1.07 1.56 2.11 2.39 3.13s2.1 2.06 2.61 3.28-.46 2.43-1.16 3.39c-.82 1.11-1.7 2.18-2.63 3.21a48 48 0 0 1 -25.89 14.94c-2.06.42-5.62 1.5-7.17-.48a11.05 11.05 0 0 1 -1.38-3.58q-.71-2.32-1.44-4.64c-.94-3-1.9-6-2.92-9a6.38 6.38 0 0 0 -1.74-3 5.53 5.53 0 0 0 -3.53-1.09c-5.68-.1-11.22 2.94-16.9 1.45s-7.37-7.35-8-12.63c-.38-2.95-.62-5.92-1-8.87a55.9 55.9 0 0 0 -.82-6.33 9.18 9.18 0 0 0 -2.82-5.06c-1.76-1.45-4.76-2.53-2.92-5.26a26.56 26.56 0 0 0 3.42-5.88 28.92 28.92 0 0 0 1.44-6.9c.49-4.82.23-9.72 1.07-14.51a21.29 21.29 0 0 1 2.19-6.6.86.86 0 0 0 -1.48-.86z"/><path d="m572 212.78-.13.18a.28.28 0 0 1 .09-.1l-.19.15.12-.07-.23.1h.09a2.15 2.15 0 0 0 .32-.13l-.25.11a.59.59 0 0 1 .19-.05h-.28.27-.28a.76.76 0 0 1 .2.06l-.26-.11.21.13-.22-.17a1.14 1.14 0 0 1 .19.19l-.18-.23a2 2 0 0 1 .21.37l-.12-.27a1.58 1.58 0 0 1 .09.31v-.31a1.82 1.82 0 0 1 0 .33v-.31a1 1 0 0 1 -.06.23l.11-.28a.51.51 0 0 1 -.09.16l.18-.24-.11.12.23-.19a.41.41 0 0 1 -.11.07l.28-.12h-.15.32-.18l.32.05a.7.7 0 0 1 -.19-.06l.29.12-.13-.07.24.19a.52.52 0 0 1 -.1-.11l.19.25c-.09-.13-.19-.26-.29-.38l.18.24-.05-.09.12.27a1.4 1.4 0 0 0 -.29-.5l-.23-.17a.79.79 0 0 0 -.41-.13.51.51 0 0 0 -.3 0 .59.59 0 0 0 -.29.07.61.61 0 0 0 -.24.15.86.86 0 0 0 -.29.31 1.58 1.58 0 0 0 -.21.73 1.38 1.38 0 0 0 .4 1 1.82 1.82 0 0 0 .84.51 2 2 0 0 0 1 0 1.79 1.79 0 0 0 1-.78 2.06 2.06 0 0 0 .21-.48v-.14a3 3 0 0 0 .05-.43 2.47 2.47 0 0 0 -.25-1.07 1.59 1.59 0 0 0 -.13-.22 2.27 2.27 0 0 0 -.38-.44 2.08 2.08 0 0 0 -1-.5 1.89 1.89 0 0 0 -.82 0 1.68 1.68 0 0 0 -.48.2 1.4 1.4 0 0 0 -.64 1.25v.23a.58.58 0 0 0 .15.29.8.8 0 0 0 .44.3.86.86 0 0 0 1-.39z"/><path d="m568.75 206.94a1.92 1.92 0 0 0 1 0h.18-.16s.28 0 .32 0h.13c-.23 0-.28 0-.17 0a1.73 1.73 0 0 0 .6.11l.64.05-.47-.06a14.65 14.65 0 0 1 1.63.31l-.47-.2h.08a2.32 2.32 0 0 0 1.55.2 1.93 1.93 0 0 0 1.3-1.17 2 2 0 0 0 -1.3-2.71 12.71 12.71 0 0 0 -4.56 0 2 2 0 0 0 -1.23.94 2.16 2.16 0 0 0 -.24 1.3 2 2 0 0 0 2 1.77 19.67 19.67 0 0 1 4.13.07l-.54-.08c.68.11 1.36.28 2 .35l-1-3.83-.41.24a1.86 1.86 0 0 0 .44 3.37l.46.14a2.07 2.07 0 0 0 2.52-1.43 2.09 2.09 0 0 0 -1.43-2.52 8.71 8.71 0 0 0 -1.83-.28c-.49-.06-1-.11-1.47-.14a19.91 19.91 0 0 0 -2.89 0l.54 4h.12l-.55.07a15.82 15.82 0 0 1 1.69-.13c.57 0 1.12.06 1.69.09l-.54-3.95h-.09l.53-.07a10.64 10.64 0 0 0 -2.63.32 2.2 2.2 0 0 0 -.57.23l-.33.25c-.09.07-.08.07 0 0s0 0-.07 0a1.2 1.2 0 0 0 -.24.15c-.43.3-1 .71-1.11 1.28a1.1 1.1 0 0 0 .74 1.31z"/><path d="m603.54 209.65a3 3 0 0 0 -2.19 2.27 2.78 2.78 0 0 0 0 2 1.32 1.32 0 0 0 1.1.68 1.19 1.19 0 0 0 1.17-.82 1.25 1.25 0 0 0 -.57-1.42 1.46 1.46 0 0 0 -1.7.2.93.93 0 0 0 -.2 1 1 1 0 0 0 .86.58 2.39 2.39 0 0 0 .52-.1h-.26.17-.26.1l-.23-.09h.07l-.19-.15.06.06-.15-.19a.16.16 0 0 1 0 .07l-.09-.23s0 .05 0 .08v-.25-.25a.19.19 0 0 1 0 .08l.09-.23a.82.82 0 0 1 .25-.24l.22-.1h-.06.25-.1.25-.11l.23.1c-.12-.06.12.11.14.15s0 0 0 0l.09.22v-.14.25a3.74 3.74 0 0 1 0-.94v.25a4.14 4.14 0 0 1 .15-.63.3.3 0 0 1 0-.1v.11a.61.61 0 0 0 .07-.14 1.35 1.35 0 0 1 .15-.26c.11-.15-.07.09 0 0l.1-.1a.47.47 0 0 1 .1-.1s.15-.13 0 0 0 0 .05 0l.12-.06c.15-.09-.1 0 0 0l.16-.05a.78.78 0 0 0 -.42-1.51z"/><path d="m569.23 231.57a12.63 12.63 0 0 1 3.75-1.45 4.29 4.29 0 0 1 3.74 1 5.88 5.88 0 0 1 1.29 3.63 12.32 12.32 0 0 1 -.12 4.11 5.37 5.37 0 0 1 -2.22 3.36 2.56 2.56 0 0 1 -1.94.42 2.42 2.42 0 0 1 -1.24-.79c-1.14-1.28-1.26-3.13-1.33-4.84l-.16-5.01"/><path d="m569.45 232.36c1.64-.64 3.65-1.63 5.42-.93s1.74 2.75 1.82 4.26c.1 1.74 0 3.87-1.41 5.12-.43.37-1 .74-1.56.36a3.41 3.41 0 0 1 -1-2.1 20.52 20.52 0 0 1 -.24-3.13q-.11-2-.18-4c-.08-1.67-2.68-1.68-2.61 0l.15 4.35a19.78 19.78 0 0 0 .37 3.85 5.63 5.63 0 0 0 1.9 3.18 3.65 3.65 0 0 0 4 .26c2.46-1.23 3.42-4.18 3.43-6.75s-.27-5.7-2.56-7.18c-2.66-1.71-5.81-.33-8.15 1.2-.73.48-.28 1.86.63 1.5z"/><path d="m573.4 239.48a5.09 5.09 0 0 1 .3-.5l.07-.11c.08-.1 0 0 0 0l.18-.22a3.59 3.59 0 0 1 .39-.39l.22-.19.13-.09a3.31 3.31 0 0 1 .47-.29l.26-.14.12-.05c.11-.05-.21.08-.06 0l.55-.18.26-.06a2.43 2.43 0 0 0 .47-.19.92.92 0 0 0 .43-1 1 1 0 0 0 -.9-.69 3.35 3.35 0 0 0 -1.54.42 5.86 5.86 0 0 0 -1.17.76 5.43 5.43 0 0 0 -1.58 2 1 1 0 0 0 -.08.65.85.85 0 0 0 1.54.2z" fill="#18c4ff"/><path d="m597 209.35c1.31-1.85 2.69-3.76 4.67-4.84s4.78-1 6.23.7a6 6 0 0 1 1.11 2.65 14.32 14.32 0 0 1 -2.25 10.83c2.12 4 4.8 8.38 9.22 9.25a15.7 15.7 0 0 0 4.33 0 4.91 4.91 0 0 0 2.92-.93 4.73 4.73 0 0 0 1.1-2 124.76 124.76 0 0 0 5.82-25.24c.67-5.44 1-11.06-.57-16.33a24.18 24.18 0 0 0 -30.09-16.44c-1.66-4.44-6.72-6.72-11.45-7.11s-9.48.63-14.22.49c-4.24-.12-8.39-1.15-12.6-1.61-1.29-.14-2.85-.09-3.52 1a2.84 2.84 0 0 0 -.28 1.75c.42 4.51 4.75 7.48 8.65 9.78l-6.77.22a3 3 0 0 0 -2 .55c-1.09 1-.2 2.84.92 3.81a11.33 11.33 0 0 0 7.68 2.78c-3.12.86-6.74-.66-9.58.91a2.86 2.86 0 0 0 -1.62 2.32 2.71 2.71 0 0 0 .48 1.47c1 1.56 2.87 2.32 4.64 2.88 9.79 3.11 20.28 3 30.56 2.85-1.59 2.46-3.22 5.57-1.8 8.13.78 1.39 2.27 2.19 3.49 3.21a10.81 10.81 0 0 1 3.8 8.83"/><path d="m597.72 209.77c1.21-1.66 2.52-3.51 4.41-4.45 1.61-.81 4-.9 5.12.74s1.08 4.44.78 6.35a13.56 13.56 0 0 1 -2.32 5.68 1.24 1.24 0 0 0 0 1.21 24.86 24.86 0 0 0 5.27 7.44c2.79 2.43 5.93 2.84 9.52 2.47 1.56-.16 3.1-.49 4.09-1.82s1.47-3.5 2-5.2q1.81-5.73 3.06-11.63c1.63-7.68 3.13-16 2-23.83a25.58 25.58 0 0 0 -32.51-21l1.67.94a12.77 12.77 0 0 0 -8.26-7.23c-4.44-1.47-9.17-.91-13.74-.57a42.34 42.34 0 0 1 -7.8 0c-2.53-.27-5-.78-7.55-1.13-1.9-.27-4.18-.78-5.92.35s-1.7 3.44-1.19 5.25c1.22 4.34 5.37 7.06 9 9.23l.7-2.59c-2.53.08-5.16 0-7.68.28a3.16 3.16 0 0 0 -2.87 4c1.07 4.09 6.66 5.89 10.37 5.87l-.37-2.77c-3.76.91-9.35-1.43-11.79 2.82-1.09 1.89-.14 4 1.38 5.36a14.25 14.25 0 0 0 5.64 2.59c9.62 2.73 19.72 2.62 29.62 2.39l-1.18-2.06c-2.1 3.37-4 7.83-.54 11 1.46 1.35 3.2 2.23 4.34 3.92a9.8 9.8 0 0 1 1.68 5.91c0 1.54 2.29 1.52 2.38 0a12.12 12.12 0 0 0 -4.21-9.87c-1.33-1.11-3.24-2.07-3.45-4s1.12-4 2.16-5.62a1.37 1.37 0 0 0 -1.18-2.05c-8.25 0-16.64.16-24.77-1.51a50.35 50.35 0 0 1 -5.76-1.52c-1.1-.37-3.76-1.27-3.7-2.81.06-1.72 3.35-1.67 4.44-1.64a21.26 21.26 0 0 0 5.69-.23 1.42 1.42 0 0 0 -.38-2.77c-2.48 0-6-.87-7.39-3.17-.31-.53-.48-.86.09-1.11a7.07 7.07 0 0 1 2.16-.1l5.32-.18a1.4 1.4 0 0 0 .7-2.59c-2.71-1.61-5.74-3.44-7.26-6.32-.54-1-1.49-3.4.23-3.67s4 .36 5.77.65a54.92 54.92 0 0 0 12.34.88c4-.26 8.13-.94 12.08-.12 3.36.71 6.92 2.47 8.26 5.83a1.38 1.38 0 0 0 1.66 1 22.83 22.83 0 0 1 28.5 15.7c1.91 6.78.86 14.18-.29 21q-.87 5.13-2.15 10.16-.64 2.51-1.39 5a29.16 29.16 0 0 1 -1.74 5.28c-.82 1.54-3.35 1.39-4.89 1.39a7.67 7.67 0 0 1 -4.57-1.42c-2.52-1.79-4.07-4.69-5.53-7.32v1.21a15.73 15.73 0 0 0 2.54-7.81c.13-2.47-.19-5.74-2.21-7.46a6.07 6.07 0 0 0 -6.2-.66c-2.52 1-4.16 3.38-5.66 5.55-.62.9.83 1.71 1.46.85z"/><path d="m669.2 254.4a238.3 238.3 0 0 0 -83.2 23.08c-15.14 7.37-30.58 17.68-35.66 33.74a58.21 58.21 0 0 0 -2.22 15.94 151.53 151.53 0 0 0 3.78 38c3.93 17.14 10.82 33.46 18.26 49.4 4.48 9.6 9.29 19.56 9.13 30.15a13.13 13.13 0 0 0 .38 4.73c1.2 3.32 5.1 4.67 8.55 5.43a110.79 110.79 0 0 0 61.1-4c5.38-1.95 10.62-4.33 16.14-5.85 4.45-1.22 9-1.88 13.54-2.86a195.11 195.11 0 0 0 22.14-6.69c7-2.43 14.65-5.4 18-12 1.35-2.63 1.85-5.87.56-8.54-.76-1.58-2.09-2.84-2.94-4.38-1.92-3.46-1.23-7.7-.59-11.6a216.25 216.25 0 0 0 -12.78-115.24c-2.78-6.87-6-13.7-10.88-19.26s-11.75-9.75-19.15-10"/><path d="m669.2 253.59a239 239 0 0 0 -62 13.58 209.19 209.19 0 0 0 -27.94 12.39c-7.62 4.16-15 9.15-20.87 15.62a44.17 44.17 0 0 0 -7.24 10.57 43.52 43.52 0 0 0 -3.86 14.25 132.85 132.85 0 0 0 1.05 33.09c3.11 21.64 11.33 42 20.52 61.66 4.49 9.62 9.35 19.52 9.15 30.39 0 2.23 0 4.48 1.34 6.38a10.29 10.29 0 0 0 4.65 3.48c4.37 1.79 9.43 2.33 14.08 2.92a112 112 0 0 0 31.72-.61 110.35 110.35 0 0 0 15.3-3.6c5.08-1.59 10-3.69 14.95-5.51a102.2 102.2 0 0 1 16-4.06 136.69 136.69 0 0 0 16.28-4.26c4.75-1.53 9.54-3.07 14.17-4.95 3.85-1.56 7.67-3.48 10.63-6.45s5.27-7.49 4.44-11.92c-.44-2.36-2-4-3.26-5.9a11.32 11.32 0 0 1 -1.43-7.37c.21-2.52.73-5 1.09-7.52s.71-5.18 1-7.78q.84-7.8 1.12-15.65a219.68 219.68 0 0 0 -6.85-62.53 208.17 208.17 0 0 0 -10.05-29.65c-3.8-8.88-8.9-17.66-17.32-22.88a26.13 26.13 0 0 0 -12.5-4c-1.58-.07-1.57 2.37 0 2.45 9.41.44 17.1 7 22 14.62a79.32 79.32 0 0 1 6.63 13.31q2.88 7.05 5.22 14.3a214.5 214.5 0 0 1 9.06 90.66c-.56 4.94-1.67 9.87-2.05 14.83a14.36 14.36 0 0 0 .85 6.72c.89 2.15 2.83 3.7 3.62 5.88 1.56 4.27-1.39 8.8-4.51 11.5s-6.93 4.3-10.69 5.69a188.06 188.06 0 0 1 -30.3 8.76 91.49 91.49 0 0 0 -15.19 4.15c-4.83 1.81-9.58 3.79-14.51 5.29a109.54 109.54 0 0 1 -30.45 4.71 112.59 112.59 0 0 1 -15-.82c-2.6-.32-5.19-.75-7.76-1.27a25.16 25.16 0 0 1 -6.15-1.75 5.83 5.83 0 0 1 -3.6-4.26 23.59 23.59 0 0 1 -.07-3.76 32.65 32.65 0 0 0 -.2-3.83 55.67 55.67 0 0 0 -3.75-14.46c-3.78-9.63-8.62-18.82-12.59-28.37a210 210 0 0 1 -10.14-29.8 151 151 0 0 1 -4.43-32.16c-.29-10-.22-20.69 4.52-29.8 8.15-15.69 25.56-24.37 41-31.21a240.75 240.75 0 0 1 59-17.49c5.07-.81 10.16-1.44 15.27-1.92 1-.09 1.06-1.72 0-1.63z"/><path d="m522.2 928.76a10.8 10.8 0 0 0 5.12 5.77 1 1 0 1 0 1-1.7 9.9 9.9 0 0 1 -1.49-.91s-.23-.18-.06 0l-.16-.13-.33-.28-.64-.61q-.3-.32-.57-.66s-.15-.19-.08-.09l-.07-.1-.28-.39c-.32-.49-.62-1-.89-1.51a.85.85 0 0 0 -1.54.65z"/><path d="m518.06 935.09a10.93 10.93 0 0 0 1.87 3.94 11.46 11.46 0 0 0 1.53 1.66 8.55 8.55 0 0 0 1.85 1.32 1 1 0 0 0 1.3-.34 1 1 0 0 0 -.34-1.29l-.82-.52-.43-.31c-.14-.11.16.14-.08-.06l-.19-.16a10.22 10.22 0 0 1 -1.38-1.41c-.19-.24-.3-.38-.5-.67s-.35-.55-.51-.83a8.52 8.52 0 0 1 -.74-1.76.81.81 0 0 0 -1.56.43z"/><path d="m513.49 940.64a16.39 16.39 0 0 0 4.74 7.49.92.92 0 0 0 1.26 0 .91.91 0 0 0 0-1.26 17.3 17.3 0 0 1 -2.63-3 14.86 14.86 0 0 1 -1.76-3.63.86.86 0 0 0 -1-.58.85.85 0 0 0 -.58 1z"/><path d="m941.39 586.86c.05.09.1.17.14.26l.06.12a4.81 4.81 0 0 1 .16.54l.06.29s0 .09 0 .14a5.8 5.8 0 0 1 0 .59s0 .09 0 .13 0-.15 0 0l-.06.29a4.64 4.64 0 0 1 -.16.53c0 .12.06-.14 0 0a.37.37 0 0 0 -.05.11 2.2 2.2 0 0 1 -.15.26c-.15.27-.38.51-.33.85a.88.88 0 0 0 1.09.83c.61-.11.93-1 1.11-1.49a5 5 0 0 0 .24-1.43 4.65 4.65 0 0 0 -.79-2.71.8.8 0 0 0 -1.06-.28.78.78 0 0 0 -.27 1.06z"/><path d="m948.17 585.11c0-.2 0 .1 0 .15a1.51 1.51 0 0 0 0 .3v.15s0 .23 0 .1 0 .05 0 .07a.76.76 0 0 1 0 .15 2.71 2.71 0 0 1 0 .29v.34a.93.93 0 0 1 0 .29s0-.15 0 0v.15c0 .1 0 .21-.07.32s-.11.38-.18.57v.06.05l-.15.3c-.1.18-.2.34-.31.51l-.06.08a4.56 4.56 0 0 0 -.31.42 1 1 0 0 0 .26 1.28 1 1 0 0 0 1.3-.08 4.16 4.16 0 0 0 .86-1.29 5.7 5.7 0 0 0 .5-1.51 6.14 6.14 0 0 0 .1-1.54 5.7 5.7 0 0 0 -.1-.83c0-.12-.05-.25-.08-.36a2 2 0 0 0 -.34-.55.79.79 0 0 0 -.87-.17.84.84 0 0 0 -.49.73z"/><path d="m955 584.23a6.48 6.48 0 0 1 .17 1.73 5.22 5.22 0 0 1 -.31 1.69 4 4 0 0 1 -.3.71 7.68 7.68 0 0 1 -.47.78 4.29 4.29 0 0 1 -.53.6l-.34.31-.15.13c-.25.21.14-.1-.12.09a1 1 0 0 0 -.36 1.39 1 1 0 0 0 1.41.34 7.36 7.36 0 0 0 2.69-3.83 7.72 7.72 0 0 0 .31-2.17 5.88 5.88 0 0 0 -.53-2.34.79.79 0 0 0 -1-.33.8.8 0 0 0 -.46.94z"/><path d="m636.77 491.44c4.45-1.33 8.85-2.81 13.36-4s9-2.15 13.57-3.18c1.18-.27.66-2-.49-1.78a115.25 115.25 0 0 0 -13.6 3.08 118.76 118.76 0 0 0 -13.26 4.35c-.9.37-.58 1.81.42 1.51z"/><path d="m702.73 476q5.17-2 10.52-3.51 2.63-.74 5.28-1.36l2.76-.6c.4-.09.79-.17 1.19-.24l.79-.16c.36 0 .31-.07-.16-.31l.1-.76.82-.15.48.83v-.12a1 1 0 0 0 -1.94 0c0 2 3.25 1.07 2.34-.7-.46-.9-1.53-.84-2.36-.68-1.39.26-2.76.59-4.13.92a121.26 121.26 0 0 0 -16.14 5.17c-1 .41-.59 2.08.46 1.67z"/><path d="m575.41 285.1c-13 1.44-30.39 29.79-42.58 49l-10.39 16.41c-4 6.26-8.09 13.18-7.21 20.53.52 4.31 2.72 8.22 5.11 11.84a102.64 102.64 0 0 0 31.14 30.41c3.12 2 6.51 3.79 10.19 3.91 4.52.14 8.79-2.37 11.87-5.69s5.17-7.39 7.36-11.35a214.5 214.5 0 0 1 33.78-45.54"/><path d="m575.41 284.28c-5.36.58-9.95 4.41-13.67 8a123.34 123.34 0 0 0 -14.41 17.5c-4.72 6.67-9.13 13.56-13.52 20.46q-3.84 6-7.69 12.07c-2.71 4.25-5.56 8.44-8 12.85-2.22 4-4.06 8.3-4.33 12.9s1.42 9 3.73 13a97.24 97.24 0 0 0 16.78 20.81 102.51 102.51 0 0 0 10.39 8.68 54.47 54.47 0 0 0 11.7 7.06 14.94 14.94 0 0 0 12.71-.69c4-2.11 7-5.67 9.44-9.47 2.51-4 4.61-8.21 7-12.26s5-8.06 7.67-12a237.12 237.12 0 0 1 17.68-22.31c1.57-1.77 3.16-3.53 4.78-5.26 1.23-1.31-.69-3.25-2-2a203.69 203.69 0 0 0 -32.79 43.43c-4 7-8 16.69-16.88 18.43-4.56.9-8.79-1.61-12.48-4a101.83 101.83 0 0 1 -27.82-26.18c-2.53-3.52-5.15-7.25-6.45-11.43-1.37-4.43-.66-8.93 1.09-13.15s4.37-8.14 6.82-12l8.09-12.85c4.12-6.56 8.21-13.14 12.51-19.58a183.35 183.35 0 0 1 13.64-18.49c3.66-4.23 8-8.94 13.24-11.11a12.4 12.4 0 0 1 3-.8c.91-.12.71-1.71-.21-1.61z"/><path d="m451.6 244.33a19.63 19.63 0 0 0 4.88 4.61 15.18 15.18 0 0 0 6.25 2.57.91.91 0 0 0 .9-.79 1 1 0 0 0 -.66-1c-1-.33-1.93-.57-2.87-1a16.74 16.74 0 0 1 -2.7-1.38 17.75 17.75 0 0 1 -4.51-4c-.57-.72-1.85.25-1.29 1z"/><path d="m446.77 253.86a17.4 17.4 0 0 0 13 6.8c1.28 0 1.24-1.84 0-2a17.73 17.73 0 0 1 -6.38-1.74 18.38 18.38 0 0 1 -5.31-4.08c-.6-.67-1.83.24-1.27 1z"/><path d="m445.22 263.38a12.91 12.91 0 0 0 7.37 4 1 1 0 0 0 1.15-.65.94.94 0 0 0 -.65-1.15 11.93 11.93 0 0 1 -6.78-3.33c-.71-.71-1.76.36-1.09 1.09z"/><g fill="#18c4ff"><path d="m594.19 373.91-10.34 19.28c-1.73 3.21-3.46 6.42-5.16 9.65l-2.43 4.62c-.42.81-.84 1.62-1.27 2.42a6.79 6.79 0 0 1 -.62 1.12c-.15.2-.49.42-.52.38-.62-.94-2.35-.37-1.92.81a2.16 2.16 0 0 0 2.94 1.3c1.61-.64 2.3-2.8 3-4.21q3-5.73 6-11.48l11.79-23c.49-1-.94-1.82-1.46-.86z"/><path d="m642.29 275a403 403 0 0 1 26.81 114.11c.56 6.56 1.22 16.92 9.16 18.81a.9.9 0 0 0 .48-1.74c-7-2-7.3-11.4-7.81-17.31q-1.23-14.12-3.44-28.14a398.9 398.9 0 0 0 -12.92-55.63q-4.79-15.45-10.79-30.47c-.37-.91-1.86-.52-1.49.41z"/><path d="m675.6 421.82a8.31 8.31 0 0 0 5.66-.83.9.9 0 0 0 .32-1.22.92.92 0 0 0 -1.22-.32 5.28 5.28 0 0 1 -.53.27c-.1 0-.11 0 0 0l-.16.06-.24.09a9.54 9.54 0 0 1 -1.2.29h-.17-.3a5.86 5.86 0 0 1 -.59 0h-.6-.13l-.33-.07a.89.89 0 1 0 -.48 1.72z"/></g><g fill="#fff"><path d="m527.2 216.78c-3 5.9-5.37 13.16-2.92 19.7.41 1.11 2.15.68 1.8-.5a19.64 19.64 0 0 1 -.53-9.42 37.69 37.69 0 0 1 3.08-8.94c.45-1-.94-1.8-1.43-.84z"/><path d="m524.68 241.83h.41a.62.62 0 0 0 .33-.08.83.83 0 0 0 .45-.45.73.73 0 0 0 .13-.3v-.23a.78.78 0 0 0 -.22-.37l-.17-.14a.92.92 0 0 0 -.43-.11h-.41a.62.62 0 0 0 -.33.07.57.57 0 0 0 -.28.18.59.59 0 0 0 -.17.27.62.62 0 0 0 -.08.33v.23a.87.87 0 0 0 .22.37l.18.14a.89.89 0 0 0 .43.12z"/><path d="m287.29 111.08c18 13.52 36.11 27 55 39.32 18.7 12.13 38.21 23.13 58.88 31.54a230.32 230.32 0 0 0 35.69 11.36l-.48-1.8c-1.37 1.63-1 3.51.23 5.11 1.53 1.93 3.72 2.84 5.92 3.79 5.38 2.3 10.87 4.36 16.45 6.13a181.14 181.14 0 0 0 34.25 7.28 180.51 180.51 0 0 0 20 1.15 1 1 0 0 0 0-2.08 179.57 179.57 0 0 1 -63-11.7c-1.64-.63-15-5-12.29-8.15a1.09 1.09 0 0 0 -.48-1.81c-21.66-4.92-42.36-13.27-62-23.6-19.76-10.41-38.46-22.74-56.71-35.62-10.32-7.29-20.5-14.78-30.66-22.29-.83-.61-1.61.77-.8 1.37z"/><path d="m519.36 219 3.3-.81a.88.88 0 1 0 -.46-1.69l-3.3.85a.86.86 0 0 0 -.59 1 .87.87 0 0 0 1.05.6z"/></g><g fill="#18c4ff"><path d="m601.76 655a56.56 56.56 0 0 1 14.68-2.19.86.86 0 0 0 0-1.71 58.62 58.62 0 0 0 -15.11 2.34.81.81 0 0 0 .43 1.56z"/><path d="m608.45 664.45a23.94 23.94 0 0 0 8.43-3.49c1-.64.06-2.23-.92-1.57a22.76 22.76 0 0 1 -8 3.35.89.89 0 0 0 .47 1.71z"/><path d="m763.24 581.57a13.11 13.11 0 0 0 -10.55 7.28 1 1 0 0 0 1.67 1 11.41 11.41 0 0 1 8.88-6.55.89.89 0 0 0 .86-.86.86.86 0 0 0 -.86-.85z"/><path d="m748.31 585.35a11.33 11.33 0 0 1 7-8.31.89.89 0 0 0 .61-1.08.88.88 0 0 0 -1.08-.61 13 13 0 0 0 -8.1 9.56.85.85 0 0 0 .57 1 .83.83 0 0 0 1-.57z"/><path d="m25.6 324.36c13-16.36 26.65-32.86 43.77-45.14 8.19-5.88 17.49-11.24 27.3-13.82 4.53-1.19 9.86-1.76 14.09.69 4.67 2.71 6.08 8.38 6.64 13.37a52.46 52.46 0 0 1 -6.4 31.43c-2.5 4.44-5.81 9.51-10.76 11.45-3.72 1.46-9.38.4-10.51-4-.78-3 .87-6.15 2.32-8.71 1.27-2.24 2.62-4.44 4-6.6a135.46 135.46 0 0 1 9.47-12.89 137.61 137.61 0 0 1 22.83-21.84 126.33 126.33 0 0 1 13-8.7c4.38-2.52 9.78-5 15-4.14a10.38 10.38 0 0 1 8.55 9.74c.4 4.92-2.07 9.34-5.79 12.41a22.73 22.73 0 0 1 -6.34 3.64l1.06 1.81a109.56 109.56 0 0 1 49.56-33.89 107.85 107.85 0 0 1 16.61-4.17c1.22-.21.7-2.07-.52-1.87a111.27 111.27 0 0 0 -55 25.87 108.93 108.93 0 0 0 -12.23 12.54c-.61.74-.06 2.24 1.06 1.81 4.88-1.87 9.44-5.1 11.95-9.8a15.16 15.16 0 0 0 .29-13.81c-2.4-4.77-7.54-7-12.72-6.54-5.67.52-10.81 3.34-15.55 6.3a138.1 138.1 0 0 0 -47.28 49.4c-2.52 4.54-4.27 10.6.61 14.26 4 3 9.48 2.36 13.43-.39 4.55-3.17 7.73-8.3 10.16-13.18a54.45 54.45 0 0 0 5.21-16.94 50.52 50.52 0 0 0 -.42-17c-1.09-5.25-3.76-10.14-9-12.2-4.74-1.87-10.2-1.09-15 .32a79.83 79.83 0 0 0 -15.42 6.69c-20.09 11-35.7 28.49-49.92 46.09-1.78 2.2-3.55 4.42-5.3 6.64-.68.85.52 2.07 1.2 1.21z"/><path d="m66.85 218.26a278.4 278.4 0 0 1 35-29.41q5.26-3.72 10.71-7.2l-1.3-1a57.92 57.92 0 0 1 -12.56 24.45 1 1 0 0 0 1.17 1.53q18.84-11 37.62-22.06l-1.47-.84q-1 7.82-2.05 15.64a1 1 0 0 0 1.22.93 32.54 32.54 0 0 0 10.87-6.76c.89-.84-.44-2.17-1.33-1.34a31.29 31.29 0 0 1 -10 6.24l1.22.93q1-7.83 2.08-15.64c.1-.77-.9-1.19-1.47-.85q-18.82 11-37.62 22.07l1.18 1.52a60.16 60.16 0 0 0 12.88-25.35.9.9 0 0 0 -1.3-1 281 281 0 0 0 -36.39 28q-4.86 4.43-9.5 9.06a.77.77 0 0 0 1.09 1.1z"/><path d="m198.37 184.94-2.48-3.71a1.13 1.13 0 0 0 -1.5-.39 1.11 1.11 0 0 0 -.39 1.5l2.46 3.72a1.14 1.14 0 0 0 1.52.4 1.12 1.12 0 0 0 .39-1.52z"/><path d="m93.08 133a27.18 27.18 0 0 0 15.25 5.15.87.87 0 0 0 0-1.73 25.6 25.6 0 0 1 -14.4-4.88c-.88-.63-1.72.83-.85 1.46z"/><path d="m91.7 36.11c9.77 15 20.11 30 33.26 42.32 6.16 5.78 12.91 11.21 20.63 14.75 7 3.22 15.16 5.22 22.8 3.19 6.83-1.81 13.89-7.66 13.61-15.37a9 9 0 0 0 -4.75-7.71 11.74 11.74 0 0 0 -8.31-.6 13.69 13.69 0 0 0 -7.39 4.93c-2.31 3.13-2.95 7.37-2.57 11.16.83 8.43 5.88 16.15 11.49 22.24a53.1 53.1 0 0 0 20.75 14.13c4.15 1.49 8.94 2.22 13.21.77a13.56 13.56 0 0 0 8-7.17 9.88 9.88 0 0 0 .76-5.2 1.18 1.18 0 0 0 -2.35 0c-.29 6.43 3.52 12.22 8.51 16 5.76 4.33 13 5.93 19.89 7.42 1.36.29 1.94-1.78.58-2.1-6.31-1.48-12.92-3-18.35-6.67-4.81-3.28-8.53-8.64-8.28-14.62h-2.35a9.23 9.23 0 0 1 -4.13 8.6c-3.26 2.33-7.39 2.63-11.23 1.84-7.62-1.57-14.84-6.34-20.47-11.57s-10.52-11.62-12.83-18.88c-2.07-6.47-1.63-14.6 5.13-18 4.83-2.41 12-1.29 12.59 5.1.68 7.29-6.56 12.59-12.88 14-7.12 1.61-14.71-.42-21.17-3.46-7-3.3-13.14-8.13-18.83-13.33-12.02-10.88-21.7-24.08-30.68-37.51-1.12-1.67-2.22-3.35-3.33-5-.53-.82-1.85-.06-1.31.77z"/></g><path d="m469.62 297a42.79 42.79 0 0 1 35.6-21.89c1.61-.05 3.43.08 4.5 1.29a5.75 5.75 0 0 1 1.1 2.64q.75 3.35 1.24 6.74c.19 1.37.28 3-.72 3.94-1.32 1.27-3.45.55-5.24.18-4.82-1-9.68 1.26-13.92 3.76a100.25 100.25 0 0 0 -12.75 8.89 17.06 17.06 0 0 0 -3.78 3.9c-1.62 2.53-1.92 5.66-2.19 8.65-1.65-.12-2.28-2.18-2.5-3.83l-1.82-13.78"/><path d="m470.31 297.42a47.15 47.15 0 0 1 13.75-14.27 41.43 41.43 0 0 1 18.55-6.62 14.65 14.65 0 0 1 4.9 0c1.87.49 2 2.42 2.38 4.05a40.76 40.76 0 0 1 1.05 6.28 2.59 2.59 0 0 1 -.46 2c-.64.61-1.81.35-2.57.19a18.76 18.76 0 0 0 -5.53-.53 20 20 0 0 0 -5.48 1.4 58 58 0 0 0 -10.38 5.86c-3.59 2.4-7.49 5-10.45 8.17s-3.47 7.09-3.83 11.16l1.55-1.18c-1.1-.17-1.36-1.39-1.55-2.34-.3-1.56-.43-3.17-.64-4.74-.42-3.2-.67-6.49-1.4-9.64a1.1 1.1 0 0 0 -2.16.29c.14 4 .94 8.07 1.47 12.06.32 2.4.56 6.26 3.63 6.73a1.25 1.25 0 0 0 1.55-1.18 25.57 25.57 0 0 1 1-5.95 11.21 11.21 0 0 1 3.46-4.79 85.47 85.47 0 0 1 10.5-7.73c3.61-2.31 7.46-4.73 11.73-5.53a15.82 15.82 0 0 1 6.05.34c1.63.31 3.48.4 4.76-.86a5.25 5.25 0 0 0 1.12-4.45c-.26-2.25-.69-4.49-1.17-6.7-.35-1.67-.75-3.38-2.2-4.45a7.48 7.48 0 0 0 -4.74-1.11 42.77 42.77 0 0 0 -20.13 5.85c-6.74 3.9-12.86 9.75-16.16 16.88a.8.8 0 0 0 1.38.8z"/><path d="m473.55 308.81a81.12 81.12 0 0 1 -3.18-19.75 10.75 10.75 0 0 1 .55-4.62 9.31 9.31 0 0 1 2-2.78 27.3 27.3 0 0 1 11.57-7.09 5.77 5.77 0 0 1 2.32-.34 5.09 5.09 0 0 1 3.39 2.57c1.83 2.83 2.42 6.25 2.87 9.58q.56 4 .91 7.94a9.69 9.69 0 0 1 -.55 5.3 8.68 8.68 0 0 1 -2.78 2.91 40.75 40.75 0 0 1 -13.06 6.47 3 3 0 0 1 -1.64.13 1.06 1.06 0 0 1 -.8-1.26" fill="#18c4ff"/><path d="m474.35 308.59a81.49 81.49 0 0 1 -2.72-18.1 21.39 21.39 0 0 1 .06-4.08 6.85 6.85 0 0 1 2-3.65 26.44 26.44 0 0 1 9.56-6.36c1.27-.48 2.92-1.27 4.22-.54 2.16 1.21 3.06 4.49 3.57 6.72a70.87 70.87 0 0 1 1.25 8.47c.27 2.44 1.1 5.8-.13 8.07a9.8 9.8 0 0 1 -3.26 3 40.09 40.09 0 0 1 -3.85 2.36 40.73 40.73 0 0 1 -4.18 2c-.39.16-4.49 1.4-4.49 1.39.13-1.41-2.29-1.76-2.5-.34a2.42 2.42 0 0 0 2.09 2.92c1.53.25 3.39-.6 4.8-1.11a41.45 41.45 0 0 0 9.13-4.62c2.77-1.88 5.19-3.88 5.48-7.44a26.6 26.6 0 0 0 -.26-4.8q-.29-2.81-.66-5.6c-.69-5.14-2.42-15.62-9.89-13.71a26.8 26.8 0 0 0 -8.91 4.36c-2.43 1.79-5.21 4-6.18 7a15.87 15.87 0 0 0 -.29 6c.14 2 .35 4 .65 6a89.65 89.65 0 0 0 2.91 12.47.83.83 0 0 0 1.6-.44z"/><path d="m511.8 390.87q2.31-5 5-9.73c1.81-3.18 3.9-6.18 5.8-9.3.83-1.36-1.19-2.45-2.09-1.22a73.82 73.82 0 0 0 -5.66 9.59c-1.7 3.26-3.22 6.61-4.6 10-.35.87 1.12 1.49 1.52.64z"/><g fill="#18c4ff"><path d="m146 151.84a277.12 277.12 0 0 1 40-2.41l-.46-1.72q-10.94 5.49-21.85 11a1 1 0 0 0 -.35 1.3c.48 1.08 1.67 1.28 2.75 1.27 1.91 0 3.83-.17 5.74-.26l11.72-.54q11.73-.54 23.46-1.13c1.17-.06 1.18-1.87 0-1.82q-10.72.45-21.46.95l-10.45.52-5.49.26-2.5.12c-.49 0-1.83.3-2.09-.29l-.35 1.3q10.92-5.52 21.83-11.07a.93.93 0 0 0 -.47-1.72 278.74 278.74 0 0 0 -40.21 2.63c-.92.13-.71 1.76.22 1.63z"/><path d="m217.49 175.23a.87.87 0 0 0 0-1.73.87.87 0 0 0 0 1.73z"/><path d="m160.4 222.87q10.14-8.37 20.9-15.94l-1.34-.54a16.3 16.3 0 0 1 -.39 10.37c-.91 2.44-2.07 5.17-.13 7.42a1 1 0 0 0 1.24.16q13.08-8.18 26-16.55c1.07-.7.09-2.4-1-1.72q-13.12 8.13-26.07 16.5l1.24.16c-.94-1.07-.4-2.66 0-3.86a31.54 31.54 0 0 0 1.3-4.14 18.23 18.23 0 0 0 -.47-8.83.91.91 0 0 0 -1.34-.54q-10.87 7.77-21.16 16.33c-.82.69.36 1.86 1.18 1.18z"/></g></svg>