<svg width="15" height="25" viewBox="0 0 15 25" fill="none" xmlns="http://www.w3.org/2000/svg">
<path d="M13.8071 0.548975C14.1586 0.900589 14.3561 1.37742 14.3561 1.8746C14.3561 2.37178 14.1586 2.84861 13.8071 3.20022L4.52585 12.4815L13.8071 21.7627C14.1486 22.1164 14.3376 22.59 14.3334 23.0816C14.3291 23.5732 14.1319 24.0435 13.7843 24.3911C13.4366 24.7388 12.9663 24.936 12.4747 24.9402C11.9831 24.9445 11.5095 24.7555 11.1558 24.414L0.548974 13.8071C0.197466 13.4555 0 12.9787 0 12.4815C0 11.9843 0.197466 11.5075 0.548974 11.1559L11.1558 0.548975C11.5075 0.197466 11.9843 0 12.4815 0C12.9787 0 13.4555 0.197466 13.8071 0.548975V0.548975Z" fill="#1C69E2"/>
</svg>
