<svg width="15" height="25" viewBox="0 0 15 25" fill="none" xmlns="http://www.w3.org/2000/svg">
<path d="M0.54898 0.548975C0.197472 0.900589 5.06639e-06 1.37742 5.06639e-06 1.8746C5.06639e-06 2.37178 0.197472 2.84861 0.54898 3.20022L9.83023 12.4815L0.54898 21.7627C0.207434 22.1164 0.0184442 22.59 0.0227162 23.0816C0.0269883 23.5732 0.22418 24.0435 0.57182 24.3911C0.91946 24.7388 1.38973 24.936 1.88135 24.9402C2.37297 24.9445 2.8466 24.7555 3.20023 24.414L13.8071 13.8071C14.1586 13.4555 14.3561 12.9787 14.3561 12.4815C14.3561 11.9843 14.1586 11.5075 13.8071 11.1559L3.20023 0.548975C2.84861 0.197466 2.37179 0 1.8746 0C1.37742 0 0.900594 0.197466 0.54898 0.548975V0.548975Z" fill="#1C69E2"/>
</svg>
