<svg width="15" height="25" viewBox="0 0 15 25" fill="none" xmlns="http://www.w3.org/2000/svg">
<g clip-path="url(#clip0_48_110)">
<path d="M1.1929 24.451C0.8414 24.0994 0.6439 23.6226 0.6439 23.1254C0.6439 22.6282 0.8414 22.1514 1.1929 21.7998L10.4742 12.5185L1.1929 3.2373C0.851399 2.8836 0.6624 2.41 0.6666 1.9184C0.6709 1.4268 0.8681 0.956501 1.2157 0.6089C1.5634 0.2612 2.0337 0.0639992 2.5253 0.0597992C3.0169 0.0555 3.4905 0.244501 3.8442 0.586L14.451 11.1929C14.8025 11.5445 15 12.0213 15 12.5185C15 13.0157 14.8025 13.4925 14.451 13.8441L3.8442 24.451C3.4925 24.8025 3.0157 25 2.5185 25C2.0213 25 1.5445 24.8025 1.1929 24.451Z" fill="#DA89B4"/>
</g>
<defs>
<clipPath id="clip0_48_110">
<rect width="15" height="25" fill="white" transform="translate(15 25) rotate(180)"/>
</clipPath>
</defs>
</svg>
