<?xml version="1.0" ?><svg viewBox="0 0 1000 1000" xmlns="http://www.w3.org/2000/svg"><path d="m534 573.88a84.74 84.74 0 0 0 -6.22-17.63 83.19 83.19 0 0 0 -4.58-8.27q-1.22-1.9-2.52-3.75a24.56 24.56 0 0 0 -2.93-3.79 1.07 1.07 0 0 0 -1.67 1.29c.8 1.34 1.93 2.51 2.86 3.77s1.67 2.33 2.45 3.53a84.88 84.88 0 0 1 4.64 8 82.12 82.12 0 0 1 6.42 17.27.8.8 0 0 0 1.55-.42z"/><path d="m418.83 509a488.76 488.76 0 0 0 12.66 58.11 438.34 438.34 0 0 0 19.1 54.66c6.69 15.48 15.72 30.7 30.26 40 14.35 9.14 32.12 11.76 48.83 10.22 19.41-1.78 37.77-8.93 55.57-16.46q3.35-1.41 6.68-2.85a1.72 1.72 0 0 0 .62-2.35 1.75 1.75 0 0 0 -2.35-.62c-17.58 7.6-35.43 15.27-54.46 18.32-16.38 2.62-34.12 1.38-49-6.35-15.09-7.82-24.71-22-31.77-37-3.83-8.15-7.1-16.56-10.23-25q-5.06-13.62-9.28-27.51a485.68 485.68 0 0 1 -13.61-56.67q-.62-3.48-1.18-7c-.19-1.18-2-.67-1.8.5z"/><path d="m687 419.56c-24.53 13.11-46.61 30.26-68.55 47.33l-28.09 21.84c-3 2.33-6 4.73-8 7.95-3 4.84-3.23 10.91-2.6 16.57 2 18.19 11.91 34.59 23.2 49 12.47 15.93 28 30.86 47.66 35.75a56.77 56.77 0 0 0 64.69-30.08"/><path d="m686.57 418.82c-21.69 10.83-41.23 25.63-60.37 40.38q-14.93 11.51-29.79 23.09c-2.51 1.94-5 3.88-7.53 5.84a38.9 38.9 0 0 0 -6.09 5.52c-3.54 4.23-4.82 9.56-4.79 15 0 11 3.84 22 8.77 31.66a149.73 149.73 0 0 0 18.6 27.4c13.27 16 30.36 30.42 51.66 33.11a58.14 58.14 0 0 0 55.97-25.66 55.1 55.1 0 0 0 3.67-6.42c.89-1.83-1.82-3.44-2.75-1.61a56.46 56.46 0 0 1 -19.37 21.87 55.47 55.47 0 0 1 -30.09 9.06 58.37 58.37 0 0 1 -29.83-8.35c-8.66-5.07-16.17-11.88-22.88-19.29a160.49 160.49 0 0 1 -19-25.46c-5.43-9.12-9.66-19-11.29-29.58-.79-5.16-1.11-10.82.93-15.75 2.14-5.16 7.08-8.43 11.32-11.74l29-22.62c18.44-14.36 37.08-28.49 57.17-40.5 2.51-1.51 5-3 7.57-4.47 1-.56.12-2-.87-1.49z"/><path d="m404.44 410.08a188.65 188.65 0 0 1 18.73-72.39c6.2-12.72 14.1-25 25.44-33.48 3.73-2.77 9.62-4.83 12.47-1.16a9.24 9.24 0 0 1 1.5 4.08c3.9 20.33 2.17 41.28 3.74 61.93 1.68 22 7.11 43.85 5.8 65.9" fill="#fff"/><path d="m405.24 410.08a190.63 190.63 0 0 1 9.95-50.18 183.11 183.11 0 0 1 9.89-23.48 107.64 107.64 0 0 1 12.38-19.63 71.44 71.44 0 0 1 7.91-8.31c2.61-2.31 5.43-4.7 8.83-5.7a6.69 6.69 0 0 1 4.33-.08c1.66.68 2.25 2.37 2.6 4a109.39 109.39 0 0 1 1.87 13.37c1.63 18.06.56 36.24 2.37 54.29s5.49 35.74 5.54 53.84q0 3.39-.18 6.76c-.09 1.79 2.68 1.78 2.79 0 1.18-18.91-2.64-37.58-4.81-56.27-1.08-9.34-1.52-18.69-1.71-28.08s-.23-18.93-1-28.37c-.39-4.62-.95-9.24-1.77-13.8-.64-3.53-1.53-7.47-5.53-8.46-3.16-.78-6.61.53-9.28 2.17a47.48 47.48 0 0 0 -8.75 7.39c-11.59 11.76-19.1 27.26-24.92 42.46a187.5 187.5 0 0 0 -11.68 51.45q-.27 3.3-.43 6.6c-.05 1 1.54 1 1.6 0z"/><path d="m367.77 361.53-2.91-48.91c-.1-1.66-.16-3.44.73-4.84 1.2-1.9 3.87-2.43 6-1.78a13.77 13.77 0 0 1 5.49 3.81c14.77 14.74 22.72 35.19 25.92 55.76s2.07 41.58.93 62.38" fill="#fff"/><path d="m368.56 361.53c-.37-13.48-1.42-27-2.18-40.43-.19-3.3-.54-6.64-.53-10a4.18 4.18 0 0 1 1.42-3.62 4.68 4.68 0 0 1 3.73-.48c2.65.63 4.67 2.92 6.47 4.82a75.42 75.42 0 0 1 5.37 6.33c14.14 18.68 19.52 42.41 20.68 65.41.75 14.82-.07 29.65-.89 44.44-.1 1.69 2.52 1.68 2.61 0 1.46-26.61 2.91-54-4.87-79.83a96.65 96.65 0 0 0 -15.55-31.18 80.34 80.34 0 0 0 -5.64-6.59c-1.9-2-3.93-4.09-6.54-5.12a7 7 0 0 0 -6.71.66c-2.46 1.85-2.23 5-2.05 7.73l1.5 23.95c.5 8 .87 16 1.6 24 .09 1 1.6 1 1.57 0z"/><path d="m336 363.86-6.08-38.24c-.33-2-.62-4.22.39-6 1.21-2.14 4-2.95 6.45-2.51a16 16 0 0 1 6.5 3.36c16.42 12.39 28.26 30.15 35.88 49.26s11.23 39.58 13.31 60" fill="#fff"/><path d="m336.74 363.64c-2-12.89-4.13-25.77-6-38.69-.4-2.75-.22-5.74 2.88-6.68 2.64-.8 5.23.44 7.38 1.9a78.31 78.31 0 0 1 12 10.45c15.65 16.13 25.43 37 31.12 58.49 1.75 6.63 3.14 13.36 4.28 20.12q.89 5.25 1.56 10.55c.45 3.43.74 6.88 1.32 10.29.21 1.26 2.26 1 2.21-.3a157.94 157.94 0 0 0 -2.38-19.36c-1-6.46-2.32-12.89-3.91-19.24a158.28 158.28 0 0 0 -12.87-34.62 114.37 114.37 0 0 0 -19.76-27.5 76.9 76.9 0 0 0 -12.9-10.92 11.14 11.14 0 0 0 -7.37-2.08 6.41 6.41 0 0 0 -5.22 3.67c-1.25 2.95-.12 6.58.37 9.58l1.88 11.51 3.8 23.27c.16 1 1.72.59 1.56-.44z"/><path d="m301.85 365-4.15-24.33c-.41-2.36 1.86-4.51 4.22-4.86s4.72.58 6.91 1.54a142.22 142.22 0 0 1 75.84 82.43 3.68 3.68 0 1 1 -.76-1.28" fill="#fff"/><path d="m302.61 364.81c-1.1-6.83-2.18-13.66-3.31-20.49-.23-1.42-.9-3.26-.59-4.68a3.92 3.92 0 0 1 2.82-2.67c2.91-.82 6.1 1 8.66 2.2a139.77 139.77 0 0 1 26.94 16.56 143.29 143.29 0 0 1 39.61 48.27c1.34 2.66 2.59 5.37 3.75 8.11.57 1.35 1.11 2.71 1.64 4.08a24.83 24.83 0 0 1 1.52 4.23 2.83 2.83 0 0 1 -1.86 3 2.43 2.43 0 0 1 -2.89-1.62c-1-2.6 2.44-4.31 4.26-2.54a1.07 1.07 0 0 0 1.51-1.51 5 5 0 0 0 -6.51-.41 4.61 4.61 0 0 0 -.75 6.43 4.52 4.52 0 0 0 6.52 1.06 5.26 5.26 0 0 0 1.91-2.84c.39-1.53-.17-2.88-.69-4.3a139.72 139.72 0 0 0 -16.6-32.14 142 142 0 0 0 -54.7-47.06c-3.15-1.52-6.61-3.48-10.16-3.76-3-.24-6.45 1.46-7 4.69-.3 1.86.47 4.06.8 5.89.38 2.19.78 4.38 1.17 6.56l2.41 13.35c.18 1 1.68.57 1.52-.42z"/><path d="m404.79 429.74c6.28-40.18 32.64-74.68 63.45-101.22 6.85-5.9 14.39-11.71 23.31-13.19 2.08-.35 4.36-.41 6.14.73 2.74 1.76 3.15 5.52 3.29 8.78q2.2 51.89 4.42 103.77l-3.4-1.19" fill="#fff"/><path d="m405.56 430a137.72 137.72 0 0 1 16.09-44.41 194.8 194.8 0 0 1 28.73-38.35c5.52-5.81 11.33-11.34 17.37-16.6 6.2-5.41 12.85-11 20.9-13.31 3.54-1 8.54-2 10.21 2.29a16.5 16.5 0 0 1 .83 5.27c.1 2.41.19 4.82.29 7.23l1.19 29.69q1.18 29.69 2.53 59.37c.11 2.49.2 5 .45 7.48l1.58-1.21c-1.14-.33-2.27-.7-3.41-1.07-1.4-.45-1.93 1.67-.6 2.18 1.12.42 2.24.84 3.34 1.3.78.33 1.58-.48 1.59-1.2.08-5.15-.29-10.32-.5-15.47l-.66-15.46c-.44-10.23-.85-20.46-1.31-30.69l-1.39-30.68c-.21-4.74-.13-9.62-.76-14.33-.49-3.65-2.21-7.23-6.18-8s-8.29.75-11.86 2.28a52.1 52.1 0 0 0 -10.99 6.69 227.63 227.63 0 0 0 -49.81 55.29c-8.5 14-15 29.2-18.13 45.28-.39 2-.72 3.94-1 5.93-.15 1 1.37 1.44 1.54.42z"/><path d="m287.72 379 46.34 183.74c1.14 4.53 2.35 9.19 5.2 12.89 4.52 5.86 12.15 8.1 19 10.95 14.68 6.11 34.66 17 43.8 30 2.42 3.45 4.85 7.29 8.78 8.8a18.82 18.82 0 0 0 7.33.77c9.09-.23 2.43.1 11.52-.13a19.53 19.53 0 0 0 7.06-1.06c2.89-1.22 5-3.74 7-6.14 21.79-26 56.33-49.6 85.07-67.56 3.15-2 6.51-4.08 8.05-7.47 1.1-2.41 1.1-5.16 1.08-7.82-.63-61.57-9.11-123.07-5.82-184.57.18-3.38.15-7.34-2.54-9.4s-6.74-1-10 .3c-32.61 13-70.86 37.72-94 64.13-2.39 2.73-4.8 5.58-8 7.34-5.22 2.89-11.39 3.12-17.21 3.07-5.35 0-12.2.78-17.11-1.7-4.09-2.06-6.85-6.09-9.52-9.66-19.23-25.69-48.29-45.13-80-49.93-4.71-.72-9.62-2.77-12.26 1.18 1.07 5.08 4 12.71 6.69 24" fill="#18c4ff"/><path d="m286.82 379.23q13.67 54.77 27.37 109.54l13.67 54.48q1.65 6.6 3.31 13.21c1.06 4.22 2 8.55 3.37 12.67a23.19 23.19 0 0 0 5.84 9.61 32 32 0 0 0 9 5.61c6.32 2.79 12.76 5.17 18.94 8.29a130.57 130.57 0 0 1 19.1 11.55 62.87 62.87 0 0 1 14.41 14.48c1.95 2.79 4.06 5.72 7.14 7.36 3.53 1.89 7.6 1.5 11.47 1.42s7.85.11 11.76-.19a14.72 14.72 0 0 0 10.05-4.76c2.6-2.71 4.9-5.7 7.44-8.46 10.75-11.68 22.94-22 35.58-31.58s25.82-18.43 39.21-26.92c6-3.8 13.58-7.19 14.56-15 .53-4.24.13-8.66 0-12.92q-.15-7-.41-14c-1.35-37.06-4.68-74-5.72-111.09-.26-9.34-.38-18.69-.28-28q.07-7 .32-14c.15-4 .65-8.15.44-12.18-.17-3.2-1.22-6.52-4.32-8-3.31-1.56-7.14-.29-10.32 1-6.92 2.76-13.7 5.88-20.34 9.26a289.35 289.35 0 0 0 -40.41 24.79 211.46 211.46 0 0 0 -33.78 30.38c-2.55 2.91-5.11 5.79-8.69 7.43-3.81 1.73-8.09 2.11-12.22 2.19-3.79.08-7.63.21-11.42.09s-7.51-.8-10.52-3.3c-2.76-2.28-4.76-5.31-6.91-8.13s-4.58-5.81-7.05-8.57a136.59 136.59 0 0 0 -16.28-15.44 126.79 126.79 0 0 0 -38.45-21.32 109.66 109.66 0 0 0 -10.7-3c-3.44-.79-6.92-1.27-10.37-1.95-3-.58-6.47-1.45-9.24.26-1.17.72-2.45 1.89-2.16 3.36.24 1.21.6 2.41.95 3.59 2 6.71 4.13 13.36 5.77 20.16.38 1.59 2.84.92 2.46-.68-1.17-4.82-2.5-9.6-3.92-14.36-1-3.2-2-6.4-2.69-9.68l-.14 1.05c2-2.72 5.91-1.44 8.63-.89 3.31.68 6.65 1.14 10 1.9a111.9 111.9 0 0 1 19.92 6.62 128.32 128.32 0 0 1 35.11 23.18 136.68 136.68 0 0 1 14.3 15.45c4.18 5.27 7.83 11.79 14.72 13.78a34.61 34.61 0 0 0 10.3.91c3.72-.07 7.48.05 11.19-.25a29.39 29.39 0 0 0 10.68-2.64c3.44-1.67 6-4.47 8.52-7.3 19.45-22.16 44.21-39.68 70.15-53.44 6.19-3.28 12.5-6.34 18.93-9.11 3.15-1.36 6.65-3.25 10.14-3.47 3.81-.25 5.45 2.58 5.63 6 .22 4-.29 8.16-.43 12.18q-.23 6.45-.31 12.9c-.11 8.79 0 17.57.19 26.36.87 35.2 3.91 70.3 5.45 105.47.39 8.79.68 17.58.82 26.38.06 3.84.75 8.48-1 12-1.58 3.16-4.89 5-7.77 6.84-12.6 7.88-25 16-37.06 24.8a322.55 322.55 0 0 0 -34.97 28.85c-5.11 5-9.75 10.25-14.46 15.58a17.12 17.12 0 0 1 -4.07 3.62 13 13 0 0 1 -6 1.43c-2.3.1-4.63.18-6.94.13-1.27 0-2.53 0-3.79 0-3.64.08-7.61.58-10.84-1.47-2.9-1.84-4.71-5-6.67-7.69a52 52 0 0 0 -6-6.85c-9.78-9.45-22.16-16.3-34.51-21.79-6.06-2.69-12.77-4.53-18.23-8.39-6.64-4.7-8.06-12.66-9.93-20.06q-6.54-25.85-13.12-51.69-13-51.42-26.14-102.82l-6.44-25.29a.93.93 0 0 0 -1.8.5z" fill="#18c4ff"/><g fill="#fff"><path d="m442 440.74a212.4 212.4 0 0 1 61.35-49.32l.25 47.79a15 15 0 0 1 -.62 5.34c-.92 2.45-3.05 4.23-5.1 5.86-11.49 9.16-23.66 18-31.92 30.11-3.78 5.57-7.74 12.46-14.45 13a130.84 130.84 0 0 1 -9.48-50"/><path d="m442.59 441.32a212.28 212.28 0 0 1 46.35-40.24c4.86-3.12 9.86-6 15-8.74l-1.61-.92v27.63l.06 13.69v6.92c0 2.13-.13 4.19-1.36 6a18.21 18.21 0 0 1 -3.86 3.78l-4.66 3.67c-3.06 2.42-6.13 4.84-9.12 7.34a104.65 104.65 0 0 0 -16.39 16.55c-2.37 3.11-4.31 6.53-6.77 9.58-2.23 2.77-5 5.39-8.75 5.76l1.15.88a131.07 131.07 0 0 1 -9.47-49.64 1.17 1.17 0 0 0 -2.33 0 132.74 132.74 0 0 0 9.51 50.27 1.22 1.22 0 0 0 1.14.87c7.06-.71 11.09-7.05 14.7-12.44a90.67 90.67 0 0 1 16.15-17.79c3.1-2.7 6.31-5.28 9.54-7.83 3.08-2.44 6.41-4.73 9.25-7.47a11.67 11.67 0 0 0 3.06-4.55 19.62 19.62 0 0 0 .58-6.44l-.09-14.43c-.06-10.79-.19-21.58-.28-32.36a1.08 1.08 0 0 0 -1.61-.93 214.21 214.21 0 0 0 -49.49 36.77q-6.22 6.21-11.9 12.9c-.69.8.47 2 1.16 1.16z"/><path d="m612.76 925.14a1141.8 1141.8 0 0 1 58-180.16c3.3-7.89 6.71-15.8 8.51-24.15.86-4 1.45-8.28 4.11-11.37a19.49 19.49 0 0 1 6.17-4.29 153.87 153.87 0 0 1 42.27-13.87c20.17-3.58 40.78-3.46 61.27-3.32l125.61.82c4.7 0 10 .28 13.22 3.67 3.63 3.75 4.48 10.27 7.2 14.73 4.09 6.71 9.73 12.38 13.65 19.3 31.75 56 21.51 137.09 17.36 198.64"/></g><path d="m613.73 925.4c5.83-24.12 12.24-48.08 19.52-71.82s15.37-47.54 24.21-70.9q6.54-17.22 13.54-34.24c2.4-5.79 4.94-11.54 7-17.46a83.83 83.83 0 0 0 2.64-9.06 62.15 62.15 0 0 1 1.87-7.73c2-5.59 7.82-7.71 12.83-10a145.8 145.8 0 0 1 17.39-6.58 174.22 174.22 0 0 1 37-7c13-1.1 26.06-1.13 39.1-1s26.34.16 39.51.25l79.22.51 10 .07a38.28 38.28 0 0 1 7.79.52 9.87 9.87 0 0 1 6.16 3.64 26.14 26.14 0 0 1 3.17 6.66 42.83 42.83 0 0 0 2.71 6.35 62.89 62.89 0 0 0 4.86 7c3.48 4.57 7 9 9.81 14.07 9.7 17.6 15.08 37.27 18 57.06 3.15 21 3.61 42.33 3 63.52-.55 20.67-2.2 41.29-3.67 61.92-.33 4.63-.59 9.28-.9 13.92-.13 1.91 2.85 1.91 3 0 1.39-20.53 3.35-41 4.33-61.56 1-21.6 1.23-43.31-.9-64.85-2-20.54-6.18-41-14.39-60a127.63 127.63 0 0 0 -6.53-13.29c-3-5.14-6.88-9.63-10.37-14.4a39.26 39.26 0 0 1 -4.28-6.85c-1.06-2.35-1.8-4.82-2.81-7.18-2-4.61-5-8-10-9.13-5.51-1.26-11.52-.72-17.12-.75l-20.42-.09-40.33-.26-40.67-.32c-13.26-.09-26.54-.32-39.8 0-25.53.6-50.79 4.18-74.22 14.79-4.92 2.23-10.77 4.47-13.49 9.47a26 26 0 0 0 -2.37 7.26c-.63 3-1.32 6-2.23 9-1.87 6-4.36 11.83-6.79 17.64s-4.78 11.57-7.09 17.39c-9.38 23.63-17.81 47.64-25.5 71.87s-14.51 48.47-20.51 73.06c-1.46 6-2.87 12-4.19 18-.28 1.26 1.63 1.8 1.94.53z"/><path d="m826.22 392.11c-4.46 17.49-18.45 34.16-34.8 41.81-11.82 5.53-27.14 6.64-36.91-2-10.59-9.39-9.44-20.46-8.48-34.58-31.28 12.12-28.41 8.05-54.24 22.28-7.08 3.91-14 8.33-19.5 14.26-20.32 21.94-29 53.56-30 81.24a253.52 253.52 0 0 0 9.31 77.25c4.24 15.19 10.3 29.88 13.76 45.29 4.95 22-10.17 49.53 1 69.77 9 16.28 31 18 47.32 20.51a507.66 507.66 0 0 0 130.48 3.06c27.6-2.93 85.39-4.23 99.17-34.48 8.2-18-7.55-38.39-9.72-56.26-2.87-23.75 4.55-47.65 11.25-70.2 9-30.42 11.59-65.95 3.08-96.76-9.11-33-34.73-60.88-68.72-68.28-16.47-3.59-36.7-11.81-53.42-14.56"/><path d="m825.45 391.9c-4.58 16.76-16.92 31.86-32.28 39.94-7.41 3.89-16.07 6.09-24.46 5.05a25 25 0 0 1 -19.47-13.53c-3.93-8-2.66-17.51-2.07-26a1.15 1.15 0 0 0 -1.44-1.1q-10.92 4.23-22 7.91c-4.37 1.45-8.76 2.87-13 4.65a188.78 188.78 0 0 0 -17.06 8.42c-8.35 4.53-16.51 9.48-22.94 16.58-11.75 13-19.59 29.14-24.27 45.92-4.93 17.7-6.1 36-5.37 54.3a254.73 254.73 0 0 0 10.35 62.44c3 10.16 6.7 20.11 9.7 30.27a96.74 96.74 0 0 1 3.58 14.78 60.11 60.11 0 0 1 .12 12.07c-.66 8.61-2.45 17.07-3.4 25.64-.9 8.08-1.11 16.58 1.76 24.32a31.39 31.39 0 0 0 14 16.35c6.33 3.67 13.55 5.58 20.69 6.93 8 1.51 16.1 2.58 24.16 3.68q16 2.19 32.22 3.36a507.45 507.45 0 0 0 65.37.5c15.19-.86 30.37-2.46 45.51-3.94 13.4-1.3 26.87-3 39.9-6.51 11.78-3.18 24.07-7.95 32.74-16.88a32 32 0 0 0 8.87-16.4c1.46-8.38-.84-16.81-3.59-24.68s-6.36-15.81-7.78-24.17c-1.74-10.26-.9-21.1.77-31.3 3.34-20.36 11.14-39.58 15-59.81 6.75-35.5 5.37-75.77-14.91-106.88a94.67 94.67 0 0 0 -34.11-31.86 87 87 0 0 0 -22.34-8.31c-9.11-2-18-4.93-26.9-7.68-8.72-2.7-17.5-5.37-26.52-6.88-1.82-.31-2.6 2.47-.77 2.78 18.09 3 35.07 10.45 52.92 14.44a87.11 87.11 0 0 1 41 21.75 98.51 98.51 0 0 1 25.3 39.06c6.23 17.81 7.89 37.2 7 55.95a196.45 196.45 0 0 1 -3.7 29.29c-2 9.64-4.86 19-7.59 28.43-5.62 19.4-10.72 40-7.92 60.32 1.13 8.18 4.5 15.87 7.28 23.58s5.5 15.9 4.47 24.14c-1.56 12.54-12.23 21.22-22.92 26.37-11.83 5.7-25 8.42-37.93 10.35-12 1.78-24.06 2.64-36.11 3.8a583.78 583.78 0 0 1 -60.29 3.11 508.47 508.47 0 0 1 -64.18-4.56c-7.9-1.08-15.86-2.14-23.71-3.59-7.06-1.31-14.23-3.11-20.49-6.74a28.6 28.6 0 0 1 -13.4-16.8c-2.32-7.8-1.69-16.16-.66-24.12 1.07-8.36 2.77-16.66 3.21-25.09a56.4 56.4 0 0 0 -.51-11.83 112.28 112.28 0 0 0 -3.62-14.31c-3-9.94-6.57-19.69-9.54-29.63a251.82 251.82 0 0 1 -7.06-30.43c-3.31-19.62-4.63-40-2.69-59.85 1.67-17.07 6.16-34.1 14.1-49.36a97.51 97.51 0 0 1 14.86-21.36c6.49-7 14.79-11.68 23.08-16.18a164.79 164.79 0 0 1 16.12-7.92c4.22-1.73 8.57-3.13 12.89-4.58 7.09-2.38 14.1-4.95 21.07-7.65l-1.43-1.09c-.56 8.18-1.61 17 1.41 24.87a26.81 26.81 0 0 0 18 16.09c17.81 4.71 36.42-5.86 48-18.79a64.45 64.45 0 0 0 14.53-27.2.8.8 0 0 0 -1.54-.43z"/><path d="m687.38 244.35a126.75 126.75 0 0 1 -10.12 58.74c-4.6 10.62-10.68 20.64-14.25 31.66-4.46 13.78-4.74 29.07.32 42.64s15.67 25.21 29.16 30.46c-1.57-.61-6.13 18.41-6.37 20.21-1.35 10.09-.61 22 8 28.65 9.53 7.36 22.81 7.9 33.58 3.08 13.86-6.19 18.55-18.18 19.58-32.58a182.65 182.65 0 0 0 -8.6-69.71" fill="#18c4ff"/><path d="m686.42 244.35a132.6 132.6 0 0 1 -3.48 37.65 127.47 127.47 0 0 1 -6 18.17c-2.39 5.81-5.3 11.38-8.09 17a127.49 127.49 0 0 0 -7.42 17.35 71.21 71.21 0 0 0 -3.33 18.24 61.24 61.24 0 0 0 7.9 33.95 53.14 53.14 0 0 0 26 22.67l.84-3.05c-1.63-.46-2.52 1.26-3 2.48a50.19 50.19 0 0 0 -2.05 6c-1.18 4-2.27 8.06-3.09 12.15a42.69 42.69 0 0 0 .29 17.83 24 24 0 0 0 12.24 15.86c12.74 6.85 29.8 4.39 40.38-5.38s11.55-24.94 11.75-38.4a184.32 184.32 0 0 0 -7.09-53.25c-.63-2.2-1.33-4.36-2.08-6.52-.65-1.88-3.61-1.11-3 .84a194.73 194.73 0 0 1 8.81 49.49 144 144 0 0 1 -.72 23.85 39.56 39.56 0 0 1 -5.57 16.52c-7 10.83-21.6 15.61-33.92 12.68-6.35-1.52-12.5-5.08-15.65-11-2.95-5.5-3.28-12.07-2.79-18.17a62.14 62.14 0 0 1 2-10.39c1-3.68 1.92-8.12 3.53-11.28.1-.21.28-.42.36-.63-.09.25 0 .09-.15.15a1.59 1.59 0 0 1 -1.07.19c2 .56 2.69-2.32.84-3.05a49.25 49.25 0 0 1 -23-19.27 57.39 57.39 0 0 1 -8.75-32.48c.28-12.48 4.48-23.94 9.85-35.06 2.68-5.55 5.49-11 7.88-16.73a126.7 126.7 0 0 0 9.43-58.44c-.11-1.21-2-1.25-1.92 0z" fill="#18c4ff"/><path d="m691.3 271.89c.14-5.91-4.78-61.1 39.65-67.5 16.77-2.41 33.79 1.62 48.25 10.44 4.5 2.74 13-12 17.09-8.75 22.62 18 36.38 54.16 30.5 89.67-5.71 34.51-30.17 68.49-70.71 79.26-23.27 6.18-34.31-5.54-44.53-16.48s-15.89-25.81-18.43-40.88-2.18-30.47-1.82-45.76z" fill="#fff"/><path d="m775.81 270.94a17.26 17.26 0 0 0 -6.25-2c-2.31-.43-4.68-.66-7-.87a99.76 99.76 0 0 0 -13.72-.31c-2.92.14-2.94 4.7 0 4.56a116.59 116.59 0 0 1 13.48.11c2.24.15 4.46.44 6.7.66a22.57 22.57 0 0 0 6.51.17c1.14-.22 1.13-1.74.3-2.3z"/><path d="m697.22 272.37c1.67.44 3.73 0 5.43-.16 1.93-.22 3.85-.49 5.79-.62a74.45 74.45 0 0 1 11.47.18 2.3 2.3 0 0 0 2.28-2.28 2.33 2.33 0 0 0 -2.28-2.28 63.93 63.93 0 0 0 -11.9 0 51.38 51.38 0 0 0 -5.92.82c-1.78.39-4.05.95-5.43 2.19a1.27 1.27 0 0 0 .56 2.11z"/><path d="m762.19 285.26a.61.61 0 0 1 -.58.12c-.37-.11.13 0 .18.08-.16-.07-.18-.08-.08 0h.06c-.13-.11-.15-.12-.06 0v.05c.17.14-.13-.2 0 0l.15.23a7.51 7.51 0 0 1 .5.65c-.16-.3 0-.06 0 0l.15.24a3.9 3.9 0 0 1 .28.49c0 .05.08.22.12.25-.08-.21-.1-.24 0-.09v.08c.06.2.11.39.15.59s0-.43 0-.09v.25s0 .17 0 .25v-.09s-.07.32-.11.48a2.25 2.25 0 0 0 -.08.24c-.06.16.19-.41 0-.1a2.39 2.39 0 0 1 -.13.21c-.19.29.19-.21.07-.08l-.17.17c-.25.23.21-.12.09-.06l-.18.11c-.28.17.31-.1.15-.06s-.28.08-.43.1l.45-.06a2.15 2.15 0 0 1 -.62 0l.46.06a2.5 2.5 0 0 1 -.54-.13c-.21-.06.21.08.22.1s-.1-.05-.13-.06l-.27-.16c-.27-.18.32.28.09.06l-.2-.2c-.12-.11.24.34.15.2l-.07-.12a1.74 1.74 0 0 1 -.14-.27l.18.42a2.11 2.11 0 0 1 -.14-.49l.06.47a2.71 2.71 0 0 1 0-.57l-.06.47a2.14 2.14 0 0 1 .15-.55l-.19.43.15-.29a.71.71 0 0 1 .1-.14c-.2.24-.25.31-.16.21l.09-.09c.13-.12.07-.08-.18.13l.27-.16-.43.18a1.69 1.69 0 0 1 .44-.12l-.48.06a1.77 1.77 0 0 1 .46 0l-.48-.07a2.18 2.18 0 0 1 .44.11l-.44-.18a1.44 1.44 0 0 1 .4.23l-.37-.29a1.66 1.66 0 0 1 .26.27l-.29-.37a1.28 1.28 0 0 1 .15.25l-.19-.44a2 2 0 0 1 .09.33l-.06-.49a2 2 0 0 1 0 .42l.07-.5a1.33 1.33 0 0 1 -.1.34l.19-.44a1.58 1.58 0 0 1 -.2.36l.29-.38a1.36 1.36 0 0 1 -.24.24l.38-.29-.49.37.38-.29a2.43 2.43 0 0 0 -.78.75 2.11 2.11 0 0 0 -.26 1 1.86 1.86 0 0 0 .91 1.56 2 2 0 0 0 2.09-.07 3 3 0 0 0 1-1 3.32 3.32 0 0 0 -.28-4 3.52 3.52 0 0 0 -3.67-.95 3.77 3.77 0 0 0 -2.51 3.37 3.67 3.67 0 0 0 1.28 3.07 4.3 4.3 0 0 0 3.06 1.08 3.92 3.92 0 0 0 3.09-1.86 4.54 4.54 0 0 0 .46-3.49 5.35 5.35 0 0 0 -.8-1.73 6.22 6.22 0 0 0 -1.49-1.58 3.38 3.38 0 0 0 -1.66-.68 1.36 1.36 0 0 0 -1.49 1.31.87.87 0 0 0 1.47.61z"/><path d="m713.55 286.77a.59.59 0 0 1 -.57.12c-.37-.11.13 0 .17.08-.15-.07-.18-.08-.07 0h.06c-.14-.11-.16-.12-.07 0v.05c.17.14-.13-.2 0 0l.16.23a7.37 7.37 0 0 1 .49.65c-.15-.3 0-.06 0 0l.16.24c.1.16.19.32.28.49s.07.22.12.25c-.09-.21-.1-.24-.05-.09v.09c.06.19.1.38.15.58s0-.43 0-.08a2 2 0 0 1 0 .25 2.18 2.18 0 0 1 0 .25v-.1s-.07.32-.12.48a2.25 2.25 0 0 1 -.08.24c-.06.16.2-.41 0-.1l-.12.21c-.19.29.18-.2.06-.08a1.37 1.37 0 0 1 -.17.17c-.25.24.22-.12.09-.06l-.18.11c-.27.17.32-.1.16-.06l-.44.11.46-.07a2.15 2.15 0 0 1 -.62 0l.46.07a3.7 3.7 0 0 1 -.55-.14c-.21-.06.22.09.23.1a.75.75 0 0 0 -.13-.06l-.27-.16c-.28-.18.31.29.08.06a1.8 1.8 0 0 0 -.19-.2c-.13-.11.23.34.15.2a.83.83 0 0 0 -.08-.12c0-.09-.1-.18-.14-.27l.18.42a2.75 2.75 0 0 1 -.14-.49l.07.48a1.88 1.88 0 0 1 0-.58l-.07.48a2.56 2.56 0 0 1 .15-.56l-.18.43a1.59 1.59 0 0 1 .15-.29l.09-.14q-.3.38-.15.21l.08-.09c.14-.12.08-.07-.18.13.1 0 .18-.11.28-.16l-.44.19a1.45 1.45 0 0 1 .45-.13l-.49.06a1.85 1.85 0 0 1 .47 0l-.49-.07a1.76 1.76 0 0 1 .45.12l-.44-.19a2.3 2.3 0 0 1 .4.23l-.38-.29a1.72 1.72 0 0 1 .27.27l-.29-.37a2 2 0 0 1 .14.25l-.18-.44a1.89 1.89 0 0 1 .09.34l-.07-.5a2 2 0 0 1 0 .42l.06-.5a2.25 2.25 0 0 1 -.09.35l.19-.45a1.62 1.62 0 0 1 -.21.36l.3-.38a1.88 1.88 0 0 1 -.25.24l.39-.29c-.17.12-.33.25-.49.38l.38-.3a1.93 1.93 0 0 0 -1 1.73 1.84 1.84 0 0 0 .92 1.56 2 2 0 0 0 2.09-.07 3.1 3.1 0 0 0 1-1 3.32 3.32 0 0 0 -.29-4 3.51 3.51 0 0 0 -3.67-.95 3.8 3.8 0 0 0 -2.51 3.37 3.73 3.73 0 0 0 1.28 3.08 4.37 4.37 0 0 0 3.06 1.07 3.87 3.87 0 0 0 3.09-1.86 4.58 4.58 0 0 0 .47-3.49 5.22 5.22 0 0 0 -.81-1.72 6.4 6.4 0 0 0 -1.48-1.59 3.41 3.41 0 0 0 -1.67-.68 1.38 1.38 0 0 0 -1.49 1.31.87.87 0 0 0 1.47.61z"/><path d="m732 291.92c-.26 2.85-.51 5.7-.86 8.53a2.62 2.62 0 0 1 -.75 1.86c-.41.39-.89.71-1.33 1.08a7.92 7.92 0 0 0 -2.11 2.75 7.52 7.52 0 0 0 .13 6.53 7.67 7.67 0 0 0 2 2.43c.81.66 2 .93 2.73 1.66 1.38 1.46 3.58-.75 2.2-2.19a9.21 9.21 0 0 0 -2.35-1.42 4.61 4.61 0 0 1 -.63-7.58 6.13 6.13 0 0 0 1.83-2.47 11 11 0 0 0 .45-3.07c.12-2.7.23-5.41.39-8.11.06-1.07-1.56-1-1.65 0z"/><path d="m772.8 367.59a94.15 94.15 0 0 1 -13.25 5.21 56.25 56.25 0 0 1 -13.32 2.69 32.8 32.8 0 0 1 -19.17-4.67c-5.23-3.19-9.54-7.62-13.7-12.06a68 68 0 0 1 -13.5-21.15c-7.28-17.95-7.9-37.58-7.59-56.69.07-4.11.23-8.22.14-12.33-.06-2.95-.06-5.9.06-8.84a86.28 86.28 0 0 1 4.53-25.43c3.3-9.24 9-17.7 17.44-22.93 12.62-7.84 29.28-7.91 43.28-4.37a74.7 74.7 0 0 1 13 4.59q3.07 1.42 6 3.11c1.16.66 2.27 1.58 3.66 1.61 2.14 0 4.09-1.57 5.63-2.86 2-1.63 3.71-3.48 5.71-5.06a8.39 8.39 0 0 1 2.51-1.52c.86-.27 1.17 0 1.89.55a70.94 70.94 0 0 1 7.88 7.56 85.17 85.17 0 0 1 12.69 19.11 102.73 102.73 0 0 1 10.24 48.55 100 100 0 0 1 -1.25 12.79c-.24 1.46 2 2.09 2.24.62a105.94 105.94 0 0 0 -4.5-51.84c-5.14-14.71-13.68-28.75-25.9-38.64-1.83-1.48-3.66-1.32-5.63-.11a40.69 40.69 0 0 0 -5.84 4.89c-1.4 1.27-3.41 3.48-5.42 3.64a1.51 1.51 0 0 1 -.7-.1 32.44 32.44 0 0 1 -3.16-1.84c-2-1.12-4.12-2.15-6.25-3.08a75 75 0 0 0 -26.76-6.37 59 59 0 0 0 -22.83 3.07 42.4 42.4 0 0 0 -23 20.79c-4.37 8.48-6.46 18-7.35 27.4-.55 5.87-.41 11.69-.4 17.58 0 9.19-.44 18.35 0 27.55a132.24 132.24 0 0 0 4.14 29.16 79.12 79.12 0 0 0 10.84 24.12 85.47 85.47 0 0 0 14.26 15.66c4.89 4.28 10.53 7.71 16.93 9.12 8.33 1.84 16.78.26 24.78-2.29a98.18 98.18 0 0 0 12.87-5.18c1.35-.65.17-2.66-1.17-2z"/><g fill="#18c4ff"><path d="m785.39 298a.85.85 0 0 0 0-1.7.85.85 0 0 0 0 1.7z"/><path d="m780.67 295.12-.28-.28a.57.57 0 0 0 -.28-.18.69.69 0 0 0 -.35-.08.68.68 0 0 0 -.34.08.57.57 0 0 0 -.28.18l-.14.16a.89.89 0 0 0 -.12.45v.23a.86.86 0 0 0 .23.39l.28.28a.73.73 0 0 0 .28.19.69.69 0 0 0 .35.07.88.88 0 0 0 .62-.26l.14-.18a.83.83 0 0 0 .12-.44v-.24a.86.86 0 0 0 -.23-.39z"/><path d="m781.45 302a.88.88 0 0 0 0-1.75.88.88 0 0 0 0 1.75z"/><path d="m705.56 294.89a.83.83 0 0 0 0-1.65.83.83 0 0 0 0 1.65z"/><path d="m700.7 294.62v.28a.69.69 0 0 0 .08.35.78.78 0 0 0 .46.46.69.69 0 0 0 .35.08h.23a.86.86 0 0 0 .39-.23l.14-.18a.89.89 0 0 0 .12-.45v-.28a.72.72 0 0 0 -.08-.35.67.67 0 0 0 -.19-.3.73.73 0 0 0 -.3-.19.72.72 0 0 0 -.35-.08h-.25a1.06 1.06 0 0 0 -.41.24l-.14.19a.94.94 0 0 0 -.13.46z"/><path d="m704.72 300.83a1.15 1.15 0 0 0 0-2.3 1.15 1.15 0 0 0 0 2.3z"/></g><path d="m702.19 344.62a.81.81 0 0 0 0-1.62.81.81 0 0 0 0 1.62z"/><path d="m816.63 290.15a2.94 2.94 0 0 0 -3.35.38 7 7 0 0 0 -2 2.73 8.84 8.84 0 0 0 -.82 3.39 2.12 2.12 0 0 0 .9 1.87 1.61 1.61 0 0 0 2-.19 2.58 2.58 0 0 0 .58-2 3.52 3.52 0 0 0 -.85-2.11 1.07 1.07 0 0 0 -1.41-.08 1.08 1.08 0 0 0 -.28 1.39c.06.12.06.13 0 0l.1.23c0 .08.07.15.1.23 0-.09 0-.09 0 0s.07.24.1.36 0-.11 0 .13 0 .22 0 .33 0 .14 0 .06v.05c0 .12 0 .12 0 0l.21-.2c.22-.16.36-.09.55 0s.1.09 0 0a.27.27 0 0 1 .07.08v-.07a6 6 0 0 1 0-.74c0-.36 0 .18 0-.18l.06-.34q.07-.36.18-.72a7.76 7.76 0 0 1 1.15-2.28c.4-.53 1.1-1.27 1.82-.94a.81.81 0 0 0 1.08-.28.8.8 0 0 0 -.29-1.08z"/><path d="m826.15 392.63a532.4 532.4 0 0 1 -8-54.2c-.51-5.18-.8-10.39-1.35-15.56-.2-1.88-3.08-2-3 0 .35 9.23 1.62 18.52 2.83 27.68s2.81 18.08 4.56 27.05q1.51 7.78 3.28 15.51c.26 1.13 2 .65 1.73-.48z"/><path d="m748.58 399.18c-.79-7.28-1.74-14.6-3.15-21.79-.29-1.48-2.58-.86-2.27.63 1.47 7.1 2.85 14.19 3.83 21.38.12.89 1.69.69 1.59-.22z"/><g fill="#18c4ff"><path d="m679.46 253c11.92-.78 31.17-1.57 43.09-2.36a9.81 9.81 0 0 0 3.84-.79c4.06-2.07 3.5-8.37 6.78-11.53l1.47 10.36a1.14 1.14 0 0 0 1.41 1.27l41.5-1.14a6.12 6.12 0 0 1 3.83.73 6.64 6.64 0 0 1 1.89 2.91 40.44 40.44 0 0 0 11.73 15.25c2.9 2.3 6.19 4.28 8.18 7.39 2.58 4 2.5 9.12 2.35 13.9 1.43-3.11 3.08-6.43 6.14-8 4.21-2.09 9.7.4 11.9 4.55s1.64 9.33-.32 13.6-5.14 7.85-8.24 11.38a6.85 6.85 0 0 0 -2.19 7.18l3.81 25.13c8.58-15.44 15.7-37.73 18.49-55.19 4-24.91 3.39-52.24-12.58-73.12-7.51-9.82-20-24.36-32.57-21.46a14.54 14.54 0 0 1 -4.09.76c-1.91-.11-3.56-1.31-5.15-2.37-24.92-16.48-61.64-6.06-83.18 14.77-10.65 10.3-16.57 25.87-17.88 40.43a60 60 0 0 0 -.25 6.29"/><path d="m679.46 253.91c8.45-.48 16.91-.79 25.36-1.15q6.39-.25 12.77-.56c3.68-.18 8.63.33 11.31-2.7s2.41-7.48 5.19-10.28l-2.17-.57.84 5.92.35 2.46a9.73 9.73 0 0 0 .54 2.9c.67 1.38 2.05 1.31 3.39 1.27l5.96-.2 23.22-.64c3.79-.1 7.57-.23 11.36-.31 1.64 0 3 0 3.92 1.57s1.42 3.09 2.24 4.58a44.26 44.26 0 0 0 12.57 14c2.81 2.1 5.65 4.29 6.93 7.69s1.17 7.35 1 11a1.32 1.32 0 0 0 2.44.66c1.83-4 4.43-8.89 9.61-7.93s7.58 5.81 7.34 10.62c-.27 5.64-3.72 10.43-7.25 14.58-1.66 1.95-3.86 3.86-4.76 6.32-1 2.65 0 5.88.44 8.57l3.23 21.44c.19 1.22 2 1.32 2.57.33a168.92 168.92 0 0 0 13.19-32 174.7 174.7 0 0 0 6.95-33.34c2.34-22.36-.18-46.23-14.25-64.6-6.09-7.95-13.16-16.64-22.62-20.64a20.55 20.55 0 0 0 -6.85-1.67 16.17 16.17 0 0 0 -3.33.16c-1.51.22-3 .9-4.52 1-2.62.08-5.08-2.39-7.23-3.64a51.21 51.21 0 0 0 -6.77-3.23c-19-7.42-41.09-2.78-58.41 6.88-9 5-17.6 11.68-23.64 20.15-6.49 9.11-10.29 20.07-11.75 31.11a66.8 66.8 0 0 0 -.63 9.34 1.47 1.47 0 0 0 2.93 0 68.67 68.67 0 0 1 7.9-32.41c4.92-9.26 12.33-16.49 21-22.24 16.06-10.62 36.92-16.69 56-11.78a46.76 46.76 0 0 1 13 5.5c2.3 1.42 4.5 3.3 7.34 3.34a19.63 19.63 0 0 0 4.42-.85 12.93 12.93 0 0 1 3.34-.27c4.68.17 9 2.65 12.65 5.42a69.71 69.71 0 0 1 10.88 10.84 83 83 0 0 1 9 12.65 69.19 69.19 0 0 1 6.13 15.12c2.93 10.59 3.57 21.67 3 32.6a163.8 163.8 0 0 1 -5.17 32.19 183 183 0 0 1 -11.39 32.27c-1.1 2.3-2.25 4.57-3.48 6.8l2.56.34-3.15-20.69c-.24-1.63-.52-3.26-.74-4.89a5.46 5.46 0 0 1 1.14-4.48c1.85-2.38 4-4.53 5.79-6.95 3.51-4.69 6.08-10.41 5.12-16.39a11.85 11.85 0 0 0 -9.65-10 9.08 9.08 0 0 0 -7.26 2c-2.27 1.88-3.61 4.62-4.83 7.25l2.44.66c.2-6.47-.13-12.95-5.15-17.65-2.29-2.16-5-3.81-7.35-5.9a39 39 0 0 1 -6.59-7.51 39.57 39.57 0 0 1 -2.32-3.92 34.26 34.26 0 0 0 -2.16-4.33c-2.09-3-6.1-2.19-9.22-2.1l-23.22.64-12.84.36h-1.48c-.78 0-.61 0-.73-.8l-.42-3-1-6.9c-.14-1-1.55-1.2-2.17-.58-2.48 2.5-2.78 6-4.35 9a5.07 5.07 0 0 1 -4.47 2.88c-1.82.19-3.66.25-5.49.37-8.44.58-16.88 1-25.31 1.57-4.4.27-8.79.54-13.17.87-1.17.09-1.19 1.91 0 1.85z"/><path d="m817.19 307.23c-13.74 14.77-22.19 35.87-23.19 55.99-.22 4.43-.06 9 1.8 13s5.79 7.37 10.23 7.35c-1.85 4.94-.64 10.46.86 15.52 4.66 15.74 12.28 31.23 25.11 41.48s31.67 14.09 46 6.14c10.41-5.77 17.16-17 19.21-28.69s-.22-23.89-4.62-34.94c-3.05-7.64-7.1-14.88-9.47-22.75a12.07 12.07 0 0 1 -.69-4.4 18.2 18.2 0 0 1 1.5-4.89c4.93-13-.91-27.73-8.83-39.2-6.33-9.14-14.48-17.46-20-27.34-5.36-9.67-5.29-20.43-6.39-31.11-2.68-25.86-23.81-60.8-52.88-61.77a33.42 33.42 0 0 0 -18.06 4.84c-.5.3-1 .61-1.48.92-8 5.26-6.38 11.94-6.62 21.53l41.81 25.39 15.52 19.7-.25 31.79"/><path d="m816.64 306.68a84.09 84.09 0 0 0 -18.79 30.47 90.88 90.88 0 0 0 -4.49 17.54c-.91 6.05-1.69 12.63-.23 18.66s6.25 11.7 12.87 11.82l-1.5-2c-1.47 4.15-1.07 8.6-.09 12.81a98.1 98.1 0 0 0 3.67 11.75 91.39 91.39 0 0 0 10.92 21.21 59.59 59.59 0 0 0 16.66 16.19 49.09 49.09 0 0 0 21.29 7.29 38 38 0 0 0 21.57-4.09 38.77 38.77 0 0 0 15.26-15.5c8.37-15.14 6.88-33.37.86-49.06-3.2-8.35-8-16.21-10.19-24.9a9.27 9.27 0 0 1 .64-6.15 31.83 31.83 0 0 0 1.77-5.8 34.69 34.69 0 0 0 .07-11.94c-1.28-8.15-5-15.86-9.54-22.68-4.72-7.1-10.48-13.43-15.48-20.33a61.1 61.1 0 0 1 -6.76-11.13 47.91 47.91 0 0 1 -3.3-12.56c-1.06-7.46-1.06-15-2.66-22.4a85.6 85.6 0 0 0 -16.72-34.88c-7.79-9.78-18.5-18.11-31.08-20.29a35.37 35.37 0 0 0 -22.8 3.6c-3.09 1.63-6.13 3.66-8 6.68a17.09 17.09 0 0 0 -2.27 8.06c-.22 3.28 0 6.58-.1 9.87a1.52 1.52 0 0 0 .75 1.3l26.51 16.1 13.78 8.37c.43.26.86.56 1.31.79s-.25-.42.11.15a64.87 64.87 0 0 0 4.27 5.4l11 14-.45-1.07c-.07 9.29-.18 18.58-.2 27.87v3.92a1.48 1.48 0 0 0 3 0c.06-7.69.15-15.37.21-23.05v-6c0-.89.1-1.84 0-2.73s-1-1.77-1.54-2.49l-3.74-4.73-8.82-11.15a23.31 23.31 0 0 0 -1.85-2.35 8.16 8.16 0 0 0 -1.42-.91l-21.14-12.85-12.21-7.41c-2.29-1.39-4.56-3-7-4.23-.11 0-.22-.13-.33-.19l.75 1.3c.12-5.47-1.1-12.3 2.36-17 2.08-2.84 5.58-4.66 8.72-6.06a31.19 31.19 0 0 1 11.8-2.71c12.3-.31 23.45 6.34 31.73 15a81.46 81.46 0 0 1 18.5 32.13 84.71 84.71 0 0 1 3.27 18.35c.69 8.26 1.41 16.62 4.89 24.26s9 14 14.1 20.44 9.91 12.78 13.32 20.17c3.19 6.94 5.2 14.92 3.75 22.55a31.16 31.16 0 0 1 -1.69 5.6 12.49 12.49 0 0 0 -1.16 5.67c.37 4.17 2.35 8.35 4 12.16 3.4 7.95 7.32 15.6 9.48 24 2.1 8.2 2.84 16.92 1.16 25.27-2.8 14-12.44 26.6-26.77 29.81s-29.31-2.7-39.56-12.59c-10.94-10.55-17.77-25.32-21.47-39.9-1-4-1.54-8.1-.14-12a1.55 1.55 0 0 0 -1.49-2c-5.45-.1-8.9-5.14-10-10-1.25-5.53-.55-11.69.29-17.24a93.41 93.41 0 0 1 10.79-31.76 90.63 90.63 0 0 1 10.66-15.32c.65-.75-.39-1.82-1.1-1.1z"/></g><path d="m736.63 331.91a10 10 0 0 0 4.08.21 26.34 26.34 0 0 0 4-.58 30.71 30.71 0 0 0 3.84-1.14c.68-.25 1.34-.53 2-.83a3 3 0 0 0 1.68-1.32 1.18 1.18 0 0 0 -.69-1.7c-1.27-.29-2.59.67-3.75 1.13a31.56 31.56 0 0 1 -3.67 1.22c-1.25.33-2.51.61-3.78.83-.59.1-1.18.16-1.78.25a10 10 0 0 0 -2 .36.82.82 0 0 0 0 1.57z"/><g fill="#18c4ff"><path d="m672.88 754.87c.14 3.46 4 5.43 7.15 5 3.9-.56 6.36-4.3 7.3-7.83l-1.69.44a37.59 37.59 0 0 0 4.74 5c1.29 1.13 2.91 2.45 4.68 1.41 1.5-.88 2.5-2.9 3.15-4.44a15 15 0 0 0 1.16-6.41l-2 .56a7.34 7.34 0 0 0 13.63-5.2l-1.91 1.12c1.86 2.38 5.46 1.71 7.44-.16 2.72-2.58 2.25-7.33 1.08-10.54-.39-1.06-2.31-1-2.14.29.32 2.53 1.55 5.74-.1 8.07-1 1.44-3.42 2.28-4.66.71-.72-.91-2.25.08-1.92 1.12a5.32 5.32 0 0 1 -3 6.56 5.39 5.39 0 0 1 -6.56-3.06c-.44-1-2.09-.48-2.05.55a13.14 13.14 0 0 1 -.59 4.66 9.48 9.48 0 0 1 -2.28 4.11c-1.21 1-3.19-1.43-4-2.26a39.42 39.42 0 0 1 -3.18-3.53 1 1 0 0 0 -1.69.45c-.68 2.67-2.29 5.58-5.12 6.4a4.66 4.66 0 0 1 -5.8-3.23.81.81 0 0 0 -1.58.21z"/><path d="m677 816.2c-1.24-5.14-2.61-11.52 1.52-15.79a5.82 5.82 0 0 1 5.91-1.82 4.65 4.65 0 0 1 3.57 4.41 1.18 1.18 0 0 0 2.19.59c2-3.55 5.12-7.18 9.39-7.75 3.35-.45 7.53 1.51 8.07 5.14.3 2-.19 4.11.76 6s3.12 2.29 4.2 4c2.13 3.33.59 8.07-1.32 11.12a16.77 16.77 0 0 1 -10.84 7.53l1 2.43 3.68-2.33-2-.79a11 11 0 0 1 -3.4 9.36 14.22 14.22 0 0 1 -10 4.09 24 24 0 0 1 -11.73-3.22c-1.54-.84-3.3-1.8-4.23-3.36a2.56 2.56 0 0 1 -.32-2.21c.21-.62.78-1.46 1.54-1.34l-.79-1.94a3.53 3.53 0 0 1 -6.27-2.46c.15-1.82 1.26-3.61 2-5.23.89-2 1.74-3.91 2.58-5.88.61-1.43-1.43-2.7-2.13-1.25q-2 4.1-3.84 8.23c-1 2.24-1.77 4.57-.71 6.94 2 4.47 7.82 4.67 10.66 1a1.32 1.32 0 0 0 -.79-1.94c-3.56-.57-5.9 3.32-4.67 6.47 1.42 3.64 5.88 5.62 9.26 7 7.42 3 16.56 2.63 22.08-3.81a13.57 13.57 0 0 0 3.35-11.15 1.35 1.35 0 0 0 -2-.8l-3.68 2.33a1.34 1.34 0 0 0 1 2.44 19.24 19.24 0 0 0 11.51-7.44c2.67-3.58 4.44-8.67 3.07-13.1a8.3 8.3 0 0 0 -1.37-2.66 13.38 13.38 0 0 0 -2.92-2.32c-1.89-1.41-1-4.66-1.42-6.7-.93-4.2-5.42-6.72-9.5-6.67-5.55.06-9.89 4.52-12.37 9.08l2.19.6a6.73 6.73 0 0 0 -4.29-6.16 7.69 7.69 0 0 0 -7.8 1c-6 4.51-4.86 12.64-2.82 18.87a.82.82 0 0 0 1.57-.44z"/><path d="m628.19 893.06a34.6 34.6 0 0 1 6.4-2.36c1-.21 2.44-.65 3.37-.06a3.16 3.16 0 0 1 1.13 2.39c.46 4.1-1.28 8.56-3.83 11.7a1.08 1.08 0 0 0 1.3 1.69c1.67-.72 3.39 1.16 3.54 2.69.21 2.13-1.33 4-2.8 5.33-1.11 1 .52 2.6 1.63 1.63a3.51 3.51 0 1 1 3.16 6 1.19 1.19 0 0 0 .64 2.29 6.1 6.1 0 0 0 3.71-8.5c-1.79-3.26-6.45-3.76-9.14-1.42l1.63 1.63c2.27-2.07 4.28-5.34 3.07-8.49a4.94 4.94 0 0 0 -6.52-3l1.3 1.68a19.94 19.94 0 0 0 3.66-7.12c.65-2.37 1.08-5.26.3-7.66s-2.73-3.21-5.13-2.83a20.35 20.35 0 0 0 -8.23 3 .8.8 0 0 0 .81 1.38z"/><path d="m711.12 898.26c-7.15-.26-10-8.57-9.41-14.57a18.38 18.38 0 0 1 3.82-9.61c2.13-2.69 5.38-5.12 9-5 3.31.13 6.51 3.46 5.16 6.82l2.47.68a5.71 5.71 0 0 1 4.46-3.86 6.77 6.77 0 0 1 6 1.85c4.17 3.89 3.64 10 1.87 14.88-.55 1.56 1.62 2.15 2.46 1 1-1.38 3.3-1 4.38.11 1.44 1.41 1.73 3.67 1.51 5.58-.46 3.93-3.12 7.19-6.19 9.49a27.92 27.92 0 0 1 -5.26 3.07c-1.92.87-4 1.45-5.9 2.27a13.39 13.39 0 0 0 -5 3.43 13.77 13.77 0 0 1 -2.32 2.44 5.9 5.9 0 0 1 -3.3.91 22.92 22.92 0 0 1 -7.09-1.32c-2.17-.69-5-2.39-4.4-5.11a1.38 1.38 0 0 0 -2.29-1.32 8.36 8.36 0 0 1 -13.64-3c-2.11-5.7 2.63-11.25 7.23-14a1.25 1.25 0 0 0 -1.38-2c-6.23 3.23-11.44 10.75-8.2 17.84a11.11 11.11 0 0 0 17.81 3.2l-2.29-1.33a6.61 6.61 0 0 0 2.77 6.76c2.21 1.63 5.17 2.26 7.82 2.75s5.49.66 7.89-.72a11.56 11.56 0 0 0 2.9-2.8 10.58 10.58 0 0 1 3.39-2.7c2.38-1.21 5-1.85 7.45-3a28.89 28.89 0 0 0 6.51-4.12c3.72-3.15 6.6-7.84 6.11-12.88-.26-2.64-1.52-5.39-4.07-6.52a5.57 5.57 0 0 0 -6.85 1.64l2.45 1c2.22-6.25 2.17-14.06-3.68-18.33-4.61-3.37-12-1.81-13.67 4.06-.46 1.63 1.88 2.18 2.47.68 1.43-3.6-.93-7.61-4.24-9.19-4-1.89-8.56-.12-11.72 2.56-6.38 5.43-8.78 15.6-5 23.16 1.88 3.76 5.52 7 9.94 6.8a.84.84 0 0 0 0-1.67z"/><path d="m788.38 814.35c-6.3 3.28-13.12 7.81-14.58 15.31a11.28 11.28 0 0 0 2 9.18 9.39 9.39 0 0 0 8 3.85l-.61-2.24c-5.22 2.65-5.68 10.21-2.12 14.39 4.47 5.27 12.66 4.73 18.13 1.51a33.46 33.46 0 0 0 9.17-8.66h-1.85c6.11 4.81 14.34-.23 17.29-6.26a20.3 20.3 0 0 0 -2.54-21.61 1.31 1.31 0 0 0 -1.3-.35c-2 .65-3.37 3.48-1 4.61 2 .95 4.28-.55 5-2.5.73-2.13.21-4.78-.08-7a24.87 24.87 0 0 0 -1.6-6.42 12.24 12.24 0 0 0 -3.51-4.89c-1.92-1.53-4.21-2-6.44-2.84s-3.36-3.29-5.78-3.52-4.8 1.13-6.68 2.32a21.43 21.43 0 0 0 -9.2 12.48 1.35 1.35 0 0 0 2.6.72 18.48 18.48 0 0 1 5-8.56 18.13 18.13 0 0 1 4.05-3c1.33-.72 3.47-2 4.88-.9.62.48 1.1 1.14 1.73 1.63a9.46 9.46 0 0 0 2.29 1.26 35.49 35.49 0 0 1 4.92 1.85c2.67 1.54 3.9 4.54 4.57 7.41a36.24 36.24 0 0 1 .76 5.39 9.22 9.22 0 0 1 0 2.92c-.15.56-.89 1.67-1.53 1l.39.95a.36.36 0 0 1 .33-.37l-1.3-.34a17.61 17.61 0 0 1 2.45 17.73 12.76 12.76 0 0 1 -5.69 6.39c-2.37 1.27-5.5 1.78-7.77 0a1.33 1.33 0 0 0 -1.85 0c-4.42 5.7-10.86 12-18.77 10.07a8 8 0 0 1 -6.34-6.21c-.52-2.76.42-5.81 3-7.16a1.22 1.22 0 0 0 -.61-2.25 7.26 7.26 0 0 1 -6.63-3.41 9.57 9.57 0 0 1 -.9-8.21c1.89-6.2 7.7-9.77 12.93-12.91a.81.81 0 0 0 -.82-1.4z"/><path d="m758.68 751.09c-5.73.66-8.38 6.43-9 11.56s.27 13.66 6.67 14.76c2.84.48 5.93-.71 6.84-3.63l-2.36-.32a8.46 8.46 0 0 0 5.59 6.86 10.82 10.82 0 0 0 9.58-1.32c6.23-4 9.31-11.94 8.42-19.13l-1.91 1.1c2.63 2 6.29.71 8.39-1.46a11.14 11.14 0 0 0 2.62-9.48c-1.32-8.08-10.44-10.92-17.58-10.74a37.56 37.56 0 0 0 -13.6 3.14c-1.27.54-.36 2.72.94 2.24 7.41-2.73 17.19-4.89 24.17.16a9 9 0 0 1 3.46 9.37c-.67 2.78-4 6.93-7.12 4.57a1.28 1.28 0 0 0 -1.91 1.1 18.1 18.1 0 0 1 -5.84 16c-2.06 1.75-4.91 3-7.67 2.5-2.4-.47-4.83-2.29-5.17-4.85a1.21 1.21 0 0 0 -2.36-.32c-.72 2.39-4.14 2.49-5.9 1.26-2.63-1.84-3.16-5.71-3.24-8.67-.14-5 1.54-11.75 7.19-13 .89-.2.71-1.73-.22-1.62z"/><path d="m814.69 918.76c-2.27-.27-.31 4.45 1.42 1.73.75-1.19.16-3.14.16-4.44a26.73 26.73 0 0 1 .71-6c.69-2.93 2.17-9.09 6.29-7.88 3.48 1 5.4 4.69 9.13 5.25a1.15 1.15 0 0 0 1.39-1.4 19.44 19.44 0 0 1 9-19c1.56-.95 3.9-2.29 5.74-1.36 1.45.73 2 2.58 2.35 4 1.11 4.64 1.64 9.49 2.43 14.2a1.31 1.31 0 0 0 1.91.77l4.89-3.06a11.31 11.31 0 0 1 2.18-1.32c.83-.27.92.84 1.08 1.5a14.57 14.57 0 0 1 -1 9.83l2.41 1c.23-1.43 2.22-1.63 3.23-.82 1.83 1.45.59 4.43-.45 5.93l2.09-.27c-.69-.56-1.4-1.1-2.12-1.63-1.14-.83-2.5 1-1.5 1.95.57.54 1.14 1.06 1.73 1.57a1.37 1.37 0 0 0 2.1-.27c2-2.76 2.75-7.67-.69-9.69-2.41-1.42-6.44-.58-6.93 2.53-.22 1.35 1.71 2.49 2.41 1 1.91-4.05 2.49-9.1.75-13.32-.86-2.07-2.74-2.54-4.66-1.49-2.36 1.29-4.59 2.87-6.86 4.29l1.9.78c-.75-4.45-1.4-8.94-2.28-13.37-.6-3-2-6.4-5.38-6.93s-7.14 2-9.59 4.17a22.2 22.2 0 0 0 -5.69 8.23 21.2 21.2 0 0 0 -1.27 11.28l1.4-1.4c-3.13-.44-5-3.32-7.77-4.62-2.56-1.2-5.37-1-7.15 1.34a21.06 21.06 0 0 0 -3.28 8.64 25.52 25.52 0 0 0 -.41 4.62c0 .38.21 5.16.3 5.17 1 .1 1-1.46 0-1.58z"/><path d="m892.66 832.31c-6.53 2.9-12.48 8.33-13.71 15.67-1.15 6.88 2.11 14.19 9.16 16.18a11.41 11.41 0 0 0 10.29-1.93l-2.14-1.23a8.1 8.1 0 0 0 4 8.56c3.35 2.07 7.48 1.5 10.89-.11 6.88-3.24 11.79-10.41 13.56-17.65a1.35 1.35 0 0 0 -2.61-.72c-.9 2.77 1.93 5.26 4.6 5 3.21-.28 5-3.53 6.11-6.16a29.3 29.3 0 0 0 2.35-11.2c0-3.17-.54-6.54-2.69-9s-6-3.41-8.82-1.64l1.69 2.19c4.33-4.45 5-12.86-.55-16.7-4.58-3.19-11.86-1.37-13.76 4a1.41 1.41 0 0 0 2 1.57 3.17 3.17 0 0 0 1.34-3.67 3.86 3.86 0 0 0 -3.14-2.68c-3.13-.61-6.86 1.07-9.39 2.79a19.38 19.38 0 0 0 -8.6 16.36c.06 1.79 2.85 1.8 2.79 0a16.35 16.35 0 0 1 5.05-12.16 15.72 15.72 0 0 1 5.59-3.57 9.8 9.8 0 0 1 3.41-.74c.51 0 1.22.06 1.53.55.11.19.22.58 0 .71l2.05 1.58c1.31-3.72 6.72-4.54 9.66-2.36 3.93 2.9 3 9.17 0 12.32a1.4 1.4 0 0 0 1.68 2.23c2.3-1.44 5 .18 6.18 2.32 1.39 2.57 1.28 5.86 1 8.67a24.51 24.51 0 0 1 -2.83 9.27c-.59 1-1.46 2.35-2.73 2.6-.9.17-2.27-.55-1.94-1.58l-2.61-.72a24.88 24.88 0 0 1 -10.07 14.83c-2.6 1.73-6 3.11-9.16 2-2.53-.87-4.76-3.48-4.14-6.26a1.29 1.29 0 0 0 -2.14-1.25c-2.72 2.17-6.7 2.12-9.71.62a10.91 10.91 0 0 1 -5.75-8.84c-.86-8.4 5.41-14.89 12.39-18.43 1-.5.12-1.9-.86-1.46z"/><path d="m869.6 756.57a8.44 8.44 0 0 0 -7.22 4.24c-1.73 2.88-2 6.46-1.61 9.72.6 5.52 3.57 11.84 9.91 12a7.19 7.19 0 0 0 7-4l-2.23-.29a10.31 10.31 0 0 0 6.51 6.69 12 12 0 0 0 9.82-.91c7.28-4 9.39-12.54 9.63-20.21l-2.53.34c1.24 3.29 4.86 4.38 8.07 3.48 4-1.12 5.88-5.05 6-9a22.24 22.24 0 0 0 -3.86-13.12c-2.47-3.38-7-5.65-11.13-3.91-3.85 1.62-5.49 7.17-2.32 10.23a1.36 1.36 0 0 0 1.88 0c2.47-2.06 2-5.73.44-8.21a13.41 13.41 0 0 0 -7.69-5.5 14.11 14.11 0 0 0 -16.37 6.59 14.7 14.7 0 0 0 -1.52 10.61l1.68-1.69a9.63 9.63 0 0 0 -10.53 3.37c-.85 1.12 1 2.39 1.91 1.47a8 8 0 0 1 7.88-2.11 1.38 1.38 0 0 0 1.68-1.68c-1.53-6.32 2.72-13.23 9.24-14.25a12.38 12.38 0 0 1 8.88 2.08c2 1.4 5.15 5.31 2.5 7.53h1.88a3.46 3.46 0 0 1 -.44-4.11 4.28 4.28 0 0 1 4.34-2.18c4.54.38 6.87 4.87 8 8.75 1 3.49 2 8.75-1.07 11.57-1.74 1.62-5.94 2.22-7-.53a1.29 1.29 0 0 0 -2.53.34c-.19 6.42-1.65 13.67-7.4 17.45a9.8 9.8 0 0 1 -7.83 1.54 8 8 0 0 1 -5.81-5.21 1.23 1.23 0 0 0 -2.35 0c-.93 2.22-3.79 2.87-5.93 2.42-2.9-.61-4.76-3.23-5.68-5.89a18 18 0 0 1 -.69-9.55c.73-3.18 3-6.19 6.48-6.47a.8.8 0 0 0 0-1.6z"/><path d="m955.2 751.17c-2.53 3.25-5.46 8.55-2.75 12.53 1.84 2.7 6.13 4.33 8.61 1.52.71-.8 0-2.48-1.16-2a9.6 9.6 0 0 0 1.28 18.41c1.55.32 2.21-2 .66-2.39a7.21 7.21 0 0 1 -1-13.84l-1.45-1.87c-1.58 1.87-4.47.24-5.37-1.57-1.59-3.22 1.14-7 2.59-9.71.45-.84-.74-1.91-1.39-1.08z"/><path d="m932.56 913.59c1.1-5.09 2.77-9.78 6.46-13.61 1.48-1.54 3.34-2.72 5.14-1a11.47 11.47 0 0 1 2.69 5.55 1.22 1.22 0 0 0 2.39-.32 11 11 0 0 1 5.12-8.88 11.28 11.28 0 0 1 10.88-.19 1.2 1.2 0 0 0 1.21-2.07 13.07 13.07 0 0 0 -13.35.11 13.5 13.5 0 0 0 -6.29 11l2.39-.33c-.61-2.43-1.63-5.11-3.56-6.8a5.07 5.07 0 0 0 -6.64-.05 21 21 0 0 0 -5.62 7.34 20.5 20.5 0 0 0 -2.38 9.09.82.82 0 0 0 1.6.21z"/><path d="m821.91 471.86a380.13 380.13 0 0 1 -31.23 55.7 388 388 0 0 1 -40.14 49.79c-7.22 7.65-14.87 14.65-22.54 21.86-6.93 6.52-13.89 13.65-17.49 22.63-3.47 8.61-2.36 17.75 1.91 25.85s10.65 14.72 15.89 22.11a62.24 62.24 0 0 1 7.18 13.1c2.08 5.26 3.78 10.69 6.36 15.73a53.24 53.24 0 0 0 18.76 20.28 56.05 56.05 0 0 0 26.36 8.7 58.92 58.92 0 0 0 28.68-5.71 62.9 62.9 0 0 0 22.86-18.51c3.05-3.94 5.94-8.3 10.06-11.22 4.42-3.12 9.81-4.15 14.75-6.12 16.8-6.66 23.9-25.18 23.68-42.19-.06-5-1.14-9.78-1.41-14.72a17.14 17.14 0 0 1 1.09-7.9 15.64 15.64 0 0 1 3-4.4c5-5.3 12.71-8.53 15.82-15.44 2.06-4.57 1-9.21-.3-13.82a24.78 24.78 0 0 1 -1.33-7.47 17.1 17.1 0 0 1 1.13-5.33c2.69-7.31 8.52-13 11.07-20.4a14.48 14.48 0 0 0 -.1-10.17c-.57-1.53-3-.87-2.47.69 2.61 7-3 14.16-6.6 19.69a44 44 0 0 0 -5.28 10.21c-1.39 4.31-1 8.49.26 12.79s2.72 8.85.44 13.08c-1.69 3.13-4.6 5.42-7.36 7.57s-5.94 4.43-8.33 7.25a18.15 18.15 0 0 0 -4.29 12.3c.06 5 1.27 9.87 1.44 14.85a56 56 0 0 1 -1 12.72c-1.57 8-5 15.87-10.92 21.6a30.49 30.49 0 0 1 -10.84 6.61c-4.9 1.78-10.13 3-14.4 6.14-4 2.92-6.9 6.92-9.86 10.81a64.06 64.06 0 0 1 -10.07 10.68c-14.76 12.26-35.31 16.88-53.58 10.44a53 53 0 0 1 -22.37-15.21 48.45 48.45 0 0 1 -7.46-11.77c-2.32-5.13-3.94-10.55-6.21-15.7-3.76-8.54-9.92-15.49-15.5-22.84-5.14-6.76-10.11-14.34-10.23-23.13-.13-9.43 5.3-17.6 11.42-24.32 6.7-7.35 14.41-13.74 21.48-20.72a373.34 373.34 0 0 0 72.76-101.52q3.32-6.81 6.33-13.75c.42-.94-1-1.77-1.4-.82z"/></g><path d="m731.77 616.91c39.19 15.29 70 50.46 80.06 91.31.62 2.51 1.15 5.2.26 7.62s-3.09 4.16-5.19 5.67c-30.12 21.49-68.9 29.75-105.3 24.2-37.2-5.66-69.14-27.52-94.12-54.82-30.56-33.38-45.08-74.77-63.19-115.39-4.07-9.13-7.88-18.44-13.39-26.79-11-16.6-41.17-29.37-48.43-47.89-1.2-3.06-2.35-6.54-5.26-8.08-6.44-3.39-15.33 5.65-20.91.92a6.41 6.41 0 0 1 -1.64-7.09c3.69-10.07 18.25-7 23.59-15.13-4.27 4.25-9 8.74-15.52 8.23a7.77 7.77 0 0 1 -7.15-5.87c-.95-4.38 2.56-7.64 6-9.82a47.27 47.27 0 0 1 23.88-7.27l-19.2.19a5 5 0 0 1 -4.11-1.92c-2.82-3.87 2.82-7.57 7.18-8.6l20.4-4.81a17.77 17.77 0 0 1 -9.83-.33 4.84 4.84 0 0 1 -.43-9c21.52-9.18 49.9-.92 61.85 19.55-3.42-3-7-6.28-7.33-11a6.73 6.73 0 0 1 2.69-5.86c2.6-1.87 4.84-.86 6.89.23a67.59 67.59 0 0 1 32 37.74c2.94 8.74 4 18 6.6 26.85 10.12 35.06 41.12 59.37 70.35 81.21l62.61 46.79a3 3 0 0 0 5-.47l8.82-9.43" fill="#fff"/><path d="m541.9 451.2c-3.15-2.93-7.37-6.83-6.64-11.63.33-2.23 2.28-4.62 4.74-4.35 2.07.23 4.12 1.82 5.84 2.88a67.07 67.07 0 0 1 20 18.77 65.76 65.76 0 0 1 6.68 12.13 87.07 87.07 0 0 1 4.5 15.18c1.2 5.47 2.21 11 3.78 16.37a91 91 0 0 0 4.91 13c7.88 16.9 20.69 30.89 34.47 43.21 15.17 13.55 31.8 25.41 48.06 37.59q14.34 10.76 28.65 21.56 7.15 5.4 14.3 10.83c1.91 1.44 4.34 4.06 7 3.65 2.45-.39 4.26-3.19 5.84-4.87 2-2.18 4-4.43 6-6.63 1.23-1.34-.75-3.33-2-2-2.11 2.22-4.29 4.36-6.38 6.6-.93 1-1.83 2-2.8 3-.41.41-.82.89-1.45.81s-1.35-.81-1.81-1.15c-4.86-3.61-9.74-7.19-14.61-10.79q-14.6-10.81-29.18-21.64c-16.73-12.47-33.91-24.56-49.45-38.53-13.94-12.54-26.58-27.05-34.36-44.27a89.07 89.07 0 0 1 -4.88-13.8c-1.45-5.52-2.45-11.15-3.79-16.7a72.59 72.59 0 0 0 -12.09-26.67 67.14 67.14 0 0 0 -20.9-18.75c-1.85-1-3.84-2.24-6-2.46a6.75 6.75 0 0 0 -5.89 2.77c-3 3.86-1.5 8.88 1.32 12.35a34.68 34.68 0 0 0 5 4.71c.8.65 1.93-.43 1.15-1.15z"/><path d="m490 440.78a9.77 9.77 0 0 0 -2.8-.23 14.54 14.54 0 0 1 -2.72 0 16.83 16.83 0 0 1 -2.46-.41c-.78-.17-1.59-.31-2.36-.53l-.16-.05c-.18-.06.17.11 0 0l-.33-.22c-.18-.12.1.11-.12-.1l-.31-.3c-.09-.09-.17-.19-.25-.28.15.19 0-.07-.07-.14s-.12-.22-.17-.33-.09-.22 0 0l-.07-.19c-.08-.24-.13-.48-.19-.72s0 0 0 0a1.49 1.49 0 0 1 0-.21 3 3 0 0 1 0-.42c0-.12 0-.25 0-.37 0-.31 0 .12 0-.12a4.08 4.08 0 0 1 .21-.76c.07-.18-.11.21 0 0l.11-.24.22-.36.1-.13c.07-.15-.18.19 0 0s.19-.21.3-.31l.17-.14c-.08.07-.2.15 0 0s.27-.21.4-.31c-.08.06-.2.13 0 0a3.06 3.06 0 0 0 1.18-1l-.52.52.2-.14a1.42 1.42 0 0 0 -1.09-2.59c-.28.09 0 0 0 0s-.36 0-.52.07a2.82 2.82 0 0 0 -.67.34 4.47 4.47 0 0 0 -1 .83 7.26 7.26 0 0 0 -1.22 2 6.76 6.76 0 0 0 -.26 4 6.42 6.42 0 0 0 2.14 3.4l.55.4c-.31-.2.28.21.37.28a5.53 5.53 0 0 0 1.13.59 12.72 12.72 0 0 0 3.45.73 21.17 21.17 0 0 0 3.56.05 6.09 6.09 0 0 0 1.94-.39 6 6 0 0 0 1.69-1 .82.82 0 0 0 -.36-1.36z"/><path d="m485.69 455.93c-3.56-.9-7.22-.63-10.86-.64-2.23 0-4.46-.1-6.68.11-1.71.15-3.64.51-4.88-1-2.68-3.38 4.26-5.9 6.44-6.6a1.42 1.42 0 0 0 -.71-2.8c-3.38.6-8 3.13-8.75 6.84s2.89 6.21 6.19 6.37c1.81.08 3.59.22 5.41.18 2.85-.05 5.69-.14 8.54-.17a20.31 20.31 0 0 0 5.34-.74.82.82 0 0 0 0-1.57z"/><path d="m477.84 470.74c-2.72 1.66-4.94 4-7.7 5.57a13.06 13.06 0 0 1 -8.74 1.69 5.79 5.79 0 0 1 -4.64-6.21c.36-3 3.32-5 5.55-6.61a1.42 1.42 0 0 0 -1.43-2.45 13.46 13.46 0 0 0 -6 6.15 8.19 8.19 0 0 0 .8 8.2 10.44 10.44 0 0 0 7 4.1 14.13 14.13 0 0 0 8.84-2.21 21.64 21.64 0 0 0 7.44-7.14.82.82 0 0 0 -1.12-1.11z"/><path d="m731.55 617.69a136.09 136.09 0 0 1 76.87 83.78q1.11 3.54 2 7.15c.74 3 1.24 6.17-.94 8.74-1.76 2.07-4.26 3.55-6.49 5s-4.48 2.9-6.78 4.25a137.37 137.37 0 0 1 -30 13 147.45 147.45 0 0 1 -64.79 4.45c-20.84-3.27-40.54-11.79-58-23.51a195.14 195.14 0 0 1 -46.74-44.69c-13.37-17.86-23.5-37.86-32.63-58.23-4.6-10.26-9-20.61-13.42-30.93-4.63-10.71-9-21.69-14.56-32a60.21 60.21 0 0 0 -7.9-11.76 83.07 83.07 0 0 0 -9.18-8.61c-7-5.78-14.44-11-21.28-16.9a71.54 71.54 0 0 1 -8.9-9 40.59 40.59 0 0 1 -5.76-10.38c-1.61-3.92-4.09-7.36-8.65-7.65-3.9-.25-7.56 1.71-11.25 2.65a7.66 7.66 0 0 1 -5 0c-2.4-1.09-2.89-3.86-2.14-6.16.56-1.74-2.17-2.49-2.74-.76-1.35 4.2.6 9.06 5.11 10.18 3.84.95 7.75-1 11.36-2.11a10.81 10.81 0 0 1 5.57-.57c2.3.56 3.56 2.62 4.48 4.65s1.56 4.07 2.58 6a36.05 36.05 0 0 0 3.2 4.92c11 14.42 28.37 22.18 40.47 35.51 7.56 8.32 11.8 19.46 16.29 29.6 4.71 10.62 9.28 21.3 13.91 32 9.16 21.1 18.81 42.13 31.58 61.33a205.58 205.58 0 0 0 45.31 48.76c17 13.17 36.24 23.58 57.25 28.67a147.3 147.3 0 0 0 66.05.27 144.36 144.36 0 0 0 31.61-11 134.19 134.19 0 0 0 14.69-8.28c4-2.59 9.63-5.56 11-10.51.77-2.83 0-5.81-.65-8.57-.61-2.4-1.28-4.78-2-7.14a133.33 133.33 0 0 0 -20.71-39.84 132 132 0 0 0 -45.09-38 128 128 0 0 0 -13.3-5.85c-1-.38-1.37 1.18-.43 1.56z"/><circle cx="263.92" cy="140.52" r="65.65"/><path d="m327.25 140.52a63.33 63.33 0 0 1 -112.25 40.18 63 63 0 0 1 -14.17-35.11 63.34 63.34 0 0 1 125.72-14.83 62.43 62.43 0 0 1 .74 9.76c0 3 4.66 3 4.65 0a68.12 68.12 0 0 0 -12.56-39.37 68 68 0 0 0 -74-26 68 68 0 0 0 -9.64 127.25 68.83 68.83 0 0 0 41.93 4.76 68 68 0 0 0 53.46-55.94 71.81 71.81 0 0 0 .84-10.66c-.06-3.04-4.72-3.04-4.72-.04z"/><g fill="#18c4ff"><path d="m193 155.36a44.82 44.82 0 0 0 -20.57 11.41c-3.6 3.46-6.49 7.49-5.65 12.76a8.83 8.83 0 0 0 5.79 6.62 17.22 17.22 0 0 0 7.07.71c10.19-.58 20-3.59 29.48-7.11 9.14-3.38 18.24-6.91 27.33-10.43 18.52-7.18 37-14.64 55-23 8.82-4.11 17.53-8.44 26.08-13.08a225.68 225.68 0 0 0 24.34-14.66 87.61 87.61 0 0 0 11.24-9.38c1.89-1.9 4-3.94 4.83-6.56a7.7 7.7 0 0 0 -3.16-8.68c-4-2.66-8.58-1.53-12.88-.61a101 101 0 0 0 -11.17 2.65 31.06 31.06 0 0 0 -6.62 3.06 5.12 5.12 0 0 0 -2.08 6.36c.92 2.19 3.6 3.8 6 3a93.56 93.56 0 0 1 10.5-3.35c1.73-.4 3.47-.73 5.21-1.1 1-.2 1.91-.4 2.86-.62l1.4-.35c.51-.13.48.18-.56.06a4 4 0 0 0 .6 0h1.06c.68 0-1.18-.27-.54-.08.14 0 .29 0 .43.09a2.89 2.89 0 0 0 .53.16c.07 0-1.16-.5-.68-.28.28.12.56.5 0-.07a1.62 1.62 0 0 1 -.63-.64c-.28-.4-.35-.49-.21-.26a3.67 3.67 0 0 1 -.29-2.48c0-.11.55-1.16.13-.3-.06.12-.45.64 0 .05s-.48.5-.63.67c-.39.43-.79.85-1.2 1.27-1.46 1.51-3 2.95-4.6 4.32-.77.66-1.55 1.31-2.35 1.94l-.31.25c.5-.39-.08.06-.15.11l-1.4 1.05a207 207 0 0 1 -22.2 13.55q-11.87 6.59-24.1 12.37c-8.22 3.94-16.54 7.66-24.92 11.23l-1.5.64-.65.27c-.76.33.74-.31 0 0l-3.23 1.36c-2.09.86-4.18 1.73-6.28 2.58q-6.27 2.56-12.59 5c-8.42 3.32-16.86 6.56-25.31 9.79s-16.92 6.66-25.73 8.81q-3.28.81-6.63 1.34l-.92.13c.08 0 .88-.1.25 0s-1.08.13-1.62.18c-1.16.11-2.32.17-3.49.22-.48 0-1 .06-1.43.06h-.74c-.16 0-.79-.09 0 0s.07 0 0 0l-.34-.09.57.26c-.16-.09-.64-.21-.07 0 .31.27.31.25 0 0l.42.53c-.21-.31-.24-.76.12.37-.06-.2-.09-.65 0 .07.06 1 0-.61 0-.61s-.31 1.28 0 .34c.05-.16.09-.33.14-.5a2 2 0 0 0 .17-.49c-.26.59-.31.72-.15.38 0-.11.11-.21.16-.31.14-.26.39-.93.65-1 0 0-.76.88-.13.2l.38-.42c.6-.67 1.22-1.32 1.83-2 1.11-1.2 2.2-2.41 3.38-3.55.55-.53 1.12-1 1.69-1.54l.88-.74.52-.41c-.28.22-.44.32-.06 0a46.26 46.26 0 0 1 4.28-2.8c1.68-1 3.32-2 5.05-2.87 3.3-1.71 1-6.69-2.47-5.85z"/><path d="m218.43 106.92a4.52 4.52 0 0 0 .29 1.54 4.23 4.23 0 0 0 .84 1.49 2.76 2.76 0 0 0 2.74.82 2.08 2.08 0 0 0 1.36-1.06 1.11 1.11 0 0 0 .1-.76 1 1 0 0 0 -.46-.59 1 1 0 0 0 -1.34.36l-.07.14c-.11.17 0-.07.06-.07s-.1.09-.11.11.21-.13.07-.06l-.13.08c-.14.07.24-.08.08 0l-.27.07c.32-.08.15 0 0 0h-.12c-.1 0-.28-.06 0 0h-.12l-.29-.08c.28.07.14.06.06 0l-.13-.08-.1-.07c.26.16.08.07 0 0l-.11-.12c-.06-.06-.16-.25 0 0-.06-.11-.14-.21-.2-.32l-.07-.14c0-.06-.12-.3 0 0-.09-.25-.17-.49-.24-.73l-.09-.35a3.54 3.54 0 0 0 -.23-.53.84.84 0 0 0 -1-.39.86.86 0 0 0 -.62.82z"/><path d="m225.41 105.6h.44a1 1 0 0 0 .55-.16h.06a.83.83 0 0 0 .33-.34.85.85 0 0 0 .13-.47.9.9 0 0 0 -.13-.47.87.87 0 0 0 -.33-.33h-.06l-.25-.11h-.27-.45a.66.66 0 0 0 -.39.09.72.72 0 0 0 -.32.2.83.83 0 0 0 -.2.32.85.85 0 0 0 -.09.38v.27a1.07 1.07 0 0 0 .25.44l.21.15a1 1 0 0 0 .5.14z"/><path d="m227.14 116.69a.83.83 0 0 0 0-1.65.83.83 0 0 0 0 1.65z"/><path d="m212.41 124.09a1 1 0 0 0 0-2 1 1 0 0 0 0 2z"/><path d="m220.71 134.33.57-.29a.7.7 0 0 0 .28-.26.9.9 0 0 0 .19-.72.72.72 0 0 0 -.11-.37l-.16-.2a1 1 0 0 0 -.43-.25h-.26a1 1 0 0 0 -.5.13l-.58.29a.81.81 0 0 0 -.27.25.75.75 0 0 0 -.18.34.74.74 0 0 0 0 .39.66.66 0 0 0 .11.36l.16.2a1 1 0 0 0 .43.26h.26a1 1 0 0 0 .5-.13z"/><path d="m243 117.84a.82.82 0 0 0 0-1.64.82.82 0 0 0 0 1.64z"/><path d="m230 128.83h1.15a.88.88 0 0 0 .6-.25.88.88 0 0 0 .25-.6.84.84 0 0 0 -.25-.6.88.88 0 0 0 -.6-.25h-1.15a.85.85 0 0 0 -.59.24.68.68 0 0 0 -.18.27.71.71 0 0 0 -.07.32.82.82 0 0 0 .25.59.86.86 0 0 0 .59.25z"/><path d="m242.11 136.08h.07l-.18-.08a2.08 2.08 0 0 1 .21.21l-.13-.16a1 1 0 0 1 .16.28l-.08-.2a1.61 1.61 0 0 1 .1.36v-.22a3.23 3.23 0 0 1 0 .44v-.23a2.42 2.42 0 0 1 -.13.46l.09-.21a1.35 1.35 0 0 1 -.19.33l.14-.17a1.88 1.88 0 0 1 -.25.24l.18-.14a1.28 1.28 0 0 1 -.25.15l.21-.09a.6.6 0 0 1 -.19.06.91.91 0 0 0 -.62 1.11.9.9 0 0 0 1.1.62 2.15 2.15 0 0 0 1.16-.85 2.49 2.49 0 0 0 .41-1.18 2.19 2.19 0 0 0 -1-2.13.81.81 0 1 0 -.82 1.4z"/><path d="m230.89 148.66 1.44-.58a.78.78 0 0 0 .36-.19.89.89 0 0 0 .28-.3.82.82 0 0 0 .13-.4.86.86 0 0 0 0-.42 1.13 1.13 0 0 0 -.49-.64l-.26-.11a1.1 1.1 0 0 0 -.57 0l-1.44.58a.7.7 0 0 0 -.36.19.74.74 0 0 0 -.28.3 1.22 1.22 0 0 0 -.1.82 1.05 1.05 0 0 0 .49.64l.25.11a1.1 1.1 0 0 0 .57 0z"/><path d="m585.23 244.94c-15.64-7.51-30.08-16.18-34.12-49.35-2.85-23.42 9.46-47.21 22.32-63.73.36 11.36 11.3 18.87 19.66 26.57 11.09 10.23 19.17 24.06 21 39s-3.1 31-14.15 41.25c-2.12 2-4.5 3.79-5.82 6.37-2.24 4.37-1 10-3.41 14.23l-5.15-.19a33.43 33.43 0 0 0 -.94-12.75"/><path d="m585.64 244.22a81.16 81.16 0 0 1 -14.78-9 44.2 44.2 0 0 1 -11.74-14.81c-4-8.15-6.1-17.5-6.9-26.52-.94-10.55 1.17-21.12 4.91-31a117.18 117.18 0 0 1 17.27-30.07l-2.35-1c.38 9.23 7.08 16 13.58 21.81 3.56 3.18 7.23 6.24 10.48 9.74a68.55 68.55 0 0 1 8.95 12.06 56.41 56.41 0 0 1 8 28.19 48.45 48.45 0 0 1 -8.1 27 40.61 40.61 0 0 1 -5.19 6.21c-2 1.93-4.17 3.6-5.82 5.82a15.65 15.65 0 0 0 -2.66 7.72c-.34 2.77-.41 5.66-1.79 8.17l1.22-.7-5.15-.18 1.41 1.4a33.3 33.3 0 0 0 -1.08-13.1 1.32 1.32 0 0 0 -2.55.7 35.71 35.71 0 0 1 .82 12.4c-.09.78.72 1.38 1.4 1.41l5.15.19a1.38 1.38 0 0 0 1.21-.7 18.84 18.84 0 0 0 1.93-7.18c.28-2.5.42-5.15 1.68-7.39s3.19-3.71 5-5.33a43.7 43.7 0 0 0 4.87-5.22 50.44 50.44 0 0 0 10.29-26.6c1.84-20.42-8.69-39.47-23.61-52.69-7.13-6.31-16.81-13.32-17.24-23.76 0-1.06-1.57-2-2.36-1-13 16.7-23.56 37.45-23 59.09a83.84 83.84 0 0 0 2.14 15.92 71.56 71.56 0 0 0 4 12.68 46 46 0 0 0 11.88 16.64c5.15 4.5 11.18 7.6 17.36 10.43 1 .43 1.79-.94.83-1.43z"/></g><g fill="#fff"><path d="m383.33 420.5 8.88 74.44q4.46 37.35 9 74.68l2.52 20.85c.85 6.95 1.56 13.92 2.67 20.84.16 1 1.92.8 1.83-.25-.52-6.3-1.4-12.58-2.16-18.86l-2.25-18.36-4.54-37.22q-4.55-37.22-9.16-74.44l-5.12-41.68c-.13-1-1.77-1.06-1.65 0z"/><path d="m407.7 618.71h.18a1.71 1.71 0 0 0 .39 0 1.57 1.57 0 0 0 .37 0 1.91 1.91 0 0 0 .36-.13l.16-.1a1.34 1.34 0 0 0 .29-.23 1.73 1.73 0 0 0 .4-.64.62.62 0 0 0 0-.33.53.53 0 0 0 -.09-.3.66.66 0 0 0 -.21-.23.57.57 0 0 0 -.28-.14.79.79 0 0 0 -.62.08l-.17.13a.84.84 0 0 0 -.21.35l.08-.2a.78.78 0 0 1 -.11.18l.13-.16-.16.16.16-.13a1.16 1.16 0 0 1 -.22.13l.19-.08a.86.86 0 0 1 -.23.06h.22a1 1 0 0 1 -.24 0h.21-.17a.59.59 0 0 0 -.32 0 .63.63 0 0 0 -.3.1.79.79 0 0 0 -.37.48.86.86 0 0 0 .08.61l.13.16a.84.84 0 0 0 .35.21z"/><path d="m573 140.14c-6.29 26.34 14.26 48.78 16.1 74.22.56 7.76-1.22 15.12-2.76 22.66-.31 1.53 2 2.19 2.36.65 1.66-6.46 3-13.22 3-19.92a63.67 63.67 0 0 0 -3.17-18.55c-3.85-12.42-10.07-24-13.16-36.69-1.75-7.18-2.4-14.65-.79-21.92.23-1.05-1.36-1.5-1.61-.45z"/><path d="m592.91 169.79a41.45 41.45 0 0 0 -10.54 17c-.41 1.28 1.59 1.82 2 .55a45.9 45.9 0 0 1 9.63-16.44.79.79 0 0 0 -1.11-1.11z"/><path d="m572.73 203.58a20.19 20.19 0 0 1 15.67 3.42c1 .74 2.06-1 1-1.72a22.35 22.35 0 0 0 -17.1-3.28c-1 .22-.58 1.74.43 1.54z"/></g><g fill="#18c4ff"><path d="m453.18 87.78a67.62 67.62 0 0 0 -37.13 78.28c2.55 10.07 7.37 20.22 15.1 27.34 7 6.39 16.55 9.82 25.63 6a20.17 20.17 0 0 0 9.6-8c2.26-3.82 3-9 .81-13s-7-5.44-11.18-4.85c-5 .7-8.88 4.34-11.74 8.25-6.5 8.89-10.14 20.58-8.68 31.58 1.26 9.48 6.65 18.53 15 23.44a23 23 0 0 0 14.89 3.18 13.79 13.79 0 0 0 11-8.57 10.73 10.73 0 0 0 .34-6.67 1.24 1.24 0 0 0 -1.81-.74c-6.48 3.3-10.24 10.14-11 17.21-.81 7.71 2.46 15.16 7.57 20.82a38.29 38.29 0 0 0 10.81 8.22c1.29.68 2.44-1.25 1.15-2-6.3-3.5-12-8.62-15-15.23a22 22 0 0 1 .17-19.22 17.38 17.38 0 0 1 7.55-7.69l-1.81-.74c1.16 4.32-1.45 8.78-5.25 10.81-4.4 2.36-9.87 1.77-14.35-.05-8.13-3.29-14-11-16.18-19.38-2.58-9.84-.18-20.46 4.66-29.21 2.31-4.16 5.22-8.44 9.56-10.68 3.45-1.78 8.31-1.77 11.17 1.16s2.39 8.26.5 11.7a17.64 17.64 0 0 1 -8.75 7.52c-8.25 3.45-17 .16-23.21-5.65-7-6.53-11.49-15.61-14-24.75a67.16 67.16 0 0 1 -1.3-30.33 66.29 66.29 0 0 1 31-44 64.49 64.49 0 0 1 5.87-3.11c1.14-.54.15-2.23-1-1.7z"/><path d="m633.25 101.29c-4.68 10.07-9.4 20.13-14 30.23-.52 1.14 1.17 2.14 1.7 1 4.62-10.11 9.16-20.26 13.72-30.4.43-.94-1-1.77-1.4-.82z"/><path d="m671.7 118.86a266.13 266.13 0 0 1 -27.27 30.55c-.95.91.5 2.36 1.44 1.44a269.74 269.74 0 0 0 27.21-31.18c.62-.83-.77-1.62-1.38-.81z"/><path d="m658.82 191.52a74.39 74.39 0 0 1 20.64-15.44c1-.53.13-2.09-.92-1.57a72.71 72.71 0 0 0 -20.87 15.86c-.71.77.43 1.92 1.15 1.15z"/><path d="m650.53 469.63a152.12 152.12 0 0 0 -10.42 36.47 173.54 173.54 0 0 0 -2.06 38.23c.2 3.56.5 7.12.92 10.66a91.49 91.49 0 0 0 1.64 10.68c.32 1.31 2.57 1.07 2.41-.32-.36-3.16-1-6.3-1.37-9.46s-.68-6.18-.89-9.29a177.49 177.49 0 0 1 -.29-18.88 182.86 182.86 0 0 1 5.27-37c1.72-6.93 3.94-13.68 6.27-20.43.3-.86-1.11-1.48-1.48-.63z"/><path d="m177.57 421.29c-7.9-9-18-16.89-29.18-21.25-2.79-1.08-6.2-2-9.19-1.3-2.3.53-4.8 3.32-2.47 5.43 2 1.79 4.72-.17 6-1.82a23.42 23.42 0 0 0 3.85-7.52 23 23 0 0 0 .78-9.62 6 6 0 0 0 -2-4.22 3.55 3.55 0 0 0 -3.9-.32 1.58 1.58 0 0 0 -.56 2.14c1.73 2.65 5.37 2.66 8.17 2.12a18 18 0 0 0 7.76-3.95 35.59 35.59 0 0 0 6.18-6.73c.81-1.11 1.47-2.49.75-3.81a3 3 0 0 0 -2.87-1.44 3.52 3.52 0 0 0 -2.93 1.74c-.86 1.54-.4 3.4.28 4.91a44.83 44.83 0 0 0 4.6 7.63 60.77 60.77 0 0 0 12.26 12.72 52.3 52.3 0 0 0 17.9 9.31c2 .54 2.71-2.34.84-3.06a72.63 72.63 0 0 1 -12.35-5.93 58.06 58.06 0 0 1 -10.66-8.6 56.12 56.12 0 0 1 -8.31-10.9 16.67 16.67 0 0 1 -1.65-3.23 2.16 2.16 0 0 1 -.12-1.3c0-.12.4-.1.4-.11s-.18-.33-.23-.31c-.27.09-.38.4-.53.62-.34.47-.7.94-1.07 1.4a33.79 33.79 0 0 1 -2.32 2.71 19.82 19.82 0 0 1 -6.25 4.57 10.89 10.89 0 0 1 -3.72.89c-1 .05-2.75.15-3.39-.83l-.56 2.14c1.26-.66 1.41 4.28 1.41 4.86a20.53 20.53 0 0 1 -1 6.17 20 20 0 0 1 -2.92 5.75 6.32 6.32 0 0 1 -1.61 1.53c.23-.16-.45.17-.42.11-.67 1.88.34.39.38.39a6 6 0 0 0 .5-.34 3 3 0 0 1 .79-.23c4.54-.74 9.45 1.94 13.35 3.93a88.14 88.14 0 0 1 11.31 6.88 82.34 82.34 0 0 1 11.55 10c.75.77 1.87-.38 1.17-1.17z"/><path d="m143.58 383.8q19.57 16.43 40.16 31.59c1.33 1 2.64-1.26 1.3-2.22q-20.53-14.75-40.22-30.6c-.86-.7-2.1.5-1.24 1.23z"/></g><path d="m154.91 293a78.2 78.2 0 1 0 -11.34 133.1c2.71-1.34 5.28-2.37 8.37-2.24 3.53.14 6.31 1.82 9.05 3.83l7.87 5.78 6.54 4.8a12.79 12.79 0 0 0 10.66 2.26c5.73-1.4 8.76-7 12-11.47l11.22-15.28a14.33 14.33 0 0 0 3.16-7.67 12.73 12.73 0 0 0 -5.29-11c-4.6-3.41-9.24-6.77-13.85-10.16-2.3-1.69-4.53-3.27-6-5.81a13.78 13.78 0 0 1 -1.78-8c.21-2.69.83-5.36 1.07-8.06a78.71 78.71 0 0 0 -19.51-59.08 80.07 80.07 0 0 0 -12.17-11c-1.21-.89-2.37 1.13-1.18 2a76.35 76.35 0 0 1 30.53 53.95 77.42 77.42 0 0 1 -.13 15.67c-.28 2.57-1 5.14-1 7.73a16.21 16.21 0 0 0 1.87 7.53 19.42 19.42 0 0 0 6.16 6.43l7.6 5.58 6.67 4.9a10.59 10.59 0 0 1 4.68 8.68c0 2.83-1.32 5.06-2.93 7.25l-4.74 6.45-10.65 14.51a11.05 11.05 0 0 1 -7 4.76c-3.33.6-6.18-.67-8.8-2.59l-14.4-10.58a17.46 17.46 0 0 0 -9.27-3.7c-5.75-.39-10.46 3.05-15.59 5.07a75.89 75.89 0 1 1 4.62-139.06 78.33 78.33 0 0 1 12.38 7.42c1.21.87 2.37-1.15 1.18-2z"/><path d="m163.91 428.39 12.45 9.14a11.33 11.33 0 0 0 15.84-2.42l16.91-23a11.33 11.33 0 0 0 -2.43-15.84l-12.45-9.14z"/><g fill="#18c4ff"><path d="m173.67 428.71q10.43-14 20.82-28.07c.77-1-1-2.06-1.74-1q-10.31 14.1-20.53 28.24c-.63.88.82 1.7 1.45.85z"/><path d="m185.13 303.43a71.8 71.8 0 0 1 14.67 40.34c.07 1.27 2 1.28 2 0a70.82 70.82 0 0 0 -15.31-41.38c-.59-.76-1.95.27-1.35 1z"/><path d="m214.88 335.23a20.92 20.92 0 0 0 -3.88-14.36c-.68-.93-2.25-.05-1.57.92a21.18 21.18 0 0 1 3.79 13.44c-.07 1.06 1.52 1 1.63 0z"/><path d="m24.22 428.64c4.78 14.84 15.78 26.53 28.68 34.85a107.73 107.73 0 0 0 21.1 10.38 91.51 91.51 0 0 0 28.19 6c7.89.28 16.45-.55 23.31-4.8 5.42-3.34 10.66-10.39 6.9-16.81-1.54-2.63-4.76-3.89-7.39-1.94-2.81 2.08-2.94 6.14-2.32 9.26 1.32 6.71 6.54 12.08 12.64 14.84 6.5 2.95 14.34 3.41 20.79.05 3.08-1.61 5.94-4.42 6.58-8a9.68 9.68 0 0 0 -2.79-8.74 7.27 7.27 0 0 0 -4.15-1.8 1.31 1.31 0 0 0 -1.15.66 10.43 10.43 0 0 0 .23 9.64c1.69 3.33 4.88 5.63 8.14 7.27 6.38 3.21 13.84 5.51 21 5.11a21 21 0 0 0 11.15-3.74c1.17-.84.08-2.79-1.15-2-6.9 4.57-15.67 3.53-23.12 1-3.8-1.29-7.89-2.87-10.95-5.53-2.88-2.5-5-6.75-3.05-10.45l-1.15.66c2.67.29 4.23 3.12 4.41 5.56.23 3.12-1.75 5.72-4.29 7.33-5.37 3.39-12.38 3.25-18.15 1-5.39-2.07-10.32-6.34-12.12-11.95-.76-2.38-1.45-6.22.69-8.14 2.43-2.2 4.47 1.3 4.84 3.39.51 2.93-1.05 5.85-3 8a20.73 20.73 0 0 1 -7.58 5.1c-7 2.87-14.93 3.1-22.34 2.45a95.86 95.86 0 0 1 -24.68-5.89 105.57 105.57 0 0 1 -18.6-9c-11.56-7.11-21.82-16.94-27.37-29.5-.7-1.58-1.3-3.19-1.84-4.82-.32-1-1.88-.57-1.56.43z"/><path d="m221.92 472.92a.83.83 0 0 0 0-1.65.83.83 0 0 0 0 1.65z"/></g><path d="m728.32 640.9c-1.88-2.74-4-5.29-6.11-7.84q-1.58-1.89-3.17-3.77a32.6 32.6 0 0 0 -3.39-3.75 1.57 1.57 0 0 0 -2.21 2.22 39.14 39.14 0 0 0 3.42 3.52c1.15 1.16 2.3 2.32 3.43 3.51 2.25 2.36 4.43 4.79 6.76 7.09.63.63 1.81-.2 1.27-1z"/></svg>