<svg width="24" height="24" viewBox="0 0 24 24" fill="none" xmlns="http://www.w3.org/2000/svg">
<path d="M12 21.4297C9.5127 21.4297 2.7832 18.082 1.6538 10.1753C1.59683 9.77743 1.56812 9.37602 1.5679 8.97409C1.5679 5.13569 4.2715 2.12939 7.7231 2.12939C9.26392 2.17122 10.7556 2.68074 12 3.59029C13.2446 2.68081 14.7364 2.17146 16.2773 2.12989C19.729 2.12989 22.4326 5.13619 22.4326 8.97459C22.4323 9.3762 22.4034 9.77728 22.3462 10.1748C22.0389 12.4341 21.1753 14.5817 19.833 16.4248C19.7555 16.5309 19.6579 16.6206 19.5458 16.6889C19.4336 16.7573 19.3091 16.8029 19.1794 16.8231C19.0496 16.8433 18.9171 16.8378 18.7895 16.8068C18.6619 16.7758 18.5416 16.72 18.4356 16.6425C18.3295 16.5651 18.2397 16.4675 18.1714 16.3553C18.1031 16.2432 18.0575 16.1187 18.0373 15.9889C18.017 15.8592 18.0226 15.7267 18.0535 15.599C18.0845 15.4714 18.1403 15.3511 18.2178 15.2451C19.3661 13.6661 20.1044 11.8268 20.3667 9.89209C20.4101 9.58818 20.4321 9.28159 20.4326 8.97459C20.4326 6.21289 18.646 4.12989 16.2773 4.12989C14.9269 4.19904 13.6395 4.72285 12.6245 5.61619C12.4472 5.75796 12.227 5.83519 12 5.83519C11.773 5.83519 11.5528 5.75796 11.3755 5.61619C10.3606 4.72271 9.07344 4.19873 7.7231 4.12939C5.3545 4.12939 3.5679 6.21239 3.5679 8.97409C3.56809 9.28142 3.58994 9.58835 3.6333 9.89259C4.5859 16.5601 10.3115 19.4297 12 19.4297C13.3249 19.2297 14.5727 18.6806 15.6152 17.8389C15.7214 17.7618 15.8418 17.7063 15.9695 17.6757C16.0972 17.6451 16.2297 17.6399 16.3593 17.6605C16.489 17.6811 16.6134 17.727 16.7253 17.7956C16.8372 17.8643 16.9345 17.9543 17.0117 18.0605C17.0888 18.1668 17.1442 18.2872 17.1749 18.4149C17.2055 18.5425 17.2106 18.675 17.19 18.8047C17.1695 18.9343 17.1235 19.0587 17.0549 19.1706C16.9863 19.2825 16.8962 19.3799 16.79 19.457C15.4101 20.5511 13.7502 21.2348 12 21.4297V21.4297Z" fill="#7EABF2"/>
<path d="M8 11C7.80225 10.9992 7.60914 10.94 7.4449 10.8299C7.28065 10.7197 7.15258 10.5636 7.07675 10.3809C7.00092 10.1983 6.98071 9.99734 7.01864 9.80326C7.05658 9.60918 7.15098 9.43063 7.29 9.28999C7.43049 9.15105 7.60903 9.0569 7.80303 9.01945C7.99704 8.982 8.19779 9.00293 8.3799 9.07959C8.50109 9.13046 8.61272 9.20161 8.71 9.28999C8.89249 9.48178 8.99604 9.73528 9 9.99999C8.99814 10.067 8.99146 10.1337 8.98 10.1997C8.96885 10.2624 8.94861 10.3231 8.9199 10.3799C8.89994 10.4414 8.86938 10.4989 8.8296 10.5498C8.79 10.6099 8.75 10.6597 8.71 10.71C8.61257 10.798 8.50097 10.869 8.3799 10.9199C8.25972 10.9712 8.13065 10.9984 8 11V11Z" fill="#7EABF2"/>
<path d="M16 11.0001C15.8023 10.9993 15.6091 10.9401 15.4449 10.8299C15.2807 10.7198 15.1526 10.5636 15.0768 10.381C15.0009 10.1984 14.9807 9.99741 15.0186 9.80333C15.0566 9.60925 15.151 9.4307 15.29 9.29006C15.4787 9.10363 15.7335 8.99945 15.9987 9.00025C16.264 9.00105 16.5182 9.10678 16.7057 9.29434C16.8933 9.4819 16.999 9.73606 16.9998 10.0013C17.0006 10.2666 16.8964 10.5214 16.71 10.7101C16.5182 10.8925 16.2647 10.996 16 11.0001V11.0001Z" fill="#7EABF2"/>
<path d="M14.5 12C14.5 12.663 14.2366 13.2989 13.7678 13.7678C13.2989 14.2366 12.663 14.5 12 14.5C11.337 14.5 10.7011 14.2366 10.2322 13.7678C9.76339 13.2989 9.5 12.663 9.5 12H14.5Z" fill="#7EABF2"/>
</svg>
