<svg width="64" height="60" viewBox="0 0 64 60" fill="none" xmlns="http://www.w3.org/2000/svg">
<path d="M53.9 10H33.9V6.9C33.9 5.8 33 1 31.9 1C30.8 1 29.9 5.8 29.9 6.9V10H9.9C8.2 10 6.9 11.3 6.9 12.9C6.9 14.5 8.2 15.8 9.9 15.8C11.6 15.8 12.9 14.5 12.9 12.9C12.9 12.7 21.4 16.7 29.8 16.9V49.3C25.1 49.5 21.5 51.2 21.5 52.5C21.5 52.7 21.6 53 21.8 53.2H18C17.2 53.2 16.6 53.8 16.6 54.5V57.7C16.6 58.4 17.2 59 18 59H22.1C22.9 59 23.5 58.4 23.5 57.7V57H39.9V57.7C39.9 58.4 40.5 59 41.3 59H45.4C46.2 59 46.8 58.4 46.8 57.7V54.5C46.8 53.8 46.2 53.2 45.4 53.2H41.6C41.8 53 41.9 52.8 41.9 52.5C41.9 51.2 38.3 49.5 33.6 49.3V16.9C42.1 16.8 50.5 12.8 50.5 12.9C50.5 14.5 51.8 15.8 53.5 15.8C55.2 15.8 56.5 14.5 56.5 12.9C56.9 11.3 55.6 10 53.9 10Z" stroke="#DA89B4" stroke-width="2" stroke-linejoin="round"/>
<path d="M1.1 42L10 15.9L19 42.9" stroke="#DA89B4" stroke-width="2" stroke-linejoin="round"/>
<path d="M45 43L53.9 15.9L63 43.9" stroke="#DA89B4" stroke-width="2" stroke-linejoin="round"/>
<path d="M19 42.4C19 44.3 15 46 10 46C5 46 1 44.3 1 42.4C1 40.5 19 40.5 19 42.4Z" stroke="#DA89B4" stroke-width="2" stroke-linejoin="round"/>
<path d="M62.9 43.4C62.9 45.3 58.9 47 53.9 47C48.9 47 44.9 45.3 44.9 43.4C45 41.5 62.9 41.5 62.9 43.4Z" stroke="#DA89B4" stroke-width="2" stroke-linejoin="round"/>
</svg>
