<?xml version="1.0" ?><svg viewBox="0 0 1000 1000" xmlns="http://www.w3.org/2000/svg"><path d="m731.73 460.19c6.85 30.34 14 60.63 21.09 90.91s14.21 60.57 21.36 90.84l6 25.25c2 8.57 3.82 17.24 6.17 25.72a1.12 1.12 0 0 0 2.15-.59c-1.5-7.67-3.51-15.25-5.3-22.85l-5.39-22.83q-5.34-22.57-10.68-45.16c-7.19-30.26-14.3-60.54-21.57-90.78-4.09-17-8.16-34-12.33-50.91a.76.76 0 0 0 -1.46.4z"/><path d="m505.87 683c8.65 8 11.5 20.42 14.47 31.4a381.79 381.79 0 0 1 8.44 39.42q.88 5.54 1.6 11.1c.48 3.73.64 7.58 1.41 11.25.24 1.2 2.09.9 2.09-.28a78.7 78.7 0 0 0 -1.09-10.49c-.43-3.28-.89-6.55-1.4-9.82q-1.59-10.2-3.76-20.3t-4.9-20a162.36 162.36 0 0 0 -5.56-17.63c-2.34-5.85-5.46-11.44-10.19-15.7-.75-.67-1.85.41-1.11 1.1z"/><path d="m376.21 220.65c-6 13.62-7.59 29-8.42 43.71-1.05 18.78-.49 37.61 0 56.39.48 19.16 1.05 38.37.05 57.52-.82 16-2.45 32.6-8.61 47.5a57.49 57.49 0 0 1 -4.67 9c-3 4.66-6.75 8.72-10 13.15-5.71 7.75-10.43 19.21-4.26 28.16 3 4.34 7.77 5.61 12.35 7.63a13.67 13.67 0 0 1 7.74 8.16c3 7.61 3.43 16.25 3.85 24.32.46 8.76.43 17.54.81 26.31.37 8.61 2 17.1 3.28 25.61 3.25 21.36 6.83 43 14.67 63.18 7.54 19.5 19.46 37.68 37.37 49.06 17.59 11.18 40.22 15.94 60.45 9.86a58.53 58.53 0 0 0 13.68-6.12c1.43-.87.12-3.14-1.32-2.26-18.51 11.28-41.9 10.42-61.26 1.74-19.67-8.82-33.8-25.34-42.81-44.62s-13.25-40.6-16.65-61.54c-1.55-9.52-3.43-19.15-4.37-28.75-.76-7.84-.65-15.76-.87-23.63-.25-8.77-.57-17.66-2.24-26.3-1.33-6.94-3.59-13.81-10.42-17-4.83-2.26-10.33-3.32-12.94-8.52-2.32-4.63-1.84-10.4 0-15.11 3.7-9.53 12.24-16.27 17.09-25.18 7.09-13 9.54-28.31 10.87-42.9 1.66-18.28 1.37-36.7.91-55-.47-18.84-1.31-37.69-1.14-56.54.14-15.92.74-32.31 5-47.75a70.84 70.84 0 0 1 3.22-9.29c.38-.89-.92-1.66-1.31-.77z"/><path d="m426.7 388.2c6.67 0 10.25 8.61 7.36 14-2 3.66-6.24 5.76-10.06 3.77-5.93-3.09-6.83-15.84.54-17.83"/><path d="m426.7 389a7.75 7.75 0 0 1 6.66 5.62c1 3.15.63 6.57-1.85 8.94a5.85 5.85 0 0 1 -8.65-.13 11 11 0 0 1 -2.29-7.53c.13-2.87 1.45-5.62 4.28-6.63a1.18 1.18 0 0 0 -.62-2.28c-3.55.76-5.59 4.08-6.07 7.48a13.77 13.77 0 0 0 2.38 10.1 8.18 8.18 0 0 0 11.31 1.88 10.48 10.48 0 0 0 4-11.24c-1-4.26-4.59-7.91-9.17-7.77a.78.78 0 0 0 0 1.56z"/><path d="m441.48 409.43c-9.57-1.52-19.51-3-29-.15-1.21.36-.69 2.29.53 1.9 9.12-2.9 18.77-1.6 28.05-.26 1 .14 1.39-1.33.41-1.49z"/><path d="m459 346.54a68.09 68.09 0 0 0 -26.07-7.82c-8.76-.78-18 .26-25.5 4.82-1.81 1.1-3.74 2.82-2.6 5.22a4.78 4.78 0 0 0 4.58 2.53c14.42-.62 21.94-.7 32.46 2.23 3.57 1 7.07 2.72 10.77 2.52s15.37-5.54 2.83-10.56"/><path d="m459.38 345.86a68.29 68.29 0 0 0 -31.15-8.44 43.66 43.66 0 0 0 -15.39 2.27 27.83 27.83 0 0 0 -6.74 3.31c-1.68 1.17-3.14 2.86-2.8 5 .87 5.72 8 4.44 12 4.31a126.12 126.12 0 0 1 13.61.13 65.53 65.53 0 0 1 12.26 2.19c4.27 1.17 8.71 3.5 13.25 2.38 2.68-.67 6.06-2.16 7.44-4.72 2.2-4.1-3.07-6.78-6.08-8-1.49-.6-2.12 1.79-.66 2.39s6.11 2.48 4.25 4.86c-1.31 1.67-3.79 2.63-5.8 3.1-3.89.89-8.18-1.46-11.91-2.47a68.61 68.61 0 0 0 -10.62-2 93.64 93.64 0 0 0 -11.11-.44c-2.2 0-4.39.1-6.59.18-2 .07-4.72.72-6.46-.54-4.36-3.18 4.67-6.7 6.77-7.46a42.39 42.39 0 0 1 13.49-2.32 66 66 0 0 1 31.44 7.65c.89.47 1.68-.86.79-1.35z"/><g fill="#18c4ff"><path d="m456.73 419.11h-.79a7.16 7.16 0 0 0 -.8.05.86.86 0 0 0 -.44.12l-.17.13a.83.83 0 0 0 -.24.72.86.86 0 0 0 .33.57.73.73 0 0 0 .29.15.9.9 0 0 0 .46 0c.26 0 .52-.08.78-.14l.78-.16a.77.77 0 0 0 .45-.34.8.8 0 0 0 .09-.48.75.75 0 0 0 -.74-.65z"/><path d="m444.64 425.38-1.46 1.74a.85.85 0 0 0 -.21.37v.23a.82.82 0 0 0 .33.67.83.83 0 0 0 .63.16.57.57 0 0 0 .31-.1.89.89 0 0 0 .31-.3l1.37-1.81a.81.81 0 0 0 .08-.61.91.91 0 0 0 -.29-.41.74.74 0 0 0 -.48-.17.77.77 0 0 0 -.56.23z"/><path d="m457.67 430.35c-.52.31-1 .61-1.53.94l-1.51 1a.84.84 0 1 0 .85 1.44l1.49-1c.5-.33 1-.69 1.47-1a.83.83 0 0 0 .36-.46.81.81 0 0 0 -.08-.59.78.78 0 0 0 -1.05-.28z"/><path d="m472.12 426.08-.8.08a1.09 1.09 0 0 0 -.61.25.75.75 0 0 0 -.18.28.72.72 0 0 0 -.07.33v.23a.91.91 0 0 0 .22.38l.18.14a.92.92 0 0 0 .43.11l.8-.1a.67.67 0 0 0 .33-.08.89.89 0 0 0 .52-.77v-.23a.87.87 0 0 0 -.22-.37l-.17-.14a1 1 0 0 0 -.43-.11z"/><path d="m468.42 439.51-4.61 2.13a.89.89 0 0 0 -.32 1.21.91.91 0 0 0 1.21.32l4.57-2.19a.85.85 0 0 0 .31-1.16.87.87 0 0 0 -1.16-.31z"/><path d="m447.93 440.28-1.59.12a.89.89 0 0 0 -.45.12l-.18.14a.9.9 0 0 0 -.23.4.6.6 0 0 0 0 .35.82.82 0 0 0 .34.59.67.67 0 0 0 .3.16 1 1 0 0 0 .48 0l1.57-.26a.83.83 0 0 0 .5-.38.86.86 0 0 0 .1-.52.83.83 0 0 0 -.23-.48.82.82 0 0 0 -.59-.24z"/><path d="m468.85 217.87c-2.7 15.41-5.66 71.18 5.49 82.16 8.26 8.13 17.53 15.44 26.24 23.06 7.32 6.41 17.4 11.07 21 20.76 1.71 4.62 1.55 9.69 1.35 14.61-1.16 28.73-1.59 58.05-7 86.37-3.88 20.3-14 39.08-35.22 44.87-25.33 6.92-52.94.2-78.15-4-7.12-1.2-14.26-2.38-21.46-2.94-5.68-.45-19.45-3.31-22.8 1.29-4.52 6.19-3.5 16.64-4.26 26.21a295.38 295.38 0 0 1 -8.36 50.14c-7.56 29.4-32.58 73.38-30.58 103.67a97.3 97.3 0 0 0 25.21 58.86c41.44 45.07 140.8 39.23 187.69 2.07 73.6-58.27 37.77-149.73 27.41-226.4-6.48-48-6.46-96.23 2.94-143.75 4-20.45 9.29-42.84-.59-61.2-7.4-13.77-21.77-22.07-35.43-29.67-14.27-7.94-5.35-38.25-19.62-46.19-5.35-3-18.88 1-24.61 3.21s-15.28-4.24-9.25-3.17"/><path d="m468.06 217.65a184.19 184.19 0 0 0 -2.28 21.73 265.86 265.86 0 0 0 -.21 30c.45 8.29 1.1 17.12 4 25a20.37 20.37 0 0 0 5.18 7.89c5.42 5.27 11.24 10.13 17 15 5.09 4.31 10.08 8.64 15.46 12.59 4.92 3.63 10.09 7.56 12.65 13.3 3.25 7.27 1.68 16.33 1.4 24-.31 8.12-.59 16.25-1 24.37-.81 16.43-2.08 32.88-4.93 49.1-2.06 11.73-5.44 23.48-12.89 33-8.37 10.68-20.36 15.4-33.55 17-15.67 1.89-31.51-.29-47-3-7.65-1.32-15.28-2.76-22.93-4-6.91-1.14-13.82-1.82-20.75-2.67-4.82-.59-9.76-1.4-14.62-.81s-7.37 3.11-8.91 7.76c-2.09 6.27-1.66 13.21-2 19.72a243.25 243.25 0 0 1 -2.68 24.56 230.58 230.58 0 0 1 -9.84 40.9c-8.3 23.57-19.81 46.33-24.8 70.95a82.23 82.23 0 0 0 .51 35.26 98.87 98.87 0 0 0 17.29 37.27c12.42 16.49 29.91 27.14 49.5 33.12 20.73 6.33 43 7.74 64.46 5.76 21-1.93 41.92-7.07 60.89-16.34a118.84 118.84 0 0 0 48.75-43.91c11.53-18.71 16.64-40.39 17.57-62.19 2-46.77-12.38-92.31-18.26-138.32a458.16 458.16 0 0 1 -2.4-97.69 450.12 450.12 0 0 1 7.33-48.55c2.71-13.63 5.33-27.85 2.75-41.71-2.46-13.24-10.36-23.63-20.93-31.63a145 145 0 0 0 -16.25-10.35c-2.14-1.22-4.46-2.26-6.19-4.05a16.36 16.36 0 0 1 -3.36-5.55c-3.36-8.71-2.76-18.39-5.48-27.27-1.16-3.79-3-7.51-6.16-10-3.61-2.87-8.08-2.79-12.46-2.2a81.31 81.31 0 0 0 -14.73 3.8 10 10 0 0 1 -6.62-.16c-.92-.31-1.73-.92-2.62-1.23-.07 0-.64-.55-.68-.54l-.59 1.68a3.88 3.88 0 0 1 .83.07c1.85.28 2.64-2.55.78-2.84-1.18-.18-2.85-.46-3.56.8s.45 2.47 1.43 3.16a13.71 13.71 0 0 0 11.8 1.88c5.11-1.71 10.27-3.4 15.67-3.92 4.66-.46 8.54.31 11.38 4.32 5.21 7.38 4.75 18 6.44 26.52.78 3.95 1.9 8 4.22 11.39 2.9 4.19 7.7 6.09 12 8.57 11.39 6.63 22.84 14.56 28.79 26.72 6.55 13.4 5.12 29 2.67 43.26-2.59 15.06-5.81 29.92-7.6 45.12a417.18 417.18 0 0 0 -2.8 49.22 503.34 503.34 0 0 0 7.91 86.27c4 23 9 46 12 69.19 2.87 22.33 4 45.36-.54 67.55a112.76 112.76 0 0 1 -32.52 59.32c-15.44 14.76-34.36 24.41-54.79 30.3a187 187 0 0 1 -64.52 6.82c-20.6-1.43-41.62-6.45-59.29-17.48-21.14-13.18-35.21-36-39.88-60.22-2.31-12-1.6-23.49 1.29-35.31 3.05-12.49 7.64-24.56 12.33-36.51 4.43-11.3 9.16-22.52 12.92-34.07 4.46-13.66 7.16-28 9.09-42.2a228.46 228.46 0 0 0 2.13-22.9c.11-3.34.16-6.69.57-10 .37-3.05 1-7.2 3.2-9.54 2.9-3.09 9.72-1.88 13.43-1.51 6.16.63 12.37 1.23 18.5 2.1 29.4 4.19 60.76 14.11 90.29 5.46a45.64 45.64 0 0 0 25.48-19.36c6.78-10.49 9.51-22.67 11.41-34.85a434 434 0 0 0 4.26-46.97c.39-8.11.66-16.23 1-24.35.27-7.35 1.42-15.42-1.41-22.43-2.06-5.12-6-9-10.28-12.39-5.05-4-10.15-7.76-15-11.94-6-5.11-12.09-10.12-17.88-15.47-3-2.81-5.64-5.11-7.19-9-3.18-7.88-3.82-16.88-4.31-25.27a291.42 291.42 0 0 1 -.06-29.41 180.57 180.57 0 0 1 1.85-21.29c.17-1-1.38-1.47-1.57-.44z"/><path d="m551.21 430.74a51.6 51.6 0 0 1 24.07-44.13c12.16-7.48 30.14-8.47 39.06 2.68 6.75 8.42 5.95 20.95 1.23 30.67s-12.65 17.4-19.91 25.4c-1.86 2.05-3.77 4.31-4 7.06-.23 2.26.69 4.47 1.59 6.56 6.31 14.67 8.9 31.52 24.4 39 16.11 7.79 36.69 6.56 54 5.53 21.81-1.29 44.7 1.14 65.17-8 27.49-12.29 13.43-32.83 18.82-58.92 9.18-44.59 38.36-102.88 39.3-148.59 1.17-54.82-10.56-118.66-59.85-150.73-26.72-17.38-61.65-21-92.53-24.56-5.3-.61-10.46-.73-15.46 1.18 5-3 33.33 14 29.69 10.29-3.88-4-41.8-25.23-46.86-27a180.31 180.31 0 0 0 -31.88-8.07c-23.63-3.58-47.93-1.91-71.18 3.28-39.61 8.85-76.35 27.21-112.54 45.59-16.32 8.28-32.83 16.74-46.48 28.93-5.86 5.25-11.47 11.88-11.67 19.75s7.95 15.9 15.17 12.77c-9.53 1.48-18.81 8.43-20.11 18s8.51 19.7 17.62 16.53c-5 3.77-10.56 8.68-10 14.93 1 10.8 17.91 16.39 27.88 19.26-.33-12.9.37-27.78 6.33-39.22 29.79 21.77 73.19 5.72 110 2.59 19.92-1.7 25.7 66.15 45.63 67.66 7.91 50.73 18.81 55.5 16 106.76"/><path d="m552 430.74a51.1 51.1 0 0 1 17.29-38.38c9.64-8.5 24.65-13.73 37-7.92 14.15 6.66 13.78 24.6 7.28 36.61-3.84 7.11-9.35 13.1-14.81 19-2.49 2.68-5.46 5.33-7.25 8.55-1.86 3.38-1.3 6.71.12 10.14 4.67 11.23 7.48 24.19 15.83 33.42 9.57 10.58 25.54 12.94 39.06 13.47 7.65.3 15.3-.08 22.94-.53 8.17-.47 16.33-.56 24.5-.76 15.82-.37 32.49-1.5 46.72-9.12a26 26 0 0 0 15.21-23.49c.79-11.3-1.22-22.54.92-33.79 2.6-13.69 7-27.08 11.3-40.29 4.82-14.6 10-29.08 14.63-43.73 4.52-14.19 8.67-28.56 11.25-43.24 2.28-13 2.71-26.06 2.33-39.25-.76-25.84-4.56-52-14.11-76.19-9.41-23.8-24.75-45.06-46.4-59.11-25.56-16.59-57-20.5-86.6-23.94-7.51-.87-15.12-2.18-22.43.46l1 2.43c1-.54 2.68 0 3.69.24a47.32 47.32 0 0 1 6.14 2.11c4.4 1.79 8.67 3.9 12.94 6 1.45.7 5.47 3.52 7.19 2.49 2.49-1.47-1.81-4.09-2.81-4.78-8-5.54-16.67-10.27-25.16-15-7.35-4.11-14.7-8.61-22.73-11.25a175.34 175.34 0 0 0 -55.87-8.93 219.24 219.24 0 0 0 -56.3 8.04c-35.76 9.72-69.06 26.49-102 43.2-15.78 8-31.69 16.25-45.1 28-5.72 5-11.5 11.19-12.75 19a15.46 15.46 0 0 0 8.24 16.25 10.41 10.41 0 0 0 8.41.39 1.37 1.37 0 0 0 -.72-2.64c-10.1 1.7-20.83 9.48-21.22 20.56-.34 9.78 9.45 19.75 19.45 16.6l-1.05-2.5c-4.19 3.18-8.84 6.92-10.3 12.22-1.19 4.34.41 8.65 3.31 11.92 6.21 7 16.51 10 25.2 12.52a1.34 1.34 0 0 0 1.7-1.29c-.31-13 .17-26.76 6.18-38.53l-1.88.49c14.34 10.36 32.22 12.28 49.42 11.16 18.7-1.21 37-5.57 55.59-7.66 4.8-.53 8.63-1.3 12.34 2.21 3.27 3.1 5.45 7.3 7.37 11.32 5 10.43 8.35 21.58 12.89 32.22 3.41 8 8.54 20.64 18.66 21.56l-1.61-1.33a429.32 429.32 0 0 0 9.56 43.71c3.05 11.45 5.6 22.9 6.39 34.76a232.63 232.63 0 0 1 0 27.82c-.12 2.24 3.37 2.23 3.49 0 .8-14.91.72-29.84-2-44.56-2.13-11.66-5.71-23-8.49-34.5-2.26-9.31-4.09-18.7-5.58-28.16a1.76 1.76 0 0 0 -1.68-1.27c-3.49-.32-6.24-3.17-8.22-5.83a64.85 64.85 0 0 1 -7-13c-4.59-10.55-8-21.58-13-32-3.11-6.58-8-16.5-16.51-16.69-3.69-.09-7.57.72-11.22 1.21-4.61.63-9.21 1.36-13.8 2.12-9.32 1.53-18.62 3.19-28 4.28-19.56 2.28-40.51 2.15-57.15-9.82a1.39 1.39 0 0 0 -1.88.49c-6.22 12.24-6.8 26.45-6.49 39.92l1.71-1.3c-7.61-2.2-16-4.71-22.1-10-2.83-2.46-5.17-5.81-4.75-9.74.55-5.2 5.42-9 9.3-12 1.13-.86.55-3-1.06-2.49-8.87 2.79-17.24-7-15.83-15.51 1.53-9.13 10.5-14.94 19-16.38l-.72-2.64c-6.85 2.69-13.41-4.6-13.44-11.14 0-8.06 6.23-14.66 11.88-19.63 12.67-11.15 27.72-19.09 42.66-26.7 31.13-15.86 62.55-31.81 96.11-41.93 34.5-10.41 71.27-14 106.46-4.78 5.64 1.48 11.64 2.91 16.89 5.42 3.39 1.63 6.71 3.42 10 5.22 8.79 4.77 17.52 9.71 26 15a67.54 67.54 0 0 1 7.77 5.16c.12.1.26.3.39.35.37.14.09.17.16.15s1.07-2 1.14-1.79c0 0 0 .08-.06 0s-.44-.15-.55-.19c-1.27-.54-2.51-1.13-3.75-1.73-3.92-1.88-7.82-3.81-11.82-5.54-3.49-1.51-7.21-3.2-11-3.62a5.66 5.66 0 0 0 -3.42.46c-1.3.7-.41 2.94 1 2.42 7.62-2.75 15.78-1.07 23.59-.15 7.58.88 15.15 1.82 22.69 3 15 2.38 30.13 5.72 44.2 11.71 24.94 10.56 44.13 30.22 56.25 54.22 11.69 23.22 16.93 49.33 18.75 75.11.9 12.64 1.32 25.57.12 38.21-1.37 14.36-4.85 28.49-8.86 42.32-8.24 28.43-19.49 55.94-27 84.58a123.89 123.89 0 0 0 -3.87 18.66 124 124 0 0 0 -.23 17.35c.35 9.56.84 20-6.47 27.31-4.91 4.9-11.77 7.7-18.3 9.67a104.44 104.44 0 0 1 -24.35 3.91c-8.14.49-16.3.45-24.45.68-7.61.22-15.21.86-22.83 1a115.39 115.39 0 0 1 -23.63-1.45c-7.06-1.29-14.54-3.48-20.22-8-10-8-12.84-21.36-17.42-32.64-1.61-4-3.64-7.66-1-11.68 2.22-3.33 5.4-6.16 8.1-9.1 5.12-5.6 10.15-11.43 13.63-18.23 5.74-11.17 6.83-26.89-3.5-35.86-9-7.81-22.53-7.19-32.91-2.73-12.06 5.19-21.29 16.15-25.91 28.26a51.66 51.66 0 0 0 -3.41 19.4.79.79 0 0 0 1.57 0z"/></g><path d="m621.68 239.23q-12.07 26.34-22.09 53.57a2.06 2.06 0 0 0 -.1 1.76 2 2 0 0 0 1.45.73 86.56 86.56 0 0 0 18.39 1.49 1.59 1.59 0 0 0 -2.37-.53 4.55 4.55 0 0 0 -1.47 2.34l-9.94 26.59 16.48 3a2.87 2.87 0 0 0 2.41-.28c.63-.55-1.1-6.15-1.92-5.93-3.69 13.73-10.71 26.92-12.49 39.57 20.36-14.75 35-34.88 50.84-54.06a34.81 34.81 0 0 0 -18.09-.57 88.82 88.82 0 0 0 15.72-20.68c.56-1 1.09-2.35.36-3.27a3 3 0 0 0 -1.88-.87 37.31 37.31 0 0 0 -12.65-.1c-.86.85.42 2.39 1.61 2.19s2-1.31 2.61-2.33l14.3-22.61"/><path d="m620.87 238.75c-4.75 10-9.15 20.1-13.36 30.31q-3.12 7.59-6 15.27c-1 2.56-2 5.12-2.88 7.69-.78 2.13-.4 3.91 2 4.44a79.88 79.88 0 0 0 18.7 1.54 1.23 1.23 0 0 0 1-1.83c-1.06-2.26-4-1.53-5.19.2a19.1 19.1 0 0 0 -1.66 4l-1.84 4.9-7.32 19.59a1.24 1.24 0 0 0 .86 1.52l10.9 2c1.85.34 3.71.71 5.57 1 1.18.19 2.69.37 3.61-.6s.3-3.23-.09-4.46-1.08-3.7-2.7-3.58a1.29 1.29 0 0 0 -1.19.91c-3.62 13.32-10.5 25.82-12.51 39.57-.13.94.85 2.13 1.84 1.41 15.8-11.48 28.49-26.38 40.72-41.46 3.46-4.27 6.9-8.55 10.39-12.78a1.28 1.28 0 0 0 -.56-2.11 36.65 36.65 0 0 0 -18.77-.58l1.23 2.11a91.47 91.47 0 0 0 11.38-13.42 76.32 76.32 0 0 0 4.64-7.52c1.09-2.07 1.41-4.75-1.24-5.73a16.51 16.51 0 0 0 -3.7-.66 37.12 37.12 0 0 0 -9.39.09c-1.25.16-2.3.4-2.47 1.85-.25 2.22 2.31 3.56 4.16 2.79a6.07 6.07 0 0 0 2.52-2.4c.9-1.33 1.73-2.71 2.59-4.07q6-9.4 11.92-18.84c.9-1.43-1.36-2.74-2.26-1.32l-8.6 13.61c-1.42 2.23-2.83 4.47-4.24 6.7-.64 1-1.23 2.13-2 3.09-.23.29-.66.88-1.07.9-.23 0-.52-.1-.41-.25l-.76.59a35.85 35.85 0 0 1 11-.07c.55.09 2 .12 2.23.74s-.41 1.48-.64 1.9c-.81 1.48-1.68 2.94-2.59 4.37a88.53 88.53 0 0 1 -12.8 15.84 1.27 1.27 0 0 0 1.22 2.11 34 34 0 0 1 17.43.57l-.56-2.11c-12.17 14.77-23.73 30.19-37.79 43.27a136.44 136.44 0 0 1 -12.79 10.6l1.83 1.41c2-13.75 8.88-26.25 12.49-39.58l-1.2.91c-.9.07-.53-.46-.42 0a4.15 4.15 0 0 0 .32.63 13.66 13.66 0 0 1 .62 1.87c.09.32.1 1.32.3 1.56 0 .18 0 .2 0 .08.26-.33.18-.41-.24-.26a12 12 0 0 0 -1.73-.26l-15.49-2.8.86 1.51 5.74-15.4 2.79-7.47c.48-1.29 1-2.61 1.46-3.89.14-.36 1.09-2.33 1.55-1.35l1.05-1.84a86.6 86.6 0 0 1 -15.43-1l-1.68-.28c-.26-.05-1.48-.11-1.64-.35-.29-.45.83-2.59 1-3.09q1.35-3.63 2.73-7.24 5.43-14.17 11.34-28.17c2.24-5.27 4.53-10.51 6.83-15.75.48-1.09-1.1-2-1.62-.95z"/><path d="m376.21 220.65c-5.1 11.3-7 23.9-8.1 36.16-1.32 15.33-1.26 30.74-.94 46.11.33 16.44 1 32.88 1.06 49.33.09 15.29-.18 30.68-2.2 45.85-1.62 12.16-4.34 24.75-10.69 35.39-.67 1.13-1.39 2.23-2.15 3.29-1 1.38 1.3 2.69 2.26 1.33 7-9.88 10.3-22 12.3-33.82 2.5-14.79 3.07-29.87 3.13-44.84.08-16.42-.53-32.83-.95-49.24-.41-15.66-.77-31.36 0-47 .65-12.78 1.87-25.92 6.13-38.07.44-1.25.92-2.49 1.44-3.71.37-.88-.91-1.66-1.31-.77z"/><path d="m593 405.65a46 46 0 0 0 -6.7 4 33.41 33.41 0 0 0 -5.76 5c-1.54 1.77-2.74 4-2.3 6.39.42 2.26 2.72 3.87 4.87 2.57a3.42 3.42 0 0 0 -.52-6 1.18 1.18 0 0 0 -1.71.7 5.19 5.19 0 0 0 .4 3.38c.63 1.37 2.66.18 2-1.18a2.52 2.52 0 0 1 -.17-1.58l-1.71.69c.64.3 1.34 1.1.76 1.8s-1.24.31-1.55-.34c-.88-1.91.74-4.2 2-5.55a42 42 0 0 1 11.17-8.53c.89-.48.11-1.79-.79-1.35z"/><path d="m386.17 528.75c16.58 4.07 33.94 0 50.54-4 1.32-.32.54 11.27.44 12.41a30.74 30.74 0 0 1 -9.46 20.3c-5.88 5.41-13.53 7.74-21.42 7.56a12.87 12.87 0 0 1 -7.63-2.37c-4.31-3.29-5.07-9.35-5.49-14.75l-1.15-14.64c-.06-.8-.21-3-.21-3"/><path d="m386 529.56c11.43 2.9 23.26 2.11 34.75 0 3-.55 5.95-1.17 8.91-1.84l4.18-1 2.09-.49.23-.06c.57 0 .61-.12.14-.32-.16-.19-.35-.24-.32-.33a6.84 6.84 0 0 0 .21 1.18c.06.69.08 1.39.08 2.09 0 1.56 0 3.12-.11 4.67a43.17 43.17 0 0 1 -1.29 9.61 28.6 28.6 0 0 1 -7.33 12.79 27.27 27.27 0 0 1 -13.22 7.14c-4.61 1-10.83 1.72-14.85-1.31-4.17-3.16-4.63-9.18-5-14-.44-5.79-1-11.58-1.37-17.38-.11-1.66-2.71-1.67-2.59 0q.58 8.33 1.24 16.65c.38 4.89.74 10.32 3.77 14.4 3.42 4.6 9.06 5.35 14.41 4.92a31.55 31.55 0 0 0 15.24-5.12c8.31-5.63 12.7-15 13.32-24.87a66.76 66.76 0 0 0 .14-9.38c-.08-1-.12-2.57-1.14-3.16-.77-.44-1.7 0-2.48.2l-5.1 1.22c-14.15 3.31-29.1 6.06-43.51 2.77a.84.84 0 0 0 -.44 1.62z"/><g fill="#fff"><path d="m403.67 554c1.84-3.6 4.09-6.82 7.58-9 1.66-1 4-2.33 6-1.58.72.26 1.59.87 1.68 1.71a1.3 1.3 0 0 1 -1.39 1.45l1.27 1.66a12.72 12.72 0 0 1 4.95-6.53c2.41-1.64 4.95-2.09 7.77-2.49a1.13 1.13 0 0 0 0-2.17c-6.66-1-13.17 4.54-15.25 10.49a1.32 1.32 0 0 0 1.26 1.66c2.75.29 4.72-2.76 3.85-5.24-1-2.92-4.39-3.77-7.12-3-5.55 1.51-10.21 7.24-12 12.51a.76.76 0 0 0 1.39.58z"/><path d="m725.33 258c-6.22 6-15.41 7.7-24 8.8a443.25 443.25 0 0 1 -128.78-2.29c-12.59-2.08-26.33-5.51-33.58-16-6.53-9.45-5.72-22.78.32-32.55s16.51-16.2 27.56-19.32c8.36-2.36 18.66-2.45 24.26 4.2 1.75 2.07 2.86 5.08 1.63 7.5-1.64 3.22-6.59 3.34-9.38 1s-3.9-6-4.59-9.56a72.13 72.13 0 0 1 -1.25-16.13c.24-6.59 1.5-13.39 5.36-18.73a29.31 29.31 0 0 1 12.55-9.39c12.58-5.3 28.07-4 38.77 4.47s15.46 24.23 10 36.74a7.89 7.89 0 0 1 -2.92 3.85c-1.41.83-3.51.68-4.39-.71a4.63 4.63 0 0 1 -.52-2.39c-.42-14.56 8.25-29.31 21.69-34.92s30.78-.85 38.52 11.49 3.81 30.89-8.84 38.13c-.62.36-1.6.58-1.89-.08a1.26 1.26 0 0 1 .15-1c2.51-5.34 9.12-8.21 14.85-6.82a15.39 15.39 0 0 1 11.11 12.46c.67 4.26-2.14 9.93-6.33 8.9 8-5.14 19.95-2.83 25.49 4.95s3.82 19.78-3.67 25.7"/><path d="m724.75 257.38c-8 7.57-20.34 8.15-30.7 9.25q-18.79 2-37.71 2.43a444.1 444.1 0 0 1 -75.72-4.76c-9.93-1.49-20.41-2.85-29.47-7.47a29 29 0 0 1 -10.7-8.81 25.24 25.24 0 0 1 -4.53-13.79c-.36-10.18 4.44-19.52 12-26.11a47.47 47.47 0 0 1 12.68-7.77 44.41 44.41 0 0 1 14-3.64c4.45-.31 9.18.25 12.93 2.85a9.59 9.59 0 0 1 4.08 5.44 3.44 3.44 0 0 1 -3 4.38c-4.89.73-7.2-4.42-8.12-8.33a65.42 65.42 0 0 1 -1.49-17.81c.23-5.45 1.18-11.06 4-15.82s7.22-7.91 12.06-10.12a39 39 0 0 1 29.24-1.15 31.5 31.5 0 0 1 19.07 19.58 30.37 30.37 0 0 1 1.39 13.51 26.61 26.61 0 0 1 -1.72 6.45c-.6 1.46-2.36 5.06-4.54 3.72-.88-.55-.65-2.11-.64-3a34.15 34.15 0 0 1 .2-3.64 35.29 35.29 0 0 1 1.45-6.9 36.68 36.68 0 0 1 6.49-12.25 30.93 30.93 0 0 1 23.65-11.81c8.68-.08 17.47 3.39 23.23 10 5.52 6.34 7.17 15.22 5.21 23.29a26.11 26.11 0 0 1 -5.42 10.9 22.41 22.41 0 0 1 -4.41 4 9.87 9.87 0 0 0 -1.37.85s-.22.08-.25.12l.78 1c.06-.14.13-.27.2-.4a16 16 0 0 1 2.15-2.78 11.91 11.91 0 0 1 12.13-2.34 13.89 13.89 0 0 1 8.21 9.79 8.25 8.25 0 0 1 -.59 5.53c-.67 1.33-1.84 2.7-3.48 2.36l.4 3.05c5.85-3.66 13.47-3.18 19.18.51 5.92 3.82 8.35 11.08 6.94 17.85a17.15 17.15 0 0 1 -6 10c-1.19 1 .51 2.64 1.69 1.69a21.29 21.29 0 0 0 6.82-21.53c-2.14-8.1-9.31-13.34-17.44-14.25a20.21 20.21 0 0 0 -12.88 2.84 1.69 1.69 0 0 0 .39 3c5.18 1.09 8.28-4.17 8.54-8.67.3-5.14-3-10.36-7-13.33a15 15 0 0 0 -14.48-1.88 14.71 14.71 0 0 0 -6.16 4.51 9.25 9.25 0 0 0 -1.85 3.29 2.38 2.38 0 0 0 2.17 3c2.22.12 4.57-2 6.14-3.41a26.84 26.84 0 0 0 4.54-5.21 30.55 30.55 0 0 0 4.81-13.2 28.8 28.8 0 0 0 -9.73-25.75 34.71 34.71 0 0 0 -28.32-7.35c-10.35 1.89-19.08 9.13-24.06 18.24a40.37 40.37 0 0 0 -4.74 15.24c-.25 2.36-.74 5.76.55 7.88s4.38 2.43 6.45 1.25c2.39-1.37 3.53-4.26 4.38-6.74a29.49 29.49 0 0 0 1.49-7.62 33.59 33.59 0 0 0 -2.63-15.11 34.83 34.83 0 0 0 -23.68-20.21 41.68 41.68 0 0 0 -32.66 5.11 26.56 26.56 0 0 0 -10.85 13.89c-2 5.93-2.3 12.44-2 18.63a76.07 76.07 0 0 0 1.25 10.33 21.28 21.28 0 0 0 2.78 7.74c2.57 3.87 8.13 6.19 12.23 3.08 4.93-3.73 1.39-10.41-2.42-13.39-4.1-3.21-9.47-4.18-14.56-3.94a46.31 46.31 0 0 0 -15.52 3.78 50.85 50.85 0 0 0 -14.45 8.92c-8.36 7.46-13.47 18.43-12.36 29.75a28.07 28.07 0 0 0 6.18 15.15 34 34 0 0 0 12.77 9.2 73.09 73.09 0 0 0 15.4 4.56c6.49 1.28 13.06 2.19 19.62 3q21 2.69 42.27 3.35c14.14.44 28.31.2 42.42-.72q10.71-.69 21.39-1.91c6.24-.72 12.6-1.35 18.7-2.92 5.21-1.34 10.23-3.53 14.14-7.31.76-.74-.4-1.9-1.17-1.17z"/></g><path d="m975 912.77c-29.93-56.6-73.76-111.12-123.73-151.15-7.84-6.28-16-12.5-21.34-21-4.16-6.73-6.25-14.5-8.29-22.15q-4.75-17.88-9.52-35.76c-.94-3.54-2-7.24-4.54-9.85-3.78-3.85-9.76-4.28-15.16-4.18-33.25.57-65.34 11.65-96.54 23.18q-82.33 30.43-162.53 66.23c-6.74 3-13.67 6.23-19.78 10.35a24.38 24.38 0 0 0 -9.89 26.8l6.32 22.32s-63.15 37.86-75.86 95.21"/><path d="m975.79 912.31a497.9 497.9 0 0 0 -78-109.17 480.16 480.16 0 0 0 -49.24-45.23c-9.09-7.32-17.28-15-21.55-26.15s-6.75-23.45-9.85-35.11c-1.55-5.85-2.86-11.83-4.73-17.59-1.42-4.35-3.79-8.07-8.11-10s-9.28-1.84-13.92-1.71a175.66 175.66 0 0 0 -18.18 1.52c-24.07 3.22-47.26 10.86-70 19.12q-71.12 25.83-140.56 56c-11.48 5-23 9.87-34.34 15.16-9 4.24-19.13 8.94-23.56 18.49-5.43 11.73.37 24.53 3.61 36.07l1.18 4.19.67-1.65a181.62 181.62 0 0 0 -22.61 16.6c-15.16 12.72-29 27.47-39.34 44.38a116.4 116.4 0 0 0 -14.61 35.09c-.42 1.87 2.45 2.67 2.88.8 8.4-37.23 37-67.71 67.38-89.16 2.55-1.8 5.12-3.57 7.79-5.18a1.5 1.5 0 0 0 .67-1.66l-3.5-12.46c-1.28-4.57-3.18-9.44-3.56-14.2a23.18 23.18 0 0 1 3.25-13.72c2.8-4.63 7.07-7.53 11.68-10.17 10.27-5.86 21.45-10.25 32.26-15q67.88-29.66 137.31-55.57c22.36-8.38 44.87-16.77 68.27-21.74a183 183 0 0 1 35.75-4.27c5-.05 10.94.27 14.4 4.42s4.22 10.77 5.56 15.81c3.12 11.67 6 23.44 9.42 35 3 10.35 7.71 19.2 15.57 26.68s16.56 13.6 24.65 20.59 16.19 14.51 23.88 22.19a503.22 503.22 0 0 1 80.32 104.9q3.9 6.77 7.58 13.67c.55 1 2.13.12 1.58-.92z"/><g fill="#18c4ff"><path d="m582.23 231.38c-2.25-4.63 1.86-9.33 6.29-10.27a14.22 14.22 0 0 1 7.37.56c1.67.55 5 2.75 2.79 4.7l1.83.24c-3.41-6.88-.34-15.08 5.88-19.13a17.52 17.52 0 0 1 10.53-3 10 10 0 0 1 8.14 5.2c1.84 3.16 2.59 6.86 3.26 10.41a1.37 1.37 0 0 0 2.63 0c1.21-7.25 3.93-15.93 11.89-18.11a15 15 0 0 1 17.84 9.36 18.3 18.3 0 0 1 0 12.43c-.53 1.5 1.67 2.27 2.47 1 2.62-4 8.21-7.27 13-5.1 3.62 1.64 6.09 7.07 3.39 10.49-1 1.29.78 3.12 1.81 1.82 3.69-4.63 1.45-11.76-3.61-14.43-6.11-3.24-13.45.57-16.93 5.86l2.46 1c2.92-8.09.4-18.11-7-22.91a18 18 0 0 0 -12.08-2.5 16 16 0 0 0 -10.6 6.35c-3.08 4.05-4.45 9.14-5.27 14.08h2.68c-1.39-7.42-4.13-16.23-12.82-17.39-8.26-1.1-17.09 4.19-20.18 11.87a16.89 16.89 0 0 0 .55 13.91 1.18 1.18 0 0 0 1.83.24c2.4-2.18 1.1-5.72-1.27-7.3-2.74-1.82-6.73-2.25-9.91-1.8a10.86 10.86 0 0 0 -8 5 8.67 8.67 0 0 0 -.47 8.37c.52 1 2 .12 1.53-.9z"/><path d="m696.14 233.35a1 1 0 0 0 0-2 1 1 0 0 0 0 2z"/><path d="m160.15 439.72a121 121 0 0 0 2.61-27 117 117 0 0 0 -1.08-13.72 69.71 69.71 0 0 0 -2.51-12.15c-1.09-3.35-2.75-7.11-5.48-9.47-2.08-1.79-6.57-2.67-7.12 1.09-.52 3.57 4.16 4.67 6.77 4.7a32.06 32.06 0 0 0 11.23-1.9 32.69 32.69 0 0 0 10.91-6.56c1.52-1.39 3.12-3 3.39-5.18a4.31 4.31 0 0 0 -2.28-4.55 1.51 1.51 0 0 0 -2.17.88c-1.43 3.67 1.7 7.74 4.29 10.08a24 24 0 0 0 9 4.92 44.12 44.12 0 0 0 10.64 1.79c2.72.16 9.22.89 8.39-3.68a4.46 4.46 0 0 0 -3-3.3 4.89 4.89 0 0 0 -4.84 1.57 17.78 17.78 0 0 0 -3 5.16c-.92 2-1.76 4.06-2.52 6.13a84.78 84.78 0 0 0 -5 25.84 76.73 76.73 0 0 0 4.2 29.18c.66 1.79 3.44 1.1 2.9-.8a92.66 92.66 0 0 1 -3.95-21.75 82.15 82.15 0 0 1 1.91-21.78 81.09 81.09 0 0 1 3.1-10.5c.66-1.76 1.37-3.49 2.15-5.19a13.66 13.66 0 0 1 2.5-4.29 2.19 2.19 0 0 1 1.48-.76c.37 0 1.07.53 1.08.94s-.77.29-1.22.3c-.76 0-1.51 0-2.26 0a46.07 46.07 0 0 1 -8.92-1 25.13 25.13 0 0 1 -9-3.7c-2.29-1.6-6.25-5.3-5-8.4l-2.17.88c3 1.34-1.93 5.36-3.07 6.28a28.9 28.9 0 0 1 -8.05 4.56 29.79 29.79 0 0 1 -9 1.86 11.13 11.13 0 0 1 -4-.27c-.37-.13-2.05-.84-1.33-1.33s2.37 1 2.76 1.47a17.89 17.89 0 0 1 2.66 4 37.06 37.06 0 0 1 2.86 8.79 117 117 0 0 1 2.58 21.35 118.31 118.31 0 0 1 -1.85 25.13c-.17 1 1.3 1.4 1.51.41z"/><path d="m175.31 369.44c-1.16 18.72-1.91 37.47-2.13 56.23q-.09 8-.07 15.94a1.22 1.22 0 0 0 2.43 0q-.25-28.14.74-56.26.28-8 .69-15.91c.05-1.07-1.59-1.06-1.66 0z"/></g><path d="m289 306a111.58 111.58 0 0 0 -150.26-104.73 112.66 112.66 0 0 0 -61.74 55.87 111.58 111.58 0 0 0 36.87 140.74 109.58 109.58 0 0 0 9.63 6c3.26 1.79 6.75 3.18 9.47 5.8a19.4 19.4 0 0 1 5.76 14.45v26a32.77 32.77 0 0 0 .11 3.71 18.32 18.32 0 0 0 18.82 16.42h37.61c4 0 7.9-.36 11.5-2.44a18.53 18.53 0 0 0 9.16-16.07c0-8.36 0-16.72 0-25.07 0-4.13 0-8.1 2-11.9a19 19 0 0 1 7.52-7.91c3.26-1.87 6.67-3.45 9.89-5.41a113.12 113.12 0 0 0 33-30.72 110.87 110.87 0 0 0 18.29-41.74 113.83 113.83 0 0 0 2.37-23c0-2.83-4.4-2.84-4.4 0a107.38 107.38 0 0 1 -52.85 92.43c-3.18 1.87-6.67 3.3-9.74 5.34a23.46 23.46 0 0 0 -7.75 8.42c-2.25 4.22-2.73 8.66-2.73 13.33v25.58c0 5-2 9.76-6.38 12.55-3.13 2-6.46 2.2-10 2.2h-37.3c-4.71 0-9.15-1.73-12-5.64a14.15 14.15 0 0 1 -2.7-8.28c0-1 0-1.93 0-2.89v-25.37a23.57 23.57 0 0 0 -6.37-16.44c-2.68-2.83-6-4.47-9.34-6.26a108.66 108.66 0 0 1 -9.59-5.71 107.25 107.25 0 1 1 164.8-109.73 109.24 109.24 0 0 1 2 20.49c-.05 2.84 4.35 2.84 4.35-.02z"/><path d="m140.94 430v22a16.09 16.09 0 0 0 16.06 16.06h40.6a16.1 16.1 0 0 0 16.1-16.1v-21.96z"/><g fill="#18c4ff"><path d="m148.66 441.07q24.81.1 49.62.16a1 1 0 0 0 0-1.9q-24.81 0-49.62.16a.79.79 0 0 0 0 1.58z"/><path d="m173.27 449.24 24.6.08a.84.84 0 0 0 0-1.68l-24.6.08a.76.76 0 0 0 0 1.52z"/><path d="m170 458.72h15.17a.81.81 0 0 0 0-1.61h-15.17a.81.81 0 0 0 0 1.61z"/><path d="m514.06 792.85c8.78 3.91 13.86 12.32 17.48 20.84 3.74 8.8 6 18.16 10.7 26.56 4.26 7.65 10.56 15.14 19.39 17.39 5.55 1.41 11.14.28 16.49-1.41 6.21-2 12.35-4.11 18.5-6.22 24.66-8.44 49.16-17.33 73.57-26.47s48.71-18.54 72.88-28.32q18.2-7.34 36.3-14.92c5.76-2.41 11.53-4.79 17.26-7.29 4.28-1.87 8.73-4.21 11.81-7.83a14.23 14.23 0 0 0 3.1-6 1.34 1.34 0 0 0 -2.59-.71c-1.57 4.49-5.54 7.36-9.62 9.45-5 2.57-10.37 4.58-15.57 6.75q-17.7 7.41-35.49 14.6-35.58 14.38-71.45 28c-23.94 9.06-48 17.75-72.1 26.34q-9 3.2-18 6.35c-5.79 2-11.77 4.79-17.91 5.42-9.8 1-17.46-5.39-22.59-13.11s-7.8-16.8-11.24-25.48c-3.23-8.18-7.29-16.59-14.46-22a26.39 26.39 0 0 0 -5.71-3.29c-.91-.39-1.71.93-.79 1.35z"/></g><g fill="#fff"><path d="m524.94 122.66c1.11 12.88 2.75 25.73 4.14 38.58.07.62.63 1.29 1.34 1 6.68-2.52 8.09-10.36 13.32-14.53l-1.9-.51c1.58 9.06 3 18.15 4.59 27.21.25 1.44 2.37.81 2.17-.6-1.31-9.1-2.91-18.16-4.57-27.21-.17-.93-1.3-1-1.9-.5-2.5 2-4.13 4.83-5.82 7.52s-3.45 5.42-6.45 6.58l1.34 1c-1.52-12.93-2.81-25.91-4.61-38.81-.13-.92-1.73-.71-1.65.23z"/><path d="m509.68 178.35 4.37 6.57a.82.82 0 0 0 1.09.28.8.8 0 0 0 .28-1.08l-4.37-6.57a.83.83 0 0 0 -1.09-.28.8.8 0 0 0 -.28 1.08z"/><path d="m495.23 201.55 12.54 7.17c1 .57 1.91-1 .91-1.55l-12.61-7a.83.83 0 0 0 -.84 1.43z"/><path d="m494.85 222.43 6.55 2.22a.82.82 0 0 0 1-.56.84.84 0 0 0 -.57-1l-6.57-2.16a.78.78 0 0 0 -.42 1.51z"/><path d="m574.55 132.26 2.19 10.39c.23 1.08 1.9.63 1.66-.46l-2.23-10.37c-.23-1.06-1.84-.61-1.62.44z"/><path d="m596.45 130.38v8.75a.87.87 0 0 0 1.73 0v-8.75a.85.85 0 0 0 -1.7 0z"/><path d="m658.86 126.65c-2.42 3.31-4.85 6.61-7.27 9.93a1 1 0 0 0 .41 1.42 21.52 21.52 0 0 0 8.26 2l-1.07-1.41a31 31 0 0 1 -6.44 11.11c-1 1.09.64 2.73 1.62 1.62a33.51 33.51 0 0 0 7-12.14 1.13 1.13 0 0 0 -1.08-1.41 19.38 19.38 0 0 1 -7.2-1.59l.37 1.43q3.52-5 7-10.07c.67-1-.89-1.84-1.57-.91z"/><path d="m688 140.14a21.61 21.61 0 0 0 -4.51 6.74.92.92 0 0 0 .43 1.29.91.91 0 0 0 1.22-.59 20 20 0 0 1 4.11-6.19c.8-.82-.45-2.07-1.25-1.25z"/><path d="m717 151.62-6.62 6.5a.91.91 0 0 0 1.28 1.28l6.54-6.58a.85.85 0 0 0 -1.2-1.2z"/><path d="m736.08 174-6 4.89a1 1 0 0 0 0 1.37 1 1 0 0 0 1.36 0l6-4.95a.93.93 0 1 0 -1.31-1.31z"/><path d="m691.12 295.87a50.15 50.15 0 0 0 34.54-5.74c2.34-1.36 4.73-3 6.06-5.4 1.09-2 1.17-4.58-.65-6.19a5.36 5.36 0 0 0 -5.6-.7 5.49 5.49 0 0 0 -3.13 5.35c.21 5.94 6.59 8.18 11.63 7.3 5.36-.92 9.68-4.77 13.09-8.77 3.19-3.75 8-9.13 5.29-14.36-.94-1.81-3-3.33-5.09-2.93a4.55 4.55 0 0 0 -3.48 4.09c-.19 2.76 2.55 4.05 5 3.3 2.85-.9 5.34-3.49 7.17-5.75a26.38 26.38 0 0 0 6-17 1 1 0 0 0 -1.91 0 25.13 25.13 0 0 1 -3.26 12.32 24.08 24.08 0 0 1 -3.74 5c-1.4 1.44-3.43 3.58-5.56 3.68s-1.79-2.33-.54-3.27c1.64-1.23 3.46.66 4 2.13 1.51 4.11-2.75 8.56-5.18 11.42-2.73 3.21-6 6.35-10 7.74-3.8 1.3-9.7 1.05-11.12-3.55-.58-1.87-.12-4.2 1.86-5 1.58-.63 3.68-.17 4.21 1.6.63 2.09-1.26 4.15-2.71 5.39a28.08 28.08 0 0 1 -5.66 3.49 48.45 48.45 0 0 1 -30.66 4.38c-1-.19-1.4 1.31-.41 1.5z"/><path d="m597.73 296.18c3.39 1.54 7.36 1.48 11 1.8 2 .18 4 .37 6.06.53a36.9 36.9 0 0 0 6.29.38c1.09-.11 1.48-1.72.27-2a32.37 32.37 0 0 0 -5.66-.5c-2-.14-4-.25-6.07-.36l-5.81-.33a17.57 17.57 0 0 1 -5.48-.94c-.83-.32-1.43 1.08-.61 1.45z"/><path d="m604.3 326.15q10.76 2.13 21.54 4c1.33.24 1.9-1.81.56-2-7.22-1.23-14.44-2.41-21.68-3.49-1-.14-1.42 1.31-.42 1.51z"/><path d="m611 363.44c6.87-5.34 13.92-10.56 20.21-16.6a106.59 106.59 0 0 0 8.13-8.74 79.75 79.75 0 0 0 7.27-9.81c.69-1.16-1-2.08-1.77-1-2.39 3.28-4.63 6.61-7.24 9.73a108.5 108.5 0 0 1 -8.13 8.75c-6.15 5.95-13.05 11.1-19.65 16.53-.85.69.35 1.83 1.18 1.18z"/><path d="m650.14 323.84.58-.8a.7.7 0 0 0 .1-.34.63.63 0 0 0 0-.36.71.71 0 0 0 -.16-.31.72.72 0 0 0 -.26-.23l-.22-.09a.79.79 0 0 0 -.48 0l-.21.09a.92.92 0 0 0 -.33.32l-.52.84a.64.64 0 0 0 -.1.33.65.65 0 0 0 0 .34.62.62 0 0 0 .16.3.6.6 0 0 0 .25.22l.2.09a.94.94 0 0 0 .47 0l.21-.09a.84.84 0 0 0 .31-.31z"/></g><g fill="none" stroke="#000" stroke-miterlimit="10" stroke-width="4.41"><path d="m287.71 222.8c0-.73 0-1.47 0-2.2"/><path d="m287.89 216.19c2.85-39.76 37.18-86.2 80.82-75.13 4.68 1.18 9.34 3.11 12.68 6.61a23.07 23.07 0 0 1 5.61 12.18 35.23 35.23 0 0 1 -13.75 33.57c-3.32 2.41-7.49 4.27-11.46 3.24-5.76-1.5-8.41-8.26-8.68-14.2-1-21.61 16.5-38.4 34.21-47.65 26.36-13.76 58.65-16.25 86.34-5.4 26.31 10.31 47.78 32.84 55.93 59.84" stroke-dasharray="4.41 4.41"/><path d="m530.16 191.36c.2.71.38 1.42.56 2.14"/></g><circle cx="287" cy="224.98" r="6.29"/><circle cx="530.72" cy="193.85" r="6.29"/><g fill="#18c4ff"><path d="m71.4 428.39c-2.07 20.29-2.56 40.86.55 61.07 2.76 18 8.51 35.52 18.13 51 8.71 14.07 20.51 26.41 35 34.64 7.77 4.43 17 8.46 26.1 6.84 8.28-1.47 14.28-8.15 17.52-15.58a45.57 45.57 0 0 0 2.76-26.46c-1.53-8.2-5.31-17.35-12.4-22.26a13.29 13.29 0 0 0 -11.13-2.13c-3.85 1.08-6.91 3.88-9.28 7-4.85 6.36-7.64 14.6-9 22.4-2.91 16.08.2 32.78 7.08 47.47a91.56 91.56 0 0 0 13.46 20.83c5.82 6.79 12.75 13.16 21 16.79 14.27 6.27 31.78 3 43.17-7.58 11.84-11 14.9-29.21 8.83-43.93a38.06 38.06 0 0 0 -5.93-9.86 1.25 1.25 0 0 0 -1.27-.33c-12.56 5.12-14.24 22-12.67 33.64a58.9 58.9 0 0 0 17.44 34.22 54 54 0 0 0 18.47 11.56c1.33.5 1.91-1.63.59-2.13-11.32-4.29-20.88-13.19-26.9-23.58s-9-23.16-6.82-35.11c1.18-6.36 4.18-13.48 10.58-16.09l-1.27-.33c9.59 11.7 10.83 29.52 3.16 42.52-7.44 12.64-23.08 19.4-37.45 17.26-8.28-1.23-15.52-5.55-21.67-11.07a86.29 86.29 0 0 1 -15.45-18.42c-8.2-13.11-13.22-28.51-13.15-44a63.4 63.4 0 0 1 4-22.27c2.52-6.62 6.84-15.54 14.61-16.94 8.4-1.51 14.3 7.48 17.07 14.08a44.42 44.42 0 0 1 2.57 25.92c-1.56 7.69-5.31 15.78-12.22 20-8.06 5-17.93 2.29-25.87-1.51-14.22-6.81-26.23-17.68-35.36-30.46a126.2 126.2 0 0 1 -20-45.42c-4.33-18.84-5-38.34-3.92-57.59q.41-7.1 1.12-14.17c.1-1-1.44-1-1.54 0z"/><path d="m47.12 181.13 26.72 24.16c.93.84 2.32-.55 1.38-1.38l-26.9-24c-.81-.73-2 .46-1.2 1.2z"/><path d="m106.93 142.28a230 230 0 0 1 7 30.46c.19 1.19 2 .69 1.82-.5a231.2 231.2 0 0 0 -7.22-30.4.82.82 0 0 0 -1.57.44z"/><path d="m170.63 122.46a330.6 330.6 0 0 0 1.56 44.28c.12 1.12 1.88 1.14 1.77 0a361.72 361.72 0 0 1 -1.75-44.28.79.79 0 0 0 -1.58 0z"/><path d="m237.92 129.63a273.49 273.49 0 0 1 -14.77 35.85c-.5 1 1 1.91 1.53.89a273.52 273.52 0 0 0 14.76-36.32c.32-1-1.2-1.39-1.52-.42z"/><path d="m280.6 163.86a75.72 75.72 0 0 1 -10.6 13.73c-.82.84.46 2.12 1.28 1.28a72.63 72.63 0 0 0 10.75-14.16.85.85 0 0 0 -1.46-.85z"/><path d="m49.67 239.07a82.79 82.79 0 0 0 -10 46.41 81.38 81.38 0 0 0 2.25 13.52.9.9 0 0 0 1.73-.48 82.67 82.67 0 0 1 2-46.33 80.35 80.35 0 0 1 5.35-12.32c.49-.9-.87-1.7-1.37-.8z"/><path d="m27.14 246.92a46.86 46.86 0 0 0 -2.58 22.35.85.85 0 1 0 1.67-.22 45.45 45.45 0 0 1 2.44-21.71c.35-1-1.18-1.37-1.53-.42z"/><path d="m302.22 349.53a100.08 100.08 0 0 1 -24 41.7 108.52 108.52 0 0 1 -10.07 9.22c-.95.76.39 2.06 1.33 1.33a99.57 99.57 0 0 0 29.68-38.78 101.07 101.07 0 0 0 4.63-13 .81.81 0 0 0 -1.57-.43z"/><path d="m290.18 409.79a29.86 29.86 0 0 0 13.15-16.49c.34-1.06-1.31-1.51-1.66-.46a29.75 29.75 0 0 1 -12.27 15.62.77.77 0 0 0 .78 1.33z"/></g></svg>