<svg width="48" height="48" viewBox="0 0 48 48" fill="none" xmlns="http://www.w3.org/2000/svg">
<path d="M33.1196 2.74976C32.6004 2.75543 32.0589 2.84702 31.5376 3.10877C29.9789 3.89085 29.3224 5.52659 29.3224 7.21255V11.1252C28.9531 10.612 28.4982 10.1558 27.9244 9.82453C26.555 9.03389 24.9032 9.18499 23.5609 9.40782C22.2185 9.63063 21.1419 10.0085 21.1419 10.0085C20.9337 10.0819 20.7587 10.2273 20.6485 10.4186C20.5383 10.6098 20.5002 10.8343 20.5412 11.0512C20.5412 11.0512 20.7521 12.1692 21.2303 13.4431C21.7085 14.717 22.3971 16.2331 23.7665 17.0238C25.1359 17.8144 26.7931 17.6543 28.1355 17.4315C28.5633 17.3606 28.963 17.275 29.3098 17.1897C29.2962 17.6606 29.2694 18.1017 29.2142 18.4884C29.142 18.9935 29.0199 19.3843 28.8678 19.6556H26.5481C26.4268 19.656 26.3068 19.6804 26.1949 19.7273C26.083 19.7741 25.9815 19.8425 25.8961 19.9286C25.8106 20.0147 25.743 20.1168 25.697 20.229C25.6511 20.3412 25.6276 20.4615 25.6281 20.5827C25.6291 20.8264 25.7263 21.0599 25.8986 21.2322C26.0709 21.4045 26.3044 21.5018 26.5481 21.5027H26.7014L27.0532 23.5195C25.3195 22.6402 24.0831 21.0689 23.7665 19.2389C23.7242 18.9986 23.5885 18.7848 23.3891 18.6442C23.1897 18.5036 22.9428 18.4476 22.7022 18.4885C22.4609 18.5295 22.2458 18.6647 22.1041 18.8643C21.9624 19.0638 21.9057 19.3114 21.9464 19.5528C22.5992 23.3264 26.1085 26.1189 30.2496 26.1189C34.3849 26.1189 37.884 23.3237 38.5474 19.5601C38.5687 19.4404 38.5662 19.3177 38.5399 19.1991C38.5137 19.0804 38.4643 18.9681 38.3946 18.8685C38.3249 18.769 38.2362 18.6842 38.1337 18.619C38.0311 18.5537 37.9167 18.5094 37.797 18.4885C37.6775 18.4675 37.555 18.4702 37.4366 18.4965C37.3181 18.5229 37.206 18.5724 37.1067 18.6421C37.0073 18.7117 36.9227 18.8003 36.8576 18.9027C36.7925 19.0051 36.7482 19.1194 36.7273 19.2389C36.4051 21.067 35.1656 22.6395 33.4334 23.5195L33.7888 21.5027H33.9385C34.1835 21.5037 34.4188 21.4073 34.5927 21.2348C34.7665 21.0623 34.8648 20.8278 34.8657 20.5828C34.8662 20.4609 34.8425 20.3402 34.7961 20.2275C34.7497 20.1147 34.6814 20.0123 34.5952 19.9262C34.509 19.84 34.4066 19.7716 34.2939 19.7252C34.1812 19.6788 34.0604 19.6552 33.9385 19.6556H31.6242C31.4701 19.3844 31.3446 18.9936 31.2724 18.4885C31.2172 18.1018 31.1921 17.6606 31.1804 17.1897C31.5277 17.2753 31.9279 17.3603 32.3566 17.4315C33.6989 17.6543 35.3507 17.8145 36.7201 17.0239C38.0895 16.2332 38.7854 14.7171 39.2636 13.4432C39.7418 12.1693 39.9508 11.0512 39.9508 11.0512C39.9919 10.8345 39.9541 10.6103 39.8443 10.4191C39.7344 10.2279 39.5598 10.0823 39.352 10.0086C39.352 10.0086 38.2735 9.63071 36.9312 9.40791C35.5888 9.18511 33.937 9.03397 32.5676 9.82461C31.9946 10.1555 31.5401 10.611 31.1696 11.1233V8.41041C31.2709 8.43025 31.3756 8.44834 31.4835 8.4662C32.3414 8.6085 33.4163 8.74346 34.4022 8.17407C35.388 7.60487 35.8138 6.60899 36.1194 5.79479C36.4251 4.98057 36.556 4.26683 36.556 4.26683C36.5977 4.04632 36.5578 3.81815 36.4436 3.62495C36.3294 3.43175 36.1488 3.28672 35.9354 3.21699C35.9354 3.21699 35.2611 2.99508 34.4148 2.86343C34.0181 2.80192 33.5777 2.74324 33.1196 2.74976H33.1196ZM33.2224 4.62756C33.5132 4.62473 33.8351 4.64173 34.1352 4.68907V4.69097C34.337 4.72244 34.3306 4.73515 34.4977 4.77229C34.4475 4.94237 34.4622 4.94921 34.3877 5.14755C34.144 5.79663 33.7099 6.43694 33.475 6.57257C33.24 6.70835 32.4669 6.75992 31.7829 6.64654C31.6166 6.61819 31.6282 6.60574 31.4835 6.57257C31.6183 5.82559 31.7187 5.08516 32.371 4.75784C32.5278 4.67904 32.8485 4.63366 33.2224 4.62799L33.2224 4.62756ZM25.2042 11.1143C25.9391 11.103 26.6107 11.1959 26.9973 11.419C27.6157 11.7761 28.3199 12.9348 28.7362 14.0436C28.9865 14.7104 29.0033 14.9094 29.097 15.2974C28.7139 15.4102 28.5297 15.495 27.8288 15.6112C26.6604 15.8054 25.3122 15.777 24.6937 15.4199C24.0753 15.0628 23.371 13.904 22.9548 12.7952C22.7057 12.1317 22.688 11.9369 22.594 11.5487C22.9767 11.4359 23.1586 11.3515 23.8621 11.2349C24.3003 11.1624 24.7633 11.1201 25.2042 11.1142V11.1143ZM35.0678 11.1143C35.5733 11.1087 36.1206 11.1503 36.6317 11.2351C37.3317 11.3513 37.5095 11.436 37.8926 11.5489C37.7986 11.9372 37.7807 12.1324 37.5319 12.7953C37.1156 13.9042 36.4186 15.0629 35.8001 15.42C35.1817 15.7771 33.8244 15.8051 32.656 15.6113C31.9566 15.4951 31.7783 15.4104 31.3951 15.2975C31.4889 14.9095 31.5058 14.71 31.7559 14.0438C32.1721 12.935 32.8691 11.7762 33.4876 11.4192C33.8355 11.2185 34.4178 11.1239 35.0678 11.1145V11.1143ZM18.3243 12.4004C18.2046 12.3976 18.0821 12.4146 17.9635 12.4619C16.0431 13.2033 14.1917 14.07 12.79 15.5772C11.3883 17.0844 10.5261 19.2235 10.5261 22.1632C10.5097 23.0863 10.739 24.03 10.8472 24.9592C10.8417 25.3691 10.7195 25.7704 10.4919 26.1119L8.33804 29.3498C7.51942 30.5778 8.44966 32.3226 9.92545 32.3226H10.8526V36.9387C10.8526 38.9681 12.5122 40.633 14.5415 40.633C14.5758 40.6326 14.6104 40.6302 14.6444 40.6273L19.1649 40.1277V43.4035C19.1649 44.4127 20.0028 45.2507 21.012 45.2507H32.0914C33.1007 45.2507 33.9388 44.4128 33.9385 43.4035V34.1714C33.9383 33.1323 34.6282 31.1645 35.2139 30.0603C35.7151 29.1152 36.0965 28.1005 36.3521 27.0334C36.4698 26.5385 36.1648 26.0416 35.6703 25.9222C35.1753 25.8045 34.6785 26.1093 34.5591 26.6041C34.3402 27.5178 34.0054 28.3849 33.576 29.1945C32.8787 30.5091 32.0909 32.4675 32.0914 34.1714V43.4035H21.012V39.9239L22.962 39.7076C23.4683 39.6489 23.8318 39.1911 23.7737 38.6847C23.7185 38.1786 23.2626 37.8137 22.7563 37.8676L14.5343 38.7804C13.5086 38.7748 12.6944 37.9677 12.6944 36.9404V32.3244C13.2073 32.3262 13.6236 31.9101 13.6216 31.3972C13.6198 30.8869 13.2046 30.4752 12.6944 30.4772H9.92543C9.82208 30.4772 9.81397 30.4601 9.87132 30.3745L12.0324 27.1366C12.4675 26.4839 12.6944 25.7186 12.6944 24.9341C12.7072 24.1491 12.4889 23.076 12.3805 22.1525C12.3842 19.5696 13.0582 18.0043 14.1393 16.8418C15.2232 15.6763 16.8 14.8978 18.6327 14.1903C19.1101 14.0049 19.3455 13.4652 19.1576 12.9888C19.0186 12.6336 18.6831 12.4135 18.3242 12.4026L18.3243 12.4004ZM28.572 21.5027H31.9128L31.442 24.1725C31.0561 24.2371 30.6577 24.27 30.2496 24.27C29.8364 24.27 29.4333 24.2351 29.0428 24.1708L28.572 21.5027Z" fill="#DA89B4"/>
</svg>
