<?xml version="1.0" ?><svg viewBox="0 0 1000 1000" xmlns="http://www.w3.org/2000/svg"><path d="m631.53 398.63c4.37-2.32 9.66-1.37 14.61-1.1a49.05 49.05 0 0 0 30-8.4c7.2-4.92 13-11.74 20.47-16.27a41.15 41.15 0 0 1 31.07-4.7c6.54 1.65 12.56 4.89 19 7s13.73 2.87 19.69-.28c6.9-3.64 10.44-11.68 17-15.92 4.91-3.19 11-3.92 16.85-4.16 6.19-.27 12.57-.06 18.3 2.3a25.55 25.55 0 0 1 10.13 39.71c-3 3.68-7 6.51-9.62 10.42-2.27 3.33-3.46 7.26-5.12 10.94-6.83 15.06-24 25.95-40.08 22.15-6.55-1.55-12.69-5.32-19.42-5.18-7.54.16-13.65 5.1-19.18 9.68-16.15 13.37-38.4 16.75-58.68 13.87a18.71 18.71 0 0 1 -9-3.59c-3.09-2.31-7.81-6.44-6.35-10.86"/><path d="m632 399.37c3.62-1.78 7.73-1.37 11.61-1a49.08 49.08 0 0 0 33.1-8c6.44-4.29 11.69-10.08 18-14.53a40.09 40.09 0 0 1 21.17-7.32 39.15 39.15 0 0 1 11.21 1.08 82.19 82.19 0 0 1 11.65 4.2c7.28 3 15 5.86 23 4.41 7.21-1.3 11.67-6.62 16.23-11.84a28.74 28.74 0 0 1 7.39-6.56 27.07 27.07 0 0 1 10.64-2.89c7.59-.74 16.23-.94 23.2 2.6a23.62 23.62 0 0 1 8.73 34.8c-2.11 3-5 5.39-7.58 8.06a31.51 31.51 0 0 0 -6.18 9.81 63.14 63.14 0 0 1 -4.54 9.54 38.75 38.75 0 0 1 -6.18 7.46 36.27 36.27 0 0 1 -16.78 9.13 28.9 28.9 0 0 1 -9.32.53 43.91 43.91 0 0 1 -10.4-2.94 38.36 38.36 0 0 0 -11.28-2.81 22.31 22.31 0 0 0 -10.67 2.41c-6.5 3.15-11.46 8.65-17.59 12.4a65.33 65.33 0 0 1 -19.89 7.83 83 83 0 0 1 -21.27 1.78 68.29 68.29 0 0 1 -10.59-1 18.83 18.83 0 0 1 -8.9-4.56c-2-1.76-4.58-4.33-3.72-7.25.7-2.33-2.94-3.33-3.63-1-1.05 3.51.64 6.77 3 9.33a24.43 24.43 0 0 0 8.59 6.16c3.55 1.46 7.53 1.77 11.32 2.09a88.29 88.29 0 0 0 11.15.26c15-.58 30-5 42-14.32 5.62-4.4 11.41-10 19-10.1 4-.07 7.79 1.34 11.48 2.7a48.45 48.45 0 0 0 11.13 3c13.85 1.64 27.39-6.47 35.13-17.56a48.51 48.51 0 0 0 5-9.62c1.5-3.69 3.08-7.17 5.83-10.11s5.69-5.38 8-8.55a27.61 27.61 0 0 0 .77-31.4 28.3 28.3 0 0 0 -17.93-12 53.79 53.79 0 0 0 -12.73-.8 51.09 51.09 0 0 0 -12 1.56 24.16 24.16 0 0 0 -9.79 5.35 88 88 0 0 0 -6.93 7.63c-2.25 2.55-4.7 5-7.85 6.41a20.77 20.77 0 0 1 -11.41 1.16c-8.47-1.27-15.93-5.86-24.12-8.09a42.58 42.58 0 0 0 -23.24.33c-7.74 2.31-14 6.95-20 12.23-6.16 5.44-12.24 10.7-20 13.71a48.19 48.19 0 0 1 -11.7 3 74 74 0 0 1 -12 .16c-3.76-.17-7.54-.13-11 1.65-1 .52-.12 2 .86 1.48z"/><path d="m593.58 542.78c-2.85-8.3-7.93-24.93-13.62-34.13-32.15-51.92-54.53-109.26-73.68-167.26-1.44-4.37-2.76-9.56 0-13.28 1.1-1.51 2.8-2.61 3.47-4.35 1.72-4.44-4.21-9.35-2.17-13.64 1.18-2.49 4.36-3.15 7.1-3.5l13.47-1.73c2.48-.32 1-.62 2.78 1.15.8.81 1.31 5.17 1.89 6.14 1 1.63 2 .66 3.3 2 10.89 10.82 16.71 24.6 21.34 39 2.42 7.5 4.24 15.1 7.48 22.31 10 22.25 19.49 45.05 31.91 66.09 3.15 5.42 8.15 14.85 13.23 18.54 5.33 3.86 9.49 6.67 13.76 11.79.53.63 17.76-.88 18.16-.16 4.06 7.28-14.54.79-6.89 4.09 2.1.9-8.51 0-6.63 1.31 6.21 4.23 6.09 13.61 3.18 20.54"/><path d="m594.45 542.54c-2.68-8-5.13-16.09-8.34-23.91-3.7-9.06-9.15-17.16-14-25.66a638.28 638.28 0 0 1 -29.64-59.69c-8.92-20.43-16.9-41.25-24.36-62.24-3.67-10.34-7.39-20.71-10.65-31.19a21 21 0 0 1 -1.2-6.87c.1-2.53 1.33-4.05 3-5.82a7.36 7.36 0 0 0 2.34-5.56 16.6 16.6 0 0 0 -1.73-5.52c-.64-1.46-1.61-3.37-1-5 .64-1.83 2.84-2.37 4.53-2.69 5.3-1 10.76-1.13 16.06-2.13.91-.17-.7 0-.87-.6a3.35 3.35 0 0 0 .58.8 2.72 2.72 0 0 1 .86 1.47c.45 1.55.56 3.3 1.27 4.77a3.81 3.81 0 0 0 2 1.91c.32.12.66.17 1 .28a3.85 3.85 0 0 1 1.46 1.14 64.21 64.21 0 0 1 4.89 5.66c6 7.91 10.15 17 13.43 26.37 1.79 5.09 3.29 10.27 4.85 15.43a134.55 134.55 0 0 0 5.94 15.79c9.23 20.79 18.12 41.81 29.55 61.52 2.25 3.87 4.42 7.81 6.87 11.56s5 7.09 8.49 9.64a74.14 74.14 0 0 1 11.16 9.21c1.09 1.16 1.77 2.41 3.44 2.56a24.5 24.5 0 0 0 2.71 0c2.9-.07 5.8-.25 8.69-.37 1.3-.05 2.6-.11 3.9-.12h1.38.48c-.43-.05 0 .07-.25-.06s-.59-.43-.62-.4.14.5.07.15a5.32 5.32 0 0 0 .16.57c-.1-.28 0-.24 0-.09 0 .34-.07-.17 0-.08s0 .69.06-.09c0 .26.15-.21.07-.07s.29-.13-.1.07c-.21.11.32-.06-.11.05l-.57.13c-.1 0-.42.06 0 0h-.44a20.9 20.9 0 0 1 -2.85-.11l-.62-.07-.49-.06-1-.15a3.69 3.69 0 0 0 -2.37.11 1.86 1.86 0 0 0 .15 3.24 6.9 6.9 0 0 0 .86.43 5.17 5.17 0 0 0 .64.28 2 2 0 0 0 .28.12q1.3.75.12-2.79l.3-.13c-.24.16-.24 0-.07 0h-.65c-.55 0-1.1 0-1.65.06-1.73 0-6.2-.31-5.82 2.54a2.19 2.19 0 0 0 1.05 1.53 9.89 9.89 0 0 1 2 1.92 11.71 11.71 0 0 1 2.09 5.31 22.2 22.2 0 0 1 -1.57 11.38 1.59 1.59 0 0 0 1.11 1.94 1.63 1.63 0 0 0 2-1.1 24.17 24.17 0 0 0 1.95-12.36 16 16 0 0 0 -1.86-5.87 13.09 13.09 0 0 0 -1.74-2.38 10.84 10.84 0 0 0 -1-1c-.2-.16-.4-.32-.61-.47s-.26-.2-.39-.3-.18-.12.08.07v2.19l-.25.21-.27.11h.14a1.36 1.36 0 0 1 .29-.06c-.06 0-.4 0-.05 0 .56-.07 1.13-.09 1.69-.11 1.12 0 2.25 0 3.38-.1s2.86-.54 2.64-2.21c-.16-1.28-1.41-1.61-2.41-2.08a2 2 0 0 0 -.32-.17c-.27-.09.08 0 0 0l.14.11q-1.11-1-.78 2.82c-.16.13-.53 0-.24.06a2 2 0 0 0 .42 0c.37 0-.43-.06.09 0l.49.07 1.74.24a12.18 12.18 0 0 0 5.76-.25c2.47-.95 2.9-3.74 1.5-5.84-1.09-1.63-4.16-1.08-5.81-1-3 .1-6 .28-9.07.4-1.16 0-2.34.1-3.51.08h-.56c-.34 0-.37-.19 0 0-.45-.26.46.41.52.37s-1.47-1.68-1.56-1.78a72.86 72.86 0 0 0 -11.16-9.27 33.84 33.84 0 0 1 -8.64-9.81c-11.84-18.62-21.11-38.78-30.1-58.88q-3.54-7.94-7.1-15.88a132.57 132.57 0 0 1 -5.73-16.47c-3-9.95-6.34-19.9-11.36-29a75 75 0 0 0 -8.63-12.15c-.81-1-1.64-1.89-2.5-2.79a8.64 8.64 0 0 0 -2.9-2.38c-.59-.23-1.32-.3-1.51-.71a11.4 11.4 0 0 1 -.6-2.4c-.18-.77-.35-1.56-.6-2.31a7 7 0 0 0 -1.36-2.18 3.9 3.9 0 0 0 -1-1.13 2.92 2.92 0 0 0 -2.06-.05c-5.38.92-10.93 1.06-16.27 2.18a8.8 8.8 0 0 0 -5.53 3.07 6.6 6.6 0 0 0 -.94 5.43c.73 3.31 4.35 7.36 1.64 10.54-1.58 1.84-3.22 3.28-3.92 5.7a15.08 15.08 0 0 0 0 7.1 60.3 60.3 0 0 0 2.19 7.4q1.35 4.05 2.71 8.08c7.28 21.54 15.06 42.91 23.74 63.93a669.88 669.88 0 0 0 28.72 61.37c5.32 9.92 10.92 19.71 16.88 29.26 4.9 7.84 8.25 16.32 11.32 25 1.26 3.56 2.45 7.14 3.71 10.7.38 1.08 2.09.63 1.73-.48z"/><g fill="#fff"><path d="m511.89 311.71a24.14 24.14 0 0 0 10.69-3.83 13.16 13.16 0 0 0 4.61-4.74 12.87 12.87 0 0 0 1-7.42 22.64 22.64 0 0 0 -14.09-18c-1.31-.5-2.91-.83-4 0-.53.41-.9 1.06-1.53 1.25a2.87 2.87 0 0 1 -1.73-.31 13.8 13.8 0 0 0 -9.1.21c-2.85.94-5.73 2.74-6.56 5.61a9.55 9.55 0 0 0 -.08 4 25.46 25.46 0 0 0 6.11 13.11"/><path d="m511.89 312.58a20.56 20.56 0 0 0 10-2.9c2.88-1.61 5.58-3.84 6.83-7 2.38-5.94-.11-13.4-3.77-18.28a24.52 24.52 0 0 0 -6.6-6.12c-2.38-1.49-6.15-3.56-8.89-1.87-.43.26-1 1.11-1.43 1.17s-1-.34-1.28-.45a10.68 10.68 0 0 0 -1.48-.37 15.85 15.85 0 0 0 -5.41 0c-3.11.54-6.51 1.86-8.59 4.33-2.69 3.18-2.11 7.38-1 11.11a24.63 24.63 0 0 0 5.85 10.48c1.17 1.16 3.42-.42 2.37-1.82a30 30 0 0 1 -4.67-7.9c-.9-2.5-2.08-6.1-.92-8.67 1.08-2.39 3.91-3.61 6.28-4.26a13.47 13.47 0 0 1 4.64-.51c1.59.12 3.15 1.15 4.73.93a3 3 0 0 0 1.6-.75c.44-.38.73-.88 1.32-1 1.19-.29 2.87.64 3.9 1.15a21.32 21.32 0 0 1 6.29 4.83c3.46 3.86 5.82 9.34 5.32 14.6-.34 3.55-2.62 6-5.53 7.87a24.49 24.49 0 0 1 -4.67 2.32c-1.68.61-3.4.91-5.12 1.36a.88.88 0 0 0 .24 1.71z"/><path d="m613.79 604.58q-21.59 43.78-40.22 88.93c-8 19.44-15.63 39.12-20.65 59.54-4.11 16.76-6.44 33.91-8.35 51.07a1079.27 1079.27 0 0 0 -6.57 133.06c.11 9.4-.18 20.1-7.25 26.31-1.48 1.3-3.23 2.37-4.29 4s-1.06 4.25.62 5.27a5.38 5.38 0 0 0 2.67.53q23.12.46 46.22-1.08c2.1-.14 4.34-.34 6-1.63s2.42-3.37 3-5.37c4.41-14.33 5.18-29.48 7.23-44.34 7.43-53.73 31.85-105 31.38-159.25 0-5.17-.3-10.42.93-15.44 1.16-4.72 3.59-9 6-13.25 11.4-20.35 22.24-41.25 28.6-63.69s8-46.73 1.06-69"/></g><path d="m571.83 925.07c-.7-3-1.41-6-2.11-9l-31.74.26c-.05 7-.05 13.91 0 20.87.11 9.4-.18 20.1-7.25 26.31-1.48 1.3-3.23 2.36-4.29 4s-1.06 4.25.62 5.27a5.38 5.38 0 0 0 2.67.53q23.12.46 46.22-1.08c2.1-.14 4.34-.34 6-1.63s2.42-3.37 3-5.37c4.41-14.33 5.18-29.48 7.23-44.34.21-1.47.43-2.95.66-4.42a8.92 8.92 0 0 0 -1.16-.06c-7.68-.02-17.42 1.27-19.85 8.66z" fill="#18c4ff"/><path d="m612.93 604.08q-19 38.19-35.71 77.45c-10.88 25.67-21.53 51.63-27.37 79-3 13.79-4.84 27.79-6.43 41.79q-2.46 21.71-4 43.48-3.17 43.59-2.81 87.33c.05 5.82.35 11.76-.73 17.51a24.79 24.79 0 0 1 -2.52 7.44 20.58 20.58 0 0 1 -5.39 5.92c-1.94 1.59-3.64 3.54-3.59 6.19a4.41 4.41 0 0 0 3.68 4.4c3.26.6 6.9.23 10.2.24 3.55 0 7.09 0 10.64-.09q10.83-.18 21.64-.82c5.64-.33 12.25.22 14.9-5.82s3.56-12.91 4.56-19.27c1.07-6.72 1.78-13.49 2.58-20.25 3.17-26.85 10.39-52.83 17.48-78.86 6.93-25.41 13.53-51.18 14.84-77.6.34-6.77-.16-13.6.34-20.36.53-7 3.74-12.89 7.1-18.92 6.55-11.81 12.91-23.75 18.32-36.13 10.64-24.34 17.72-51 14.78-77.72a103.6 103.6 0 0 0 -3.93-19.08c-.53-1.71-3.24-1-2.7.74 7.9 25.6 4.42 53.1-4.21 78a269.35 269.35 0 0 1 -16.02 36.35c-3 5.79-6.17 11.5-9.38 17.18s-6 11.08-6.81 17.5-.15 13.2-.36 19.76-.75 13-1.55 19.45a340.67 340.67 0 0 1 -7.37 38.39c-6.15 25.24-14 50.07-19.1 75.56-2.59 12.94-3.92 26-5.61 39a149.29 149.29 0 0 1 -3.85 20.33c-.75 2.71-1.4 6.5-4.18 7.88s-6.84 1-9.88 1.18q-10.44.57-20.9.72-5.33.07-10.65 0c-1.71 0-3.42 0-5.14 0s-3.78.3-5.31-.17c-3.74-1.14.8-5.3 2.14-6.37a20.17 20.17 0 0 0 4.87-5.5c2.61-4.43 3.48-9.66 3.79-14.72.39-6.12.07-12.28.05-18.41q0-10.74.15-21.48.35-21.11 1.52-42.18c1.57-28.28 3.86-56.72 8.26-84.72a288.87 288.87 0 0 1 9.2-40.38c4-13 8.83-25.7 13.92-38.29 10.43-25.78 21.66-51.25 33.5-76.41q4.32-9.17 8.75-18.27c.56-1.14-1.14-2.14-1.71-1z"/><path d="m646.29 605.8a657.35 657.35 0 0 0 -35.2 109.32c-5 21.84-8.85 44.33-6.27 66.58 2.34 20.18 9.88 39.34 17.38 58.22 15.09 38 30.51 76.32 54.43 109.44 1.1 1.51 2.26 3.15 2.3 5 .08 3.67-3.86 5.86-6.9 7.91s-5.71 6.58-3 9a6.76 6.76 0 0 0 3.28 1.29 129.11 129.11 0 0 0 46.75.5c1.62-.28 3.37-.67 4.4-1.94a6.82 6.82 0 0 0 1.13-3.95c1.27-20-5.21-39.58-9.47-59.17-9.77-44.9-8.68-93.86-33-132.87-1.41-2.27-2.94-4.63-3.09-7.3a14.84 14.84 0 0 1 1.5-6.25c10.14-25.2 21.6-49.94 29.36-76s11.71-53.78 6.43-80.42c-1.38-7-5.11-15.25-12.21-15.37" fill="#fff"/><path d="m719.08 973.11c1.62-.28 3.37-.67 4.4-1.94a6.82 6.82 0 0 0 1.13-3.95c1.26-19.8-5.07-39.16-9.33-58.54-3.45.47-6.95 1.17-9.65 3.33-3 2.42-4.41 7.36-1.79 10.22-4.08-.49-4.24-7.06-7.91-8.91a8.13 8.13 0 0 0 -4-.54 110.89 110.89 0 0 0 -33.93 6.91 291.84 291.84 0 0 0 18.66 29.67c1.1 1.51 2.26 3.15 2.3 5 .08 3.67-3.86 5.86-6.9 7.91s-5.71 6.58-3 9a6.76 6.76 0 0 0 3.28 1.29 129.11 129.11 0 0 0 46.74.55z" fill="#18c4ff"/><path d="m623.81 664.3q-6.57 20.33-11.66 41.07c-3.33 13.65-6.41 27.44-8.12 41.41a143.82 143.82 0 0 0 .43 41.64c2.26 13.45 6.63 26.43 11.47 39.15 9.37 24.63 19.17 49.27 30.61 73a361.91 361.91 0 0 0 18.85 34.55c3.46 5.54 7.38 10.75 10.91 16.22 3.9 6-4.06 8-7.25 11.63s-3.86 9 1.44 10.65a57.83 57.83 0 0 0 9.81 1.69c3.4.44 6.82.75 10.24.92a129.27 129.27 0 0 0 20.91-.65 61 61 0 0 0 9.63-1.49 6.09 6.09 0 0 0 4.68-4.73c.67-3.11.47-6.58.38-9.75-.09-3.36-.38-6.71-.8-10-.86-6.71-2.22-13.35-3.74-19.94-3-12.81-6.18-25.5-8.37-38.47-4.11-24.29-6.26-49-12.25-72.89a164.53 164.53 0 0 0 -12.1-33.71q-2.07-4.15-4.43-8.13c-1.51-2.53-3.65-5.14-4-8.14-.43-3.3 1.56-6.77 2.76-9.73q1.94-4.71 3.89-9.42c10.59-25.45 21.76-50.9 28-77.85a181.42 181.42 0 0 0 5-40.38 143 143 0 0 0 -1.36-20c-.76-5.35-1.63-10.84-4.34-15.61-2.2-3.87-5.61-6.67-10.19-6.87-1.85-.09-1.84 2.79 0 2.87 4.87.22 7.83 5 9.38 9.12 2.12 5.55 2.81 11.75 3.38 17.62a153.36 153.36 0 0 1 -1.81 40.19c-4.45 26.33-14.27 51.3-24.47 75.83-2.56 6.16-5.16 12.32-7.71 18.48-1.28 3.12-2.59 6.23-3.81 9.37-1 2.62-1.73 5.33-1 8.12.72 2.61 2.38 4.87 3.76 7.16q2.31 3.84 4.34 7.83a137.76 137.76 0 0 1 7 16.3c8 22.3 11 46 14.32 69.3 1.69 11.9 3.4 23.8 5.85 35.57 2.7 13 6.48 25.69 8.53 38.78a105.58 105.58 0 0 1 1.37 20.09c-.06 1.5.09 3.58-.72 4.92s-2.54 1.54-3.89 1.78c-3.37.61-6.78 1-10.19 1.33a129.47 129.47 0 0 1 -20.18.2c-3.53-.24-7.06-.62-10.56-1.16-1.58-.25-3.15-.51-4.71-.82s-3.51-.56-3.72-2.36c-.28-2.42 2.27-4.65 4-5.83a22.23 22.23 0 0 0 5.4-4.38c3.77-4.84-.51-9.45-3.32-13.48a306.15 306.15 0 0 1 -19.66-32.48c-12-22.68-21.65-46.5-31.14-70.31-4.86-12.19-9.79-24.39-13.49-37a136.26 136.26 0 0 1 -5.85-40.11c.17-13.84 2.31-27.58 5.06-41.12s6-26.72 9.58-39.93q2.65-9.79 5.63-19.51c.35-1.14-1.42-1.61-1.78-.49z"/><path d="m688.77 467a200.84 200.84 0 0 1 -76.09 4.55c-4.39-.59-9.17-1.23-12.95 1.28-2.28 1.52-3.87 4-5.19 6.53-5.57 10.73-7.3 23.49-6.44 35.8s4.17 24.26 8.16 35.81c2.09 6.06 4.4 12.19 4.64 18.67.36 9.52-2 17.76 3.7 25.93 5 7.15 12.46 12 20.22 14.6 14.69 5 30.93 4.29 46 2.51 16.75-2 52.92-6.6 53-31.73a58.16 58.16 0 0 0 -1.19-9.29c-4.86-30.24 11-61.68 3.85-91.37-1.26-5.23-3.34-10.42-7-14-7.76-7.62-20.29-5.84-29.13.22"/><path d="m688.54 466.18a208 208 0 0 1 -60.6 5.49c-5.1-.31-10.19-.79-15.26-1.47-4.15-.55-8.5-1.08-12.42.77s-6.22 6-8 9.85a59.65 59.65 0 0 0 -4.26 12.92c-4 19.27.44 38.91 6.71 57.19a101 101 0 0 1 4.29 14.07c.82 4.45.52 9 .38 13.46-.13 4.08-.08 8.26 1.21 12.18a27.54 27.54 0 0 0 6.91 10.6c13.14 13.22 33.58 15 51.21 14 6.76-.39 13.51-1.18 20.22-2.14a136.11 136.11 0 0 0 16.36-3.28c10.33-2.84 22-7.68 27.31-17.67a23.45 23.45 0 0 0 2.5-7.9c.55-4.16-.22-8.18-.91-12.27-1.54-9.09-1.12-18.39 0-27.51 2.13-18.2 7.13-36.42 5.36-54.87-.8-8.36-2.66-18-8.79-24.23-5.45-5.53-13.54-6.63-20.84-4.81a32.05 32.05 0 0 0 -10.21 4.66c-1.55 1.05-.09 3.59 1.48 2.53 5.83-3.94 13.55-6.29 20.51-4.34 8.1 2.27 11.86 10.09 13.64 17.69 4.09 17.44.17 35.45-2.52 52.78-1.36 8.73-2.54 17.54-2.43 26.4a82.89 82.89 0 0 0 1.21 13.16c.66 3.77 1.28 7.53.59 11.34-1.92 10.67-11.71 16.77-21.17 20.22-9.63 3.51-19.84 5-30 6.23a144.91 144.91 0 0 1 -27.85 1.07c-8.72-.65-17.7-2.51-25.38-6.86-6.94-3.94-13.6-10.22-15.13-18.35-.74-3.89-.43-7.91-.31-11.83a49.52 49.52 0 0 0 -1.14-13.26c-1.08-4.57-2.78-9-4.27-13.41s-2.94-9.13-4.12-13.78a101.36 101.36 0 0 1 -3.48-28 62.63 62.63 0 0 1 6-25.93c1.87-3.77 4.19-7.35 8.6-8.21 4.22-.83 8.81.35 13 .81a196.66 196.66 0 0 0 58-2.34q7.08-1.35 14-3.25a.88.88 0 0 0 -.47-1.7z"/><path d="m727.76 509.28c4.55-39.57-7-87-21.25-116.28-5.28-10.8-11.44-21.13-17.08-31.74-8.25-15.52-22-46.29-29.33-62.29-6.68-14.67-13.2-12.05-16.1-18.65-6.92-15.8-17.11-11.16-22.57-8.09a11.12 11.12 0 0 0 -4.95 12.77c.39 1.19 1 2.29 1.34 3.49.69 2.31.46 4.77.37 7.18-.81 20.06 8 39.12 16.53 57.27l25.06 53c8.14 17.23 18.24 34.83 19.88 54.21.45 5.3-6.78 7.37-10.73 9.2-1.16.54-10.41 3.95-9.62 5.91"/><path d="m728.76 509.28c2.27-18.4 1.08-37.08-2-55.32a237.57 237.57 0 0 0 -14.24-51c-6.92-16.89-16.82-32.26-25-48.54-7.17-14.28-13.76-28.85-20.38-43.39l-4.33-9.55a54.41 54.41 0 0 0 -5.6-10.48 26.67 26.67 0 0 0 -6.35-6c-1.62-1.12-3.38-2.05-4.56-3.63a31.26 31.26 0 0 1 -2.23-4.3 24.24 24.24 0 0 0 -3.37-4.84 13.41 13.41 0 0 0 -7.48-4.35c-4.65-.78-10 1.07-13.69 3.85a12.83 12.83 0 0 0 -5 9.91c0 2.33.77 4.24 1.58 6.37.89 2.35.74 4.76.63 7.22-.43 10.13 1.51 20.17 4.65 29.77s7.39 18.77 11.69 27.88q7.08 15 14.19 30c4.55 9.65 9 19.33 13.7 28.93 4.29 8.81 8.74 17.58 12.11 26.79a96.75 96.75 0 0 1 4.05 14.12 65 65 0 0 1 1 7.22 4.24 4.24 0 0 1 -1.44 3.68c-2.29 2.17-5.6 3.11-8.41 4.39l-.15.07-.54.22-1.59.7c-1.34.57-2.67 1.15-4 1.82-1.67.86-4.95 2.5-4.2 4.9.57 1.86 3.5 1.06 2.92-.81.08.26-.25.58.2.16a8.39 8.39 0 0 1 1.29-.92 35.36 35.36 0 0 1 3.79-1.91c2.06-.92 4.16-1.77 6.24-2.66 2.87-1.22 6-2.62 7.81-5.32a6.85 6.85 0 0 0 1-4.5 71.5 71.5 0 0 0 -1-7.15c-1.79-9.44-5.35-18.44-9.33-27.15-4.07-8.91-8.5-17.66-12.69-26.51l-13.8-29.22c-4.49-9.51-9.1-19-13.39-28.57-4-9.06-7.66-18.39-9.69-28.13a72.55 72.55 0 0 1 -1.58-14.62c0-2.49.3-5 .11-7.48a13 13 0 0 0 -.63-3.27c-.42-1.25-1.06-2.42-1.38-3.7a9.69 9.69 0 0 1 3.46-9.76 19.47 19.47 0 0 1 5.84-2.86 11.32 11.32 0 0 1 6.49-.34 12.4 12.4 0 0 1 6.69 5.43c1.73 2.59 2.54 5.79 4.83 8a49.41 49.41 0 0 0 5.19 3.77c5.62 4.11 8.2 10.7 11 16.83 6.47 14.25 12.91 28.5 19.7 42.6 3.25 6.72 6.61 13.37 10.2 19.92 5 9 10.15 18 14.61 27.28a222.87 222.87 0 0 1 15.91 47.11 225.87 225.87 0 0 1 5.93 54.39c-.1 4.34-.36 8.68-.81 13-.13 1.29 1.85 1.26 2 0z"/><path d="m635.11 468 2.33 15.61a2.48 2.48 0 0 0 .3 1 2.42 2.42 0 0 0 1.73.86 30.67 30.67 0 0 0 23.9-5.84 6.17 6.17 0 0 0 2.29-2.78 6.9 6.9 0 0 0 -.24-3.62 156.59 156.59 0 0 1 -4.25-29.07" fill="#fff"/><path d="m617.89 420c.44-2.46 1.06-20.14 20.07-19.9a31 31 0 0 1 19.51 7.53 52.88 52.88 0 0 1 4.82 4.65c16.34 17.79-2.76 55.06-27.87 55.22-15.73.1-18.63-15.49-18.78-28.22-.07-6.44 1.09-12.87 2.25-19.28z" fill="#fff"/><path d="m634.42 466.27a15.23 15.23 0 0 1 -10.19-3.38 18.88 18.88 0 0 1 -5.2-8.37c-2.73-8.23-2.54-17.52-1.3-26 .4-2.75.94-5.47 1.39-8.21l.12-.86c0-.18.12-.92.09-.72a31.08 31.08 0 0 1 1.22-5.55c1.75-5.32 5.53-9.52 11-11a26.09 26.09 0 0 1 15.29.84c5.75 2 10.45 5.8 14.54 10.22 1.11 1.2 2.9-.6 1.79-1.79a40.1 40.1 0 0 0 -13.44-10 30.31 30.31 0 0 0 -15.39-2.35 18.61 18.61 0 0 0 -15.24 10.9 28.24 28.24 0 0 0 -2 6.79c-.14.84-.25 1.69-.36 2.54 0 .07-.06.46 0 .22s0 .07 0 .13c-.28 1.61-.58 3.22-.85 4.84-1.62 9.58-2.33 19.7.31 29.19a22.63 22.63 0 0 0 6 10.73 17.72 17.72 0 0 0 12.28 4.39 1.27 1.27 0 0 0 0-2.53z"/><path d="m629.65 430.47c-.37 1.32-.76 2.64-1.19 3.95-.07.22-.14.19.08.13.38-.1-.08 0-.15 0-.38.15.05 0-.25.08a3.1 3.1 0 0 0 -.58.28 5 5 0 0 0 -1.54 1.38 4.38 4.38 0 0 0 -.67 3.75 4.82 4.82 0 0 0 1 1.8 4.57 4.57 0 0 0 .8.72l.26.17c.26.17 0 0-.07-.12a1.69 1.69 0 0 0 2.92-1.71 3.62 3.62 0 0 0 -.73-.78l-.36-.26s-.27-.17-.15-.08-.38-.46-.23-.23a2.54 2.54 0 0 1 -.16-.28 1.08 1.08 0 1 0 0-.12s-.08-.34-.05-.18 0-.27 0-.27 0-.24 0-.07c0-.11.05-.22.08-.33a1.29 1.29 0 0 1 .48-.62 3 3 0 0 0 1.24-1.38 6.87 6.87 0 0 0 .39-1.48c.21-1.31.41-2.62.67-3.92a.9.9 0 0 0 -1.73-.47z"/><path d="m661.22 435.12a1.85 1.85 0 0 0 -1.62-.81 2.74 2.74 0 0 0 -1 .26 2.55 2.55 0 0 0 -.67.5 3.76 3.76 0 0 0 -.52.67 3.1 3.1 0 0 0 -.29.5 2 2 0 0 0 -.17.46 1.75 1.75 0 0 0 0 .82 1.42 1.42 0 0 0 .37.65 1.48 1.48 0 0 0 .58.34 1.3 1.3 0 0 0 .73 0 1.45 1.45 0 0 0 .86-.75 2 2 0 0 0 .23-.59 2.73 2.73 0 0 0 .07-.64s0-.05 0-.08a.94.94 0 0 0 -.11-.5 1 1 0 0 0 -.28-.43 1.43 1.43 0 0 0 -.63-.37 1.24 1.24 0 0 0 -1.2.32 1.83 1.83 0 0 0 -.23.29 1.43 1.43 0 0 0 -.19.69 4.89 4.89 0 0 0 .09.53v-.35a1.41 1.41 0 0 1 0 .29v-.34a2.68 2.68 0 0 1 -.07.27l.12-.3-.06.13 1.08-.62h-.05l.33.05.3.12.25.19.19.25v-.06l.13.29a.2.2 0 0 1 0-.11v.33-.16.32a2 2 0 0 1 .18-.52l-.12.28a2.53 2.53 0 0 1 .35-.62l-.18.22a2.13 2.13 0 0 1 .3-.3l-.22.16a1.11 1.11 0 0 1 .3-.17l-.25.1a1.82 1.82 0 0 1 .46-.11h-.27.27-.25l.2.05-.21-.09.14.07a.88.88 0 0 0 1.05-.13 1.29 1.29 0 0 0 .23-.39.88.88 0 0 0 -.09-.67z"/><path d="m635.71 447.18a6.53 6.53 0 0 1 -1 .51l.22-.09a7.4 7.4 0 0 1 -1.8.5 1 1 0 0 0 -.61.46 1.08 1.08 0 0 0 -.1.79 1 1 0 0 0 1.25.71 8.1 8.1 0 0 0 2.94-1.3 1.09 1.09 0 0 0 .42-.55.9.9 0 0 0 -.1-.7.92.92 0 0 0 -1.24-.33z"/><path d="m647.25 424.21a18.69 18.69 0 0 0 -3.62-2 18.27 18.27 0 0 0 -2.1-.77c-.34-.1-.68-.18-1-.25a4.56 4.56 0 0 0 -1.21-.15 1.14 1.14 0 0 0 -.3 2.23 4.86 4.86 0 0 0 1 .21l.89.2a18.71 18.71 0 0 1 2 .53 17.09 17.09 0 0 1 3.46 1.64.94.94 0 0 0 1.26-.33 1 1 0 0 0 -.33-1.27z"/><path d="m623.63 430h-.26.1-.27a1.26 1.26 0 0 0 .33.05h-.29.07l-.26-.11-.23-.17-.17-.23s0 0 0 0l-.11-.27s0 0 0 .06v-.31.06-.31s0 0 0 .05l.11-.28.19-.23.24-.19a1.18 1.18 0 0 0 -.43.43 1.11 1.11 0 0 0 -.16.59v.32a1.15 1.15 0 0 0 .31.52.82.82 0 0 0 .38.25.89.89 0 0 0 .46.1 1.11 1.11 0 0 0 .59-.16 1.26 1.26 0 0 0 .43-.43c0-.1.09-.19.12-.29a0 0 0 0 0 0 0s0-.28 0-.32a2 2 0 0 0 0-.34 1.94 1.94 0 0 0 -.13-.3s0 0 0 0l-.18-.23a.67.67 0 0 0 -.14-.11l-.14-.11a1.34 1.34 0 0 0 -.62-.17h-.07-.29-.05a1.45 1.45 0 0 0 -.26.11c.24-.13-.15.11-.22.17l-.17.22s0 0 0 0-.07.17-.11.25a.89.89 0 0 0 0 .51.88.88 0 0 0 .24.43 1 1 0 0 0 .43.25 1.1 1.1 0 0 0 .51 0z"/><path d="m639.56 431.74h-.26.1-.28.05a1.33 1.33 0 0 0 .34.05h-.29.07l-.27-.11h.05l-.22-.17-.18-.23a.08.08 0 0 1 0 0l-.11-.27a.11.11 0 0 1 0 .05v-.3a.06.06 0 0 1 0 .06v-.31a.11.11 0 0 1 0 .05l.12-.28.18-.24s0 0 0 0l.24-.19a1.13 1.13 0 0 0 -.42.42 1.19 1.19 0 0 0 -.17.6l.05.32a1.1 1.1 0 0 0 .3.52.93.93 0 0 0 .38.25.91.91 0 0 0 .46.1 1.17 1.17 0 0 0 .6-.16 1.26 1.26 0 0 0 .43-.43c0-.1.09-.19.13-.29s0-.28 0-.32a1.86 1.86 0 0 0 0-.34 2.71 2.71 0 0 0 -.13-.3l-.18-.23a.42.42 0 0 0 -.13-.11l-.14-.11a1.38 1.38 0 0 0 -.63-.17h-.06-.29-.06l-.26.11c.24-.12-.16.12-.22.18a1.84 1.84 0 0 0 -.17.22c0 .08-.07.16-.1.25a1.1 1.1 0 0 0 0 .51 1 1 0 0 0 .25.43 1 1 0 0 0 .42.25 1.14 1.14 0 0 0 .52 0z"/><path d="m621.14 423.54c.22-.12.45-.23.68-.33l.2-.08.26-.1a11.31 11.31 0 0 1 1.39-.46q.35-.09.69-.15s.45-.06.18 0h.33.71.42a1.77 1.77 0 0 0 .71-.21 1 1 0 0 0 0-1.8 3.15 3.15 0 0 0 -2-.12 9.92 9.92 0 0 0 -1.62.34 9.67 9.67 0 0 0 -1.57.62 8.91 8.91 0 0 0 -1.44 1 .89.89 0 0 0 -.07 1.18.9.9 0 0 0 1.16.23z"/><path d="m654.83 432.26a5.48 5.48 0 0 1 6.84-2.14 6.55 6.55 0 0 1 3.62 6.43 8.19 8.19 0 0 1 -4.21 6.27c-.69.39-1.51.79-1.68 1.55a2.45 2.45 0 0 0 .15 1.25 9.06 9.06 0 0 0 1.56 3.32c.81.92 0 1.36 1.18.89s.76-1.31 1.18-2.45c1.35-3.7 5.71-7.69 7.06-11.39a51 51 0 0 0 1.71-5.25 25.32 25.32 0 0 0 -13.24-28.69c-2.77-1.38-6.07-2.24-8.92-1.05a2.16 2.16 0 0 1 -.74.21 1.88 1.88 0 0 1 -1.15-.7c-4-4-10.39-5-16-3.79s-10.55 4.28-15.19 7.58a14.09 14.09 0 0 0 -4.16 3.86 4.16 4.16 0 0 0 -.37 4.26c1.08 1.73 3.55 1.79 5.57 1.49a42.71 42.71 0 0 0 14.75-5.05c-.91.64-1.93 1.5-1.82 2.61s1.33 1.78 2.44 2c2.69.46 5.39-.67 7.7-2.11s4.42-3.22 6.91-4.32a11.6 11.6 0 0 0 2.87 11.88c1.52 1.45 3.47 2.53 4.48 4.37 1.48 2.71.42 6.05-.67 8.94"/><path d="m655.56 432.68a4.53 4.53 0 0 1 6.82-.83 5.82 5.82 0 0 1 .71 7.61 9.5 9.5 0 0 1 -3.2 2.71 2.93 2.93 0 0 0 -1.61 3.14 10.85 10.85 0 0 0 1.54 3.91c.52.75.8 2 1.9 2 2.7 0 2.66-3.24 3.62-4.94 1.4-2.48 3.34-4.61 4.88-7a27.54 27.54 0 0 0 3.33-8.64 26.78 26.78 0 0 0 -7.37-25.05c-3.86-3.75-10.08-7.76-15.71-6.14a5.25 5.25 0 0 1 -.79.27c-.92.07.14.3-.61-.14a16.65 16.65 0 0 1 -1.37-1.19 15.8 15.8 0 0 0 -3.8-2.14 19.54 19.54 0 0 0 -8-1.3c-6.23.25-11.91 3.17-17 6.5-2.66 1.73-6 3.59-7.48 6.53-1.35 2.7-.69 6 2.36 7s6.58-.06 9.43-.84a44.46 44.46 0 0 0 10.21-4.23l-1.25-2.15c-1.52 1.11-3.11 2.77-2.13 4.78s3.54 2.36 5.49 2.16c5.13-.52 8.62-4.61 13.09-6.69l-1.73-1.33a12.79 12.79 0 0 0 2.65 12.5c1.49 1.63 3.74 2.67 4.82 4.65 1.36 2.49.14 5.62-.79 8-.55 1.4 1.75 2 2.26.62.85-2.37 1.7-4.91 1.33-7.47s-1.9-4.05-3.73-5.53a12.12 12.12 0 0 1 -4.14-5.23 10.65 10.65 0 0 1 -.13-7c.34-1.06-.87-1.71-1.73-1.32-3 1.36-5.49 3.64-8.44 5.14a9.33 9.33 0 0 1 -4.73 1.17c-.57 0-1.82-.17-2-.85s.81-1.25 1.2-1.53a1.24 1.24 0 0 0 -1.25-2.15 42.53 42.53 0 0 1 -12.93 4.61c-1.5.27-3.75.79-5.12-.16-1.89-1.32.08-3.92 1.22-5a38.28 38.28 0 0 1 5.23-3.79 48.46 48.46 0 0 1 5.73-3.28 23.48 23.48 0 0 1 12.08-2.55 15.52 15.52 0 0 1 5.4 1.41 13.36 13.36 0 0 1 2.35 1.42 20.27 20.27 0 0 0 2.07 1.76 2.89 2.89 0 0 0 2.62-.08 7.39 7.39 0 0 1 3.4-.28 15.94 15.94 0 0 1 5.81 2.28 24.21 24.21 0 0 1 11.71 20.77 25.61 25.61 0 0 1 -4 13.77c-1.24 1.85-2.67 3.56-3.87 5.44a15.14 15.14 0 0 0 -1.38 2.65c-.14.36-.28 2.05-.75 2.06l.86.35c.4.36.24.39.1 0a3.81 3.81 0 0 0 -.57-1 8.06 8.06 0 0 1 -1.24-2.51c-.36-1.11-.06-1.35.85-1.89a11.48 11.48 0 0 0 1.75-1.27 8.73 8.73 0 0 0 2.85-8.07 7.08 7.08 0 0 0 -5.57-5.7 6.48 6.48 0 0 0 -6.59 3.06.85.85 0 0 0 1.46.85z"/><path d="m634.18 468c-.1 3 .59 6.15 1 9.12l.62 4.4c.19 1.29.13 3 1 4a4.1 4.1 0 0 0 2.73 1.29 31.5 31.5 0 0 0 4 .42 32.88 32.88 0 0 0 7.66-.65 31 31 0 0 0 13.54-6.39 6.12 6.12 0 0 0 2.18-6.43c-.6-3-1.39-5.93-2-8.92a121.15 121.15 0 0 1 -2.32-20.71c0-1.89-3.07-1.84-2.91 0 .47 5.33 1 10.65 1.78 15.94.39 2.62.86 5.24 1.39 7.84.26 1.26.53 2.51.82 3.77a13.81 13.81 0 0 1 .78 4.25c-.21 2.06-3.08 3.53-4.66 4.48a29.68 29.68 0 0 1 -6.19 2.78 29 29 0 0 1 -13.41 1c-.6-.1-1.16-.1-1.44-.65a7.71 7.71 0 0 1 -.33-2.05l-.73-4.62c-.47-3-.73-6.29-1.71-9.18a.94.94 0 0 0 -1.84.25z"/><path d="m647 462.38a15.4 15.4 0 0 1 -6.54 3.13 29.16 29.16 0 0 1 -3.61.44c-.62.05-1.24.12-1.86.16a9.48 9.48 0 0 0 -2.19.23c-1.09.36-1.31 2.21 0 2.45a14.85 14.85 0 0 0 4.4-.27 27.81 27.81 0 0 0 4.11-.95 17.66 17.66 0 0 0 6.94-3.94c.85-.78-.38-2-1.25-1.25z"/><path d="m537.64 23.65-5.87 25.4-16 69.12-23.51 101.83-28.81 124.65-31.55 136.53-31.74 137.36-29.7 128.46-25.09 108.6-18 77.81c-2.85 12.32-5.86 24.62-8.55 37-.11.52-.24 1.05-.36 1.57-1.47 6.35 8.3 9.06 9.77 2.69l5.87-25.4 16-69.12 23.53-101.85 28.8-124.64 31.57-136.54 31.74-137.35 29.7-128.5 25.09-108.56 18-77.81c2.85-12.32 5.86-24.62 8.55-37 .11-.53.24-1.05.36-1.57 1.47-6.35-8.3-9.06-9.77-2.7z"/><path d="m668.83 23.65-5.83 25.4-16 69.12-23.55 101.83-28.81 124.65-31.55 136.53-31.75 137.36-29.69 128.46-25.09 108.6-18 77.81c-2.84 12.32-5.85 24.62-8.54 37-.12.52-.24 1.05-.37 1.57-1.46 6.35 8.31 9.06 9.78 2.69l5.87-25.4 16-69.12 23.52-101.85 28.8-124.64 31.56-136.54 31.74-137.35 29.7-128.5 25.09-108.56 18-77.81c2.85-12.32 5.86-24.62 8.54-37 .12-.53.25-1.05.37-1.57 1.46-6.35-8.3-9.06-9.77-2.7z"/><path d="m479.68 302c8.39.4 16.8.32 25.19.66s16.79.91 25.19 1.16c16.78.5 33.59.37 50.37.23l14-.12c4.87 0 10.07.32 14.83-.78 3.12-.72 3.13-5.59 0-6.31-4.14-1-8.61-.74-12.84-.77l-12.74-.07q-12.6-.11-25.19-.1t-25.19.25c-8.4.14-16.79.74-25.19 1.08-9.47.39-19 .34-28.43.8a2 2 0 0 0 0 4z"/><path d="m335.15 935.18c8.39.4 16.79.32 25.18.66s16.79.91 25.19 1.16c16.78.5 33.59.37 50.38.23l14-.12c4.87 0 10.07.32 14.84-.78 3.11-.72 3.12-5.59 0-6.31-4.15-1-8.62-.74-12.84-.77l-12.72-.11c-8.4-.06-16.79-.11-25.19-.1s-16.79.1-25.19.25-16.79.74-25.19 1.08c-9.47.39-19 .34-28.42.8a2 2 0 0 0 0 4z"/><path d="m364.05 808.55c8.39.4 16.8.32 25.19.66s16.79.92 25.19 1.16c16.78.5 33.59.37 50.37.23l14-.11c4.86 0 10.07.31 14.83-.79 3.12-.72 3.12-5.59 0-6.31-4.14-1-8.61-.74-12.84-.77l-12.72-.1q-12.59-.1-25.18-.11t-25.19.25c-8.4.14-16.79.74-25.19 1.08-9.47.39-19 .35-28.43.8a2 2 0 0 0 0 4z"/><path d="m378.51 745.24c8.39.4 16.79.32 25.18.66s16.8.91 25.19 1.16c16.78.5 33.59.36 50.38.23l14-.12c4.87 0 10.07.32 14.84-.78 3.12-.73 3.12-5.59 0-6.31-4.14-1-8.61-.74-12.84-.77l-12.72-.11q-12.6-.11-25.19-.1t-25.19.24c-8.39.15-16.79.74-25.18 1.09-9.48.39-19 .34-28.43.8a2 2 0 0 0 0 4z"/><path d="m393 681.92c8.39.4 16.79.32 25.19.67s16.79.91 25.19 1.16c16.78.49 33.59.36 50.37.22l14-.11c4.86 0 10.06.32 14.83-.79 3.12-.72 3.12-5.59 0-6.31-4.14-1-8.61-.73-12.84-.77l-12.72-.1q-12.58-.1-25.18-.1t-25.19.24c-8.4.15-16.8.74-25.19 1.08-9.47.39-19 .35-28.43.8a2 2 0 0 0 0 4z"/><path d="m407.41 618.61c8.39.4 16.8.32 25.19.66s16.79.91 25.19 1.16c16.78.5 33.59.37 50.37.23l14-.12c4.87 0 10.07.32 14.84-.78 3.11-.72 3.12-5.59 0-6.31-4.15-1-8.62-.74-12.85-.77l-12.71-.11q-12.6-.11-25.19-.1t-25.19.25c-8.4.14-16.79.74-25.19 1.08-9.47.39-19 .34-28.43.8a2 2 0 0 0 0 4z"/><path d="m421.87 555.29c8.39.41 16.79.32 25.19.67s16.79.91 25.18 1.16c16.78.5 33.59.36 50.38.22l14-.11c4.87 0 10.07.32 14.84-.79 3.12-.72 3.12-5.58 0-6.31-4.14-1-8.61-.73-12.84-.77l-12.72-.1q-12.6-.1-25.19-.1t-25.18.24c-8.4.15-16.8.74-25.19 1.09-9.48.38-19 .34-28.43.79a2 2 0 0 0 0 4z"/><path d="m436.32 492c8.39.4 16.8.32 25.19.66s16.79.92 25.19 1.16c16.78.5 33.59.37 50.37.23l14-.11c4.86 0 10.06.31 14.83-.79 3.12-.72 3.12-5.59 0-6.31-4.14-1-8.61-.74-12.84-.77l-12.72-.1q-12.59-.1-25.18-.11t-25.19.25c-8.4.14-16.8.74-25.19 1.08-9.47.39-19 .35-28.43.8a2 2 0 0 0 0 4z"/><path d="m450.78 428.67c8.39.4 16.79.32 25.18.66s16.79.91 25.19 1.16c16.78.5 33.59.36 50.38.23l14-.12c4.87 0 10.07.32 14.84-.78 3.11-.73 3.12-5.59 0-6.32-4.15-.95-8.61-.73-12.84-.76l-12.72-.11q-12.6-.11-25.19-.1t-25.19.24c-8.4.15-16.79.74-25.18 1.09-9.48.39-19 .34-28.43.79a2 2 0 0 0 0 4z"/><path d="m465.23 365.35c8.39.4 16.79.32 25.19.67s16.79.91 25.18 1.16c16.78.49 33.6.36 50.38.22l14-.11c4.86 0 10.06.31 14.83-.79 3.12-.72 3.12-5.59 0-6.31-4.14-1-8.61-.73-12.84-.77l-12.72-.1q-12.59-.1-25.19-.1t-25.18.24c-8.4.15-16.8.74-25.19 1.08-9.47.39-19 .35-28.43.8a2 2 0 0 0 0 4z"/><path d="m475.45 319.19a80.88 80.88 0 0 1 1.4-18.7c.73-3.74 1.82-7.6 4.41-10.4 3.7-4 9.57-5 15-5.69a8.08 8.08 0 0 1 4.73.32 6.77 6.77 0 0 0 2.13 1 5 5 0 0 0 1.89-.38 7.59 7.59 0 0 1 8.29 3.12c.62 1 1.08 2.16 2.12 2.64.77.36 1.7.24 2.46.6 1.87.87 1.38 3.88-.23 5.16s-3.79 1.56-5.66 2.43-3.56 3-2.7 4.87a10.6 10.6 0 0 1 4.05-1.51 3.63 3.63 0 0 1 3.64 1.85c.8 1.86-.68 3.87-2.1 5.31a100 100 0 0 1 -24.88 18.52" fill="#fff"/><path d="m476.4 319.19c.34-6.85.66-13.61 2.41-20.29.73-2.76 1.77-5.65 3.78-7.75a15.27 15.27 0 0 1 6.88-3.82 41.39 41.39 0 0 1 8-1.46 6.27 6.27 0 0 1 2.16.06 9.77 9.77 0 0 1 1.94 1c1.52.75 2.69.27 4.21-.07a6 6 0 0 1 6.14 2.47 9.36 9.36 0 0 0 2.27 2.94 4.34 4.34 0 0 0 1.83.69c.51.09 1.16 0 1.42.53.44.81-.47 2-1.06 2.39-1.26.88-2.88 1.15-4.28 1.71-2.81 1.13-5.12 3.87-3.08 6.85a1.83 1.83 0 0 0 2.81.36 3.2 3.2 0 0 1 3-.23c1.61.79.28 2.65-.51 3.56a68 68 0 0 1 -7.67 7.12 95.9 95.9 0 0 1 -8.45 6.29 40.25 40.25 0 0 1 -4.38 2.5 45 45 0 0 0 -4.63 2.93c-1.42.94-.54 3.67 1.24 2.94q1.64-.66 3.24-1.35a13.53 13.53 0 0 0 2.61-1.62c1.79-1.27 3.62-2.48 5.42-3.74a104.6 104.6 0 0 0 10.4-8.37 52.9 52.9 0 0 0 4.64-4.59c1.29-1.53 2.44-3.46 2-5.54a4.78 4.78 0 0 0 -3.74-3.49 9.28 9.28 0 0 0 -4.86.59l2.2 1.26a14.59 14.59 0 0 1 -.26-1.72c0-.37.25-.39-.05-.11a3.25 3.25 0 0 1 .81-.51c1.4-.67 3-.95 4.36-1.63a5.71 5.71 0 0 0 3.4-6.27 3.69 3.69 0 0 0 -2.25-2.6 19.78 19.78 0 0 1 -2.21-.53c-.61-.32-.89-1.11-1.23-1.67a9.29 9.29 0 0 0 -7.07-4.44 12.88 12.88 0 0 0 -3.95.51c-.86.16-1.3-.35-2.05-.73a6.68 6.68 0 0 0 -2.31-.67 17.65 17.65 0 0 0 -4.41.3c-1.66.23-3.32.48-5 .83a20.69 20.69 0 0 0 -8 3.32 15.78 15.78 0 0 0 -5.46 7.77 51.17 51.17 0 0 0 -2.05 11.32 58.77 58.77 0 0 0 -.06 13 1 1 0 0 0 1.9 0z"/><path d="m450.66 354.17 10.57-26.17c1.09-2.71 2.45-5.7 5-6.7a23.49 23.49 0 0 0 3.22-1c1.31-.73 2.06-2.21 2.94-3.48a13.63 13.63 0 0 1 15.49-5.2c5.43 2 9.27 8.05 9 14.22 1.75-.34 3.46 1 4.22 2.74a13.26 13.26 0 0 1 .73 5.59 166.4 166.4 0 0 1 -11.78 58.83c-2.83 7.05-7.51 14.88-14.64 15.07" fill="#fff"/><path d="m451.6 354.43q3.51-8.49 7-17 1.81-4.35 3.64-8.7c.83-2 1.72-4.34 3.5-5.66 1-.73 2.18-.78 3.31-1.15a6.27 6.27 0 0 0 3-2.22c1.4-1.79 2.42-3.66 4.3-5 3.44-2.49 8.2-3.31 12.07-1.34a13.61 13.61 0 0 1 7 12.45 1.43 1.43 0 0 0 1.43 1.44c3.34-.44 3.53 4.21 3.51 6.45 0 3.11-.2 6.22-.44 9.33a163 163 0 0 1 -2.6 19.05 173.44 173.44 0 0 1 -4.62 18.11 97.64 97.64 0 0 1 -6.34 16.54c-2.25 4.26-5.77 9.34-11 9.73-2 .15-2 3.12 0 3.09 5.61-.08 9.67-4.08 12.51-8.56 3.32-5.25 5.34-11.38 7.27-17.24a165.55 165.55 0 0 0 7.87-41.66c.22-3.73.65-7.7.14-11.42-.42-3.11-2.6-6.78-6.25-6.29l1.44 1.43a16.65 16.65 0 0 0 -6-13.25 14 14 0 0 0 -13.65-2.23 15.51 15.51 0 0 0 -6 3.93 20.6 20.6 0 0 0 -2.12 2.8 8.18 8.18 0 0 1 -1.19 1.55 4.66 4.66 0 0 1 -2.27 1c-5.64 1.39-7.08 7.92-8.92 12.66q-4.21 10.83-8.48 21.66c-.46 1.18 1.41 1.66 1.88.52z"/><path d="m494.14 238.72c8.39.41 16.79.32 25.19.67s16.79.91 25.18 1.16c16.78.5 33.59.36 50.38.22l14-.11c4.87 0 10.07.32 14.84-.79 3.12-.72 3.12-5.59 0-6.31-4.14-1-8.61-.73-12.84-.77l-12.72-.1q-12.6-.1-25.19-.1t-25.19.24c-8.39.15-16.79.74-25.18 1.09-9.48.38-19 .34-28.43.79a2 2 0 0 0 0 4z"/><path d="m508.59 175.41c8.39.4 16.8.32 25.19.66s16.79.91 25.19 1.16c16.78.5 33.59.37 50.37.23l14-.12c4.86 0 10.06.32 14.83-.78 3.12-.72 3.12-5.59 0-6.31-4.14-1-8.61-.74-12.84-.77l-12.72-.1q-12.58-.1-25.18-.11t-25.19.25c-8.4.14-16.8.74-25.19 1.08-9.47.39-19 .35-28.43.8a2 2 0 0 0 0 4z"/><path d="m523.05 112.1c8.38.4 16.79.31 25.18.66s16.79.91 25.19 1.16c16.78.5 33.59.36 50.38.23l14-.12c4.87 0 10.07.32 14.84-.78 3.11-.73 3.12-5.59 0-6.32-4.15-1-8.62-.73-12.84-.76l-12.8-.11q-12.6-.11-25.19-.1t-25.19.24c-8.4.15-16.79.74-25.19 1.09-9.47.39-19 .34-28.42.79a2 2 0 0 0 0 4z"/><path d="m390.71 262.83c8.37 5.17 10.29 17.77 19.34 21.67a6.82 6.82 0 0 1 2.39 1.33c1.29 1.35.8 3.23-.26 4.92-1.68 2.69.47 6 1.79 8.36 2.51 4.47 5.15 9.31 5.68 14.5.44 4.25-1.59 7.74-5.15 10s-8.46 2.58-11.59 5.61c-2.46 2.4-2.36 5.88-1.76 9s1 4.7 1.65 7.84a5.87 5.87 0 0 1 0 3.47c-.56 1.38-2.06 2.11-3.46 2.63a42.64 42.64 0 0 1 -32.92-1.3 4.33 4.33 0 0 1 -2.31-1.9 4.92 4.92 0 0 1 .08-3 58 58 0 0 0 -1.13-27.72c-3.94-14.19-18.67-27.48-14.81-43.32a19.16 19.16 0 0 1 5.91-9.73 33.12 33.12 0 0 1 17.66-7.7c5.72-.74 13.77-.46 17.59 4.62" fill="#fff"/><path d="m390.21 263.67c6.26 4 8.58 11.79 13.21 17.29a18.9 18.9 0 0 0 3.81 3.5 13.49 13.49 0 0 0 2.32 1.28c1 .46 2.39.86 2.27 2.24-.09 1.09-.85 1.93-1.25 2.92a6 6 0 0 0 -.28 3.24c.36 2.2 1.61 4.15 2.68 6.07 2.39 4.3 5.14 9.09 5.32 14.14.15 4.33-2.82 7.55-6.62 9.16s-8.49 2.42-10.92 6.2-1.06 8.51-.21 12.49l.69 3.16c.26 1.18.89 2.83.18 4a4.71 4.71 0 0 1 -2.39 1.55 36.51 36.51 0 0 1 -3.67 1.19 41.6 41.6 0 0 1 -14.48 1.3 37.9 37.9 0 0 1 -14.18-3.88c-1.23-.64-1.49-1.32-1.23-2.71s.56-2.68.75-4a54.83 54.83 0 0 0 .58-7.69 57.11 57.11 0 0 0 -6.51-27c-3.87-7.36-8.94-14.4-10.77-22.64a21.51 21.51 0 0 1 .73-12.38c1.73-4.41 5.27-7.73 9.31-10.06 7-4.08 16.84-6.05 24.69-3.21a10.07 10.07 0 0 1 4.48 3.14c.73.89 2.31-.31 1.62-1.25-5.18-7-15.76-6.42-23.29-4.47-9.54 2.47-18.73 9-20.36 19.28-1.42 8.95 2.55 17.27 6.77 24.89 2.18 3.95 4.5 7.84 6.35 11.95a50.1 50.1 0 0 1 3.8 14.44 53.72 53.72 0 0 1 -.52 17c-.51 2.5-1 4.92 1.33 6.61a24.5 24.5 0 0 0 6.85 2.94 44 44 0 0 0 15.59 1.95 45.08 45.08 0 0 0 7.57-1.06 26.93 26.93 0 0 0 7.25-2.48 5.25 5.25 0 0 0 2.7-5.62c-.35-2.5-1.05-5-1.55-7.43-.45-2.23-1-4.6-.4-6.85s2.61-3.68 4.73-4.6c4.22-1.83 8.63-2.68 11.6-6.54s2.66-8.72 1.2-13.19a46.86 46.86 0 0 0 -3.47-7.72c-1.12-2.06-2.65-4.13-3.31-6.41a3.8 3.8 0 0 1 .41-3.23 6.66 6.66 0 0 0 1-3.46c-.11-2.71-2.3-3.54-4.41-4.53-3.49-1.64-5.89-4.79-8-7.93s-4.1-6.73-6.75-9.64a19.38 19.38 0 0 0 -4.23-3.62c-1.08-.66-2 1-1 1.68z"/><path d="m399.67 282.57a1.51 1.51 0 0 0 -.7-.87 1.23 1.23 0 0 0 -.75-.17 3 3 0 0 0 -.4.06 2.66 2.66 0 0 0 -.39.16 1.93 1.93 0 0 0 -.76.74 2.35 2.35 0 0 0 -.33 1.06 2.42 2.42 0 0 0 .06.54 1 1 0 0 0 .05.23 2.17 2.17 0 0 0 .56.9 2.07 2.07 0 0 0 .42.31 2 2 0 0 0 .86.23 1.83 1.83 0 0 0 1-.29 2 2 0 0 0 .42-.34 2 2 0 0 0 .44-.77 1.41 1.41 0 0 0 .07-.45 1.5 1.5 0 0 0 -.41-1 1.76 1.76 0 0 0 -.69-.42 1.31 1.31 0 0 0 -.68 0 1 1 0 0 0 -.44.23 1 1 0 0 0 -.33.36 1.34 1.34 0 0 0 -.17.65.13.13 0 0 1 0 .06l.05-.35s0 0 0 .05l.14-.32a1.26 1.26 0 0 0 -.17.53v.25-.37.12l.14-.33a.83.83 0 0 1 -.08.12l.22-.27-.13.12.28-.22-.13.08.32-.14h-.13l.36-.05h-.11l.36.05h-.16l.32.13-.14-.08.27.21a.74.74 0 0 1 -.12-.13l.2.27a1.28 1.28 0 0 1 -.11-.2l.13.32a1.14 1.14 0 0 1 -.06-.25v.35a1.61 1.61 0 0 1 0-.38v.34a1.82 1.82 0 0 1 .07-.25l-.12.29a.65.65 0 0 1 .09-.16l-.19.25.13-.13-.25.18.16-.08-.29.12h.13a1.66 1.66 0 0 0 .37-.14l-.27.11a.27.27 0 0 1 .12 0h-.28.09-.27.07a1 1 0 0 0 1.2-1.2z"/><path d="m398.92 276.9a1.48 1.48 0 0 0 -.42-1 2 2 0 0 0 -.85-.44 5.33 5.33 0 0 0 -1.13-.18l.46.06a3.1 3.1 0 0 0 -2 .1 10.85 10.85 0 0 0 -1.57.66l.53-.22h-.15l1.77 4.2c.36-.2.69-.45 1-.66a11.37 11.37 0 0 1 1.11-.54l-.56.24.55-.22-1.8-4.27a18.81 18.81 0 0 0 -2.21 1.19c-.36.23-.7.47-1 .71l-.48.35a4.39 4.39 0 0 0 -.92.74 2.3 2.3 0 0 0 -.61 1l-.08.62a2.27 2.27 0 0 0 .92 1.85 2.31 2.31 0 0 0 1.74.46 1.82 1.82 0 0 0 .87-.28 2.41 2.41 0 0 0 .84-.84l.21-.29a2.13 2.13 0 0 0 -1.26-3.1l-.35-.06.56 4.29a7 7 0 0 0 1-.77c.18-.15.36-.3.55-.44l-.47.36a17.34 17.34 0 0 1 3.13-1.79 2.3 2.3 0 0 0 1.07-1.39 2.4 2.4 0 0 0 -.12-1.52 2.22 2.22 0 0 0 -.95-1.12 2.28 2.28 0 0 0 -1.8-.23 14 14 0 0 0 -1.94.87 8.69 8.69 0 0 0 -1.74 1.2 2.29 2.29 0 0 0 -.67 1.62 2.18 2.18 0 0 0 .85 1.94 2.3 2.3 0 0 0 3.38-.65v-.06l-.36.46a11.15 11.15 0 0 1 1.21-1.07l-.4.3.33-.23a2.51 2.51 0 0 0 .67-.67l.09-.16-.26.35.05-.05-.34.27a2.59 2.59 0 0 1 .58-.34l-.34.14a3.42 3.42 0 0 0 .59-.26 1.31 1.31 0 0 0 .64-1.11z"/><path d="m371.83 296.63h.13-.24.37-.25a2.18 2.18 0 0 1 .44.11l-.23-.09a1.92 1.92 0 0 1 .46.27l-.2-.16a2.32 2.32 0 0 1 .46.48l-.16-.21a4.41 4.41 0 0 1 .47.74l-.11-.26a1.42 1.42 0 0 1 0 .16v-.28a.49.49 0 0 1 0 .12v-.29a.14.14 0 0 1 0 .07l.11-.26v.05l.17-.22a.23.23 0 0 1 -.07.07l.22-.17h-.05l.25-.1h.28-.05.28-.05l.26.11.22.17a.08.08 0 0 1 0 0l.17.22.11.26s0 0 0-.06v.29-.09.29a.64.64 0 0 1 0-.07l-.11.26s0-.05 0-.08l-.17.22h.05l-.22.17.09-.06-.26.11.18-.05a1.28 1.28 0 0 0 .57-.31 1.08 1.08 0 0 0 -.22-1.68 1.26 1.26 0 0 0 -1-.11 1.57 1.57 0 0 0 -.48.2 1.38 1.38 0 0 0 -.53.64 1.41 1.41 0 0 0 -.09.86 1.28 1.28 0 0 0 1.23 1 1.37 1.37 0 0 0 1.19-.71 1.58 1.58 0 0 0 -.06-1.49 3.72 3.72 0 0 0 -.5-.68 3.49 3.49 0 0 0 -1.11-.87 2.62 2.62 0 0 0 -1.94-.16.89.89 0 0 0 -.63 1.1.91.91 0 0 0 1.1.63z"/><path d="m409 301.35.26-.43 1-.26.46.27a1.1 1.1 0 0 0 -.8-.34c-.42.05-.39.06.1 0-.11 0-.09 0 0 0-.34-.16-.68-.3-1-.44-.14-.06-.15-.06 0 0l-.21-.09-.41-.18-.77-.37q-.8-.39-1.56-.84a8.25 8.25 0 0 0 -1.85-1.09 1.68 1.68 0 0 0 -1.88.77 1.71 1.71 0 0 0 .26 2 3.54 3.54 0 0 0 1.34.75l.42.17c.18.06 0 0-.06 0 .15.08.32.14.48.21.57.24 1.16.46 1.75.66s1.17.35 1.76.49a3 3 0 0 0 2.19 0 1.13 1.13 0 0 0 .51-1.25c0-.13.06.46 0 0a1.17 1.17 0 0 0 -.14-.41 1 1 0 0 0 -1-.46 1 1 0 0 0 -.8.69z"/><g fill="#18c4ff"><path d="m451.68 475.84c13.25 16.76 19.1 38.06 24 58.87 14.54 62.29 23.12 127.71 8.72 190.06-3.72 16.09-8.93 31.8-14.13 47.47l-18.8 56.65c-3.19 9.62-5.72 21.91 2 28.46 3.61 3.06 9.58 7.23 6.38 10.71-1.19 1.31-3.16 1.43-4.93 1.47l-35.37.74c-2.88.06-5.93.08-8.42-1.38-4.53-2.64-5.25-8.77-5.42-14a895.67 895.67 0 0 1 15.15-196.25c.72-3.77 1.46-7.63.87-11.42-.52-3.33-2-6.41-3.5-9.43a716.66 716.66 0 0 1 -40.15-101.92c-5.51-17.89-10.34-37-5.76-55.14"/><path d="m450.94 476.58c8 10.28 13 22.2 16.87 34.53 3.95 12.56 6.72 25.52 9.44 38.39 5.94 28.18 10.56 56.7 12.11 85.48 1.53 28.4.18 57-5.76 84.9a411 411 0 0 1 -11.75 41.74c-4.56 14-9.23 27.88-13.85 41.82l-7 21.25c-1.8 5.42-3.6 10.83-4.2 16.54-.51 4.84-.06 10.17 2.75 14.31a26.47 26.47 0 0 0 5.25 5.16c1.28 1.08 4.55 3.38 4.26 5.37-.22 1.49-2.36 1.65-3.49 1.72-1.9.13-3.81.14-5.71.2-3.66.12-7.33.18-11 .27-7.28.18-14.67.75-21.95.46-3.16-.12-6-1.08-7.61-4a18.68 18.68 0 0 1 -1.9-8c-.47-7-.44-14.14-.52-21.19-.33-29.14.77-58.31 3.28-87.34s6.48-58.19 11.86-86.95a70.69 70.69 0 0 0 1.51-10.24 23.25 23.25 0 0 0 -2-9.93c-2.7-6.43-6-12.65-8.84-19-5.83-12.89-11.37-25.91-16.48-39.11s-9.83-26.59-14.15-40.09-8.66-27-9.67-41.09a66.5 66.5 0 0 1 1.61-20.61c.51-2.11-2.74-3-3.26-.9-3.42 13.93-1.63 28.32 1.8 42.07 3.51 14.08 8.25 27.92 13.08 41.59s10 27.05 15.62 40.34c2.81 6.66 5.71 13.29 8.75 19.85q2.26 4.9 4.61 9.78a106 106 0 0 1 4.63 9.91c2.64 7.33-.07 15.37-1.39 22.73s-2.54 14.68-3.67 22q-3.39 22.11-5.7 44.36a896.61 896.61 0 0 0 -4.76 89.59q0 11.16.22 22.34c.13 6.12-.44 13 1.58 18.92 2 5.71 6.57 8 12.41 8 7.63 0 15.28-.27 22.9-.4 3.8-.06 7.6-.13 11.4-.17 2.77 0 6.23.37 8.49-1.57 4.48-3.84-.25-8.8-3.41-11.49-2.07-1.75-4.17-3.3-5.45-5.76a16.42 16.42 0 0 1 -1.63-7.36c-.08-5.5 1.44-10.9 3.16-16.08q7.21-21.81 14.48-43.6c4.69-14.11 9.53-28.18 13.69-42.46a309.76 309.76 0 0 0 12.16-86.56c0-29.34-3.57-58.61-9-87.41-2.63-14-5.73-28-9.26-41.84-3.2-12.54-7-25-13-36.48a98.38 98.38 0 0 0 -10-15.56c-.85-1.07-2.31.43-1.49 1.49z"/><path d="m337.07 487.64c-18.61 33.61-23.3 72.87-28.45 110.94-1.49 11-3.07 22.09-7.09 32.43-9.22 23.7-29.92 40.59-47.42 59-28.4 29.93-50 66.3-81.58 92.86-2.95 2.48-6.2 5.24-6.74 9.06s1.79 7.33 4.09 10.39a206.46 206.46 0 0 0 35.89 37.06c2.46 2 5.2 4 8.36 4.05 6.21.13 10-7.15 10.06-13.36s-1.81-12.55-.15-18.54c2.17-7.78 9.69-12.65 16.6-16.84 17.77-10.69 35.36-21.83 51.71-34.69a297.26 297.26 0 0 0 108.06-288.85"/><path d="m336.18 487.12c-14.62 26-20.89 55.44-25.31 84.69-2.28 15.14-3.56 30.58-6.9 45.53a83.61 83.61 0 0 1 -7.53 21 104.34 104.34 0 0 1 -11.39 16.86c-8.69 10.63-18.78 20-28.38 29.75a422.76 422.76 0 0 0 -28.36 32.62c-18 22.52-35.34 45.72-57.44 64.46-2.35 2-4.74 4.13-6 7a11 11 0 0 0 .4 9.31c1.53 3.28 4 6.13 6.21 9s4.73 5.84 7.21 8.66a210.86 210.86 0 0 0 16 16.31q4.17 3.79 8.54 7.36c2.54 2.07 5.17 4.35 8.4 5.23 5.72 1.56 10.48-2.33 12.65-7.36 2.89-6.68.72-13.55.76-20.51.05-7.23 4.21-12.42 9.84-16.51 5.88-4.27 12.36-7.77 18.52-11.62 25.28-15.78 49.23-33.29 69.91-54.85a303.61 303.61 0 0 0 48.45-66.65 296.12 296.12 0 0 0 29.42-82.09 307.23 307.23 0 0 0 4.19-92.57c-.8-7.37-1.85-14.74-3.23-22-.43-2.3-3.94-1.32-3.51 1a298.13 298.13 0 0 1 3.21 91 292.43 292.43 0 0 1 -23.78 85.21 298.87 298.87 0 0 1 -43.31 68.83 307.72 307.72 0 0 1 -62.46 55.91c-6.46 4.41-13 8.65-19.67 12.79-6.15 3.84-12.56 7.36-18.52 11.5-4.9 3.4-9.53 7.61-11.47 13.43-2.4 7.19.76 14.48-.34 21.73-.76 5.07-4.56 11.48-10.56 9.15-3.33-1.29-6.16-4.14-8.84-6.41s-5.51-4.78-8.16-7.28a207.64 207.64 0 0 1 -15.34-16.06q-3.63-4.25-7-8.67c-2.14-2.79-5-6.16-4.92-9.89.1-3.27 2.72-5.68 5-7.68 2.66-2.31 5.34-4.57 7.93-7 5.11-4.72 10-9.69 14.68-14.82 9.57-10.47 18.38-21.59 27.16-32.72s17.45-22.17 26.83-32.7c9.11-10.22 19.1-19.56 28.49-29.5 9-9.54 17.56-19.85 23.18-31.8 6.41-13.63 8.1-28.61 10.06-43.37 3.84-28.92 7.78-58.22 18.2-85.66a163.44 163.44 0 0 1 9-19.57c.63-1.16-1.13-2.19-1.78-1z"/></g><path d="m377.41 292a7.66 7.66 0 0 0 -6.75-1.67 5.62 5.62 0 0 0 -4.16 5.26 6.51 6.51 0 0 0 2.9 4.9 19.55 19.55 0 0 0 5.37 2.41 10.7 10.7 0 0 1 -2.94 10.29 9.8 9.8 0 0 1 -10.44 1.8c-2.32-1-4.09-3-5.78-4.92-5.39-6.13-10.78-12.62-13.07-20.46s-.69-17.37 5.89-22.2a32.86 32.86 0 0 0 3.64-2.65c1.39-1.36 2.23-3.17 3.36-4.77a21 21 0 0 1 10.78-7.39 62.17 62.17 0 0 1 13.08-2.32 11 11 0 0 1 5.35.32c2.41 1 3.83 3.59 4.23 6.17.65 4.09-.81 8.29-3.16 11.71a45.37 45.37 0 0 1 -8.7 8.81 1.81 1.81 0 0 0 -.81 1.18c0 .71.7 1.17 1.32 1.5a7.67 7.67 0 0 1 3.15 2.64 3.35 3.35 0 0 1 -.17 3.87 1.55 1.55 0 0 0 -.55.8c-.07.55.59.87 1 1.28a2.11 2.11 0 0 1 -.26 2.77 6.12 6.12 0 0 1 -2.68 1.4"/><path d="m378 291.41a8.58 8.58 0 0 0 -7.26-2.15 6.94 6.94 0 0 0 -5 4.26 6.52 6.52 0 0 0 1.46 6.55c1.85 2.14 4.62 3.1 7.22 4l-.81-.81c1.22 5.27-2.25 10.93-7.9 11.19a9.18 9.18 0 0 1 -6.88-3 80.24 80.24 0 0 1 -5.78-6.58c-6.52-8-12.42-18.12-9-28.69a15.5 15.5 0 0 1 3.34-5.79c1.81-1.94 4.36-3 6.12-4.93s2.92-4.71 5-6.68a20.3 20.3 0 0 1 6.6-4.11 39.18 39.18 0 0 1 9.12-2.21c1.51-.22 3-.37 4.56-.53a13 13 0 0 1 4.62 0c2.39.62 3.6 3.08 3.94 5.35a14.1 14.1 0 0 1 -1.79 8.49 28.7 28.7 0 0 1 -6.11 7.42c-1.25 1.15-2.67 2.15-3.86 3.35a2.72 2.72 0 0 0 -.46 3.6c1.27 1.8 6.66 2.81 4.29 5.86a2 2 0 0 0 0 2.88c.55.57 1.09.91.39 1.74a4.51 4.51 0 0 1 -2.18 1.09c-1.42.46-.8 2.71.62 2.24s3-1.08 3.76-2.5a3.07 3.07 0 0 0 -.65-3.89c-.1-.07-.21-.25-.32-.29.29.11-.35.42.12.25.21-.08.49-.58.6-.77a4.08 4.08 0 0 0 .57-2.21 6 6 0 0 0 -1.77-4.13 11.82 11.82 0 0 0 -2-1.47 4.9 4.9 0 0 1 -.79-.48c.18.16-.26.39.14.16a6.45 6.45 0 0 0 .8-.67c1.43-1.2 2.84-2.42 4.17-3.72a27.09 27.09 0 0 0 6.34-9c2.46-6.06 1.49-15.87-6.65-16.52a30.41 30.41 0 0 0 -5.71.39c-2 .23-4.05.49-6.06.87a32.1 32.1 0 0 0 -10.61 3.75 21.2 21.2 0 0 0 -7.18 7.19 12.39 12.39 0 0 1 -3.72 4.13 24 24 0 0 0 -3.84 3c-4.34 4.43-6 11-5.42 17 .64 7.12 4.22 13.47 8.5 19 2.25 2.93 4.66 5.79 7.19 8.49 2.36 2.51 5.12 4.48 8.67 4.67 6.92.37 12.38-5.83 11.75-12.6a6.5 6.5 0 0 0 -.38-2.1c-.38-.77-1.41-.88-2.15-1.14a11.14 11.14 0 0 1 -4.72-2.72 4.28 4.28 0 0 1 -1.05-4.56 4.84 4.84 0 0 1 3.94-2.85 7.38 7.38 0 0 1 5.22 1.57c.81.59 1.83-.74 1.07-1.39z"/><path d="m323.17 469.25a225.55 225.55 0 0 1 -5.94-74.83c.93-10.46 2.74-21.24 8.65-29.91 5-7.34 12.63-12.6 20.83-16s17-5 25.81-6.27a180.31 180.31 0 0 1 20-1.81 127.87 127.87 0 0 1 54.91 10.81c3.36 1.49 6.74 3.18 9.26 5.87a25.47 25.47 0 0 1 4.8 8.39c7.1 18.25 6.75 38.42 6.29 58-.32 13.78-.64 27.6-2.61 41.24-.75 5.19-1.84 10.57-5 14.74a26.7 26.7 0 0 1 -9.37 7.13c-10 5.06-21.18 7.25-32.26 8.9-26.53 4-53.65 5.2-80.18 1.17-5.67-.86-12.21-2.66-14.32-8-2-5.09 1.12-10.85.23-16.24" fill="#fff"/><path d="m324.3 468.94a227.17 227.17 0 0 1 -6.42-53.65 199.15 199.15 0 0 1 1.59-26.4c1-7.82 2.95-15.71 7.25-22.42 8.95-14 25.88-19.11 41.36-21.65 17.49-2.86 35.16-3.6 52.61-.07a125.37 125.37 0 0 1 24.68 7.67c3.61 1.55 7.38 3.22 10.08 6.18s4.15 7 5.41 10.82c5.47 16.27 5.43 33.68 5.07 50.65-.19 9.1-.37 18.2-.95 27.28-.29 4.67-.65 9.32-1.2 14a57.1 57.1 0 0 1 -2.31 11.89 18.3 18.3 0 0 1 -6.65 9 47.62 47.62 0 0 1 -10.75 5.55c-8 3.09-16.47 4.71-24.92 6a297.93 297.93 0 0 1 -54.68 3.64 196.87 196.87 0 0 1 -26.77-2.43 25.4 25.4 0 0 1 -9.2-3c-3-1.92-4.06-5.14-3.83-8.6.25-3.8 1.34-7.41.78-11.25-.25-1.65-2.76-.95-2.52.7.6 4.07-1 8.1-1 12.17a11.22 11.22 0 0 0 4.26 8.91 21 21 0 0 0 9.29 3.95c4.34.88 8.8 1.34 13.2 1.79a267.19 267.19 0 0 0 57-.79 241.6 241.6 0 0 0 27.14-4.28 91.87 91.87 0 0 0 12.79-3.86 48.9 48.9 0 0 0 11.27-5.81 21.87 21.87 0 0 0 7.36-9.2 48.33 48.33 0 0 0 2.88-12.16 270 270 0 0 0 2.23-28.69c.58-18 1.57-36.36-1.69-54.14a88.22 88.22 0 0 0 -3.34-12.9c-1.39-4-3-8.08-5.75-11.36s-6.46-5.14-10.2-6.8a130.89 130.89 0 0 0 -12.66-4.84 132.4 132.4 0 0 0 -53.71-5.63c-17.29 1.68-36.1 4.43-49.91 15.87a41.8 41.8 0 0 0 -13 19.79c-2.59 8.15-3.34 16.8-3.83 25.29a225.62 225.62 0 0 0 3.8 56c.87 4.48 1.89 8.93 3 13.35a1.18 1.18 0 0 0 2.27-.62z"/><path d="m349.6 871.86c8.39.41 16.79.32 25.19.67s16.79.91 25.18 1.16c16.78.5 33.6.36 50.38.22l14-.11c4.87 0 10.07.32 14.84-.79 3.12-.72 3.12-5.58 0-6.31-4.14-1-8.61-.73-12.84-.77l-12.72-.1q-12.6-.11-25.19-.1t-25.18.24c-8.4.15-16.8.74-25.19 1.09-9.47.39-19 .34-28.43.79a2 2 0 0 0 0 4z"/><path d="m200.63 758.49a46.28 46.28 0 0 1 18.93 9.78 43.91 43.91 0 0 1 12.15 17.89 44.44 44.44 0 0 1 1.67 5.75c.45 2.08.55 4.23 1 6.3.35 1.43 2.32 1 2.44-.33a20.65 20.65 0 0 0 -.61-5.69 45.23 45.23 0 0 0 -6.56-16.11 45.65 45.65 0 0 0 -16.65-15.08 41.55 41.55 0 0 0 -11.94-4.26c-1.11-.2-1.61 1.43-.47 1.73z"/><path d="m171 794.79c1.92-1.41 4.34-.69 6.33.21a52.39 52.39 0 0 1 5.44 3 66.64 66.64 0 0 1 10.16 7.69 68.27 68.27 0 0 1 15.07 20.25 64.48 64.48 0 0 1 2.81 6.7c.38 1.06.73 2.14 1.05 3.23.18.6.35 1.21.51 1.81.07.25.13.49.19.73l.09.37q0 .53.33.15l.82.1-.16-.1c-1-.69-2.07.81-1.26 1.63a1.34 1.34 0 0 0 2.13-.19c.67-.9.35-1.92.09-2.91a65.56 65.56 0 0 0 -2.28-7 69.47 69.47 0 0 0 -27.65-33.54 47.69 47.69 0 0 0 -7.19-3.83c-2.37-1-5.22-1.47-7.4.19-.87.66 0 2.17.88 1.5z"/><path d="m173.27 801.17a33.3 33.3 0 0 0 8.34-4.55 1 1 0 1 0 -1.22-1.57 31 31 0 0 1 -7.6 4.39.93.93 0 0 0 -.63 1.11.91.91 0 0 0 1.11.62z"/><path d="m179.79 810.52q5.69-3.71 11.4-7.38c1.17-.74.05-2.63-1.07-1.85q-5.6 3.88-11.21 7.72c-.92.63-.07 2.12.88 1.51z"/><path d="m185.5 818.06a36.19 36.19 0 0 0 7.21-3.45 39.78 39.78 0 0 0 3.25-2.32c.52-.41 1-.83 1.52-1.27a5.9 5.9 0 0 0 1.48-1.51 1 1 0 0 0 -1.37-1.37 7.06 7.06 0 0 0 -1.44 1.24c-.46.41-.94.82-1.42 1.21a33.7 33.7 0 0 1 -3.06 2.23 40.81 40.81 0 0 1 -6.63 3.59.88.88 0 0 0 -.6 1.05.87.87 0 0 0 1.06.6z"/><path d="m192.83 826.27a41.43 41.43 0 0 0 11.75-8.9c.86-1-.52-2.35-1.42-1.42a46.87 46.87 0 0 1 -11.16 8.81c-1 .55-.11 2 .88 1.51z"/><path d="m202.07 833.75a21.35 21.35 0 0 0 4.19-2.49 24 24 0 0 0 1.9-1.6 11.9 11.9 0 0 0 1.76-1.93c.61-.92-.73-1.9-1.49-1.15-.55.53-1 1.16-1.56 1.7a19.55 19.55 0 0 1 -5.68 4 .87.87 0 0 0 .88 1.51z"/><path d="m209.46 841.11 3.47-2.81a.91.91 0 0 0 .28-.66 1 1 0 0 0 -.28-.65 1 1 0 0 0 -1.3 0l-3.44 2.85a.9.9 0 0 0 .64 1.53 1 1 0 0 0 .63-.26z"/><path d="m405.83 822.62c7.85.62 15.69 1.21 23.56 1.55q5.83.26 11.67.4c3.94.09 8 .37 11.92.17a1.28 1.28 0 0 0 0-2.56c-4-.22-8 0-11.92-.06s-7.78-.13-11.67-.24c-7.85-.24-15.72-.5-23.56-1-1.12-.07-1.1 1.65 0 1.74z"/><path d="m380 564.66c5.84 6.7 8.76 15.21 11.9 23.38 3.44 8.94 7.41 17.65 11.68 26.22a148.29 148.29 0 0 0 8 14.33 1.41 1.41 0 0 0 2.44-1.43c-2.36-4.31-4.85-8.55-7.2-12.87s-4.54-8.71-6.59-13.18-3.91-8.85-5.71-13.34c-1.64-4.09-3.24-8.19-5.19-12.14a51.51 51.51 0 0 0 -8.05-12.2c-.76-.84-2 .39-1.23 1.23z"/><path d="m337.45 527.29a85.1 85.1 0 0 0 18.43 1.6c1.33 0 1.33-2.11 0-2.06a82.45 82.45 0 0 1 -17.95-1.27c-1.13-.21-1.62 1.5-.48 1.73z"/><path d="m400.5 528.67a96.62 96.62 0 0 0 29.18-1.77c1.37-.31.79-2.42-.59-2.12a99.17 99.17 0 0 1 -28.59 2.22c-1.1-.08-1.08 1.62 0 1.72z"/><path d="m592.89 330.49a40.1 40.1 0 0 1 9.16-28.87c1.3-1.54 3.57-3.07 5.13-1.78a4.16 4.16 0 0 1 1.05 3.11l.43 8.92c1.51-.28 2.11-2.06 2.47-3.55.7-3 1.53-5.9 2.47-8.79.8-2.44 2.1-5.21 4.62-5.65 2.69-.47 5.06 2.28 5.25 5s-1.1 5.3-2.37 7.71c1.71-2 5.4-1.19 6.58 1.17s.11 5.4-1.94 7.05c.6-1.4 2.78-1.52 3.83-.42a3.93 3.93 0 0 1 .45 4.27 11.52 11.52 0 0 1 -2.86 3.52c1.31-1.65 4.3-.45 4.89 1.58s-.44 4.15-1.63 5.89c-5.54 8.08-14.87 12.54-23.76 16.65" fill="#fff"/><path d="m631.18 324c.41 2.89-2.51 5.87-4.31 7.83a31.21 31.21 0 0 1 -6.34 5.41c-2.34 1.45-4.77 2.79-7.23 4-1.3.65-2.61 1.28-3.94 1.89s-2.87 1-3.91 1.94-.28 3.1 1.21 2.9 3-1.2 4.43-1.89 2.83-1.42 4.23-2.17a65.79 65.79 0 0 0 8.1-5.23 36.37 36.37 0 0 0 6.73-6.33c2-2.46 3.86-5.63 2.76-8.86a.9.9 0 0 0 -1.73.48z"/><path d="m593.79 330.49a42.93 42.93 0 0 1 5-21.56 40.23 40.23 0 0 1 2.95-4.66c.86-1.16 2.18-3.22 3.76-3.44s1.17 3.09 1.21 4.1l.3 6.94a1.64 1.64 0 0 0 2.05 1.57 4.72 4.72 0 0 0 3.16-3.16c.74-1.9 1.08-4 1.64-5.94a46.13 46.13 0 0 1 1.88-5.76 5.24 5.24 0 0 1 2.9-3.06c1.64-.66 1.63-3.44-.45-3.35-3.77.18-5.43 4.28-6.41 7.36q-1 3.21-1.83 6.48c-.25 1-.47 3.95-1.75 4.29l2.06 1.57-.36-6.44c-.1-1.71 0-3.66-.75-5.25-1.6-3.46-5.49-2.26-7.64-.11a32.57 32.57 0 0 0 -5.75 8.5 38.92 38.92 0 0 0 -3.43 10 37.1 37.1 0 0 0 -.36 11.94c.14 1.11 1.83 1.19 1.79 0z"/><path d="m448.83 352.42a344.91 344.91 0 0 1 61.68 29.23c5 3 10.58 6.25 16.26 5 4.62-1 8.06-4.78 11.17-8.35l29.86-34.17c5.08-5.82 11.94-12.23 19.4-10.21-.35-4 4.36-6.81 8.27-6.16s7 3.55 9.85 6.32l4.42 4.31c2.37 2.31 4.91 5 4.9 8.32s-4.49 6.23-6.7 3.77c3.64 5.76.93 13.27-2 19.42-10.2 21.52-22.58 42.53-40.46 58.25s-42 25.62-65.58 22a95.2 95.2 0 0 1 -22.9-7.08 182.39 182.39 0 0 1 -42-25.17" fill="#fff"/><path d="m448.59 353.3a371.33 371.33 0 0 1 61.11 29.7c4.45 2.7 9.34 5.63 14.73 5.54 5.1-.09 9.19-3.16 12.55-6.73 4-4.21 7.67-8.71 11.48-13.07q6-6.86 12-13.7c4.14-4.73 8.09-9.78 12.62-14.14 3.65-3.5 8.43-6.93 13.75-5.58a1.5 1.5 0 0 0 1.88-1.43c-.18-3.23 3.54-5.07 6.38-4.71 3.93.5 7 3.83 9.69 6.45 1.57 1.54 3.18 3.06 4.72 4.63a13.07 13.07 0 0 1 3.3 4.63 3.51 3.51 0 0 1 -.83 4c-.8.71-2 1.3-2.91.42a1.57 1.57 0 0 0 -2.45 1.89c3.84 6.35-.26 14.24-3.12 20.13-3.28 6.78-6.78 13.46-10.62 19.95-7.64 12.89-16.69 25.05-27.9 35.05a90.8 90.8 0 0 1 -38.25 20.7 69 69 0 0 1 -21.47 1.95 78.82 78.82 0 0 1 -23-5.66 177.42 177.42 0 0 1 -41.32-23.12c-1.56-1.16-3.09-2.35-4.61-3.56s-4 1-2.35 2.35a184.4 184.4 0 0 0 42.03 25.43c7.73 3.33 15.73 6.21 24.09 7.42a70.72 70.72 0 0 0 22.49-.44c15-2.67 29.11-9.83 40.94-19.39 12.08-9.76 21.84-22.17 30-35.34 4.1-6.67 7.81-13.56 11.27-20.58 3.19-6.47 7.4-13.83 6.35-21.32a13 13 0 0 0 -1.81-5.06l-2.46 1.89c2.54 2.55 6.39 1.09 8.24-1.53 2.37-3.36.5-7.41-1.83-10.21a62.08 62.08 0 0 0 -4.63-4.69c-1.6-1.56-3.16-3.16-4.85-4.61-3-2.56-6.67-4.86-10.76-4.27-3.78.54-7.52 3.52-7.28 7.64l1.88-1.44c-10.16-2.54-18.07 7.12-23.94 13.85q-12 13.73-23.93 27.43c-3.26 3.73-6.49 8.28-11.05 10.5-4.94 2.4-10.28 0-14.68-2.45-4.89-2.75-9.67-5.67-14.6-8.35s-10-5.26-15.14-7.69a322.83 322.83 0 0 0 -35.19-14.24c-1.12-.38-1.56 1.35-.48 1.76z"/><path d="m619.92 311.84a38.83 38.83 0 0 1 2.78-5.16 24.5 24.5 0 0 0 1.43-2.21 11.42 11.42 0 0 0 .6-1.39 2.34 2.34 0 0 0 0-1.8c-.32-.73-1.26-.63-1.76-.23a2.83 2.83 0 0 0 -.65 1.19 10.18 10.18 0 0 1 -.62 1.18c-.45.75-.9 1.51-1.33 2.27a26 26 0 0 0 -2.08 5.47c-.27.94 1.18 1.6 1.62.68z"/><path d="m624.39 316.85a12.4 12.4 0 0 0 3-2.74 13.79 13.79 0 0 0 2.17-3.73 1.12 1.12 0 0 0 -.78-1.37 1.15 1.15 0 0 0 -1.36.78c.06-.15 0 0 0 0s-.07.15-.1.22l-.18.4c-.13.28-.27.55-.41.82a12.74 12.74 0 0 1 -1 1.6l-.11.15c-.07.09.08-.09 0 .05l-.31.38-.62.69a15.2 15.2 0 0 1 -1.35 1.31.87.87 0 0 0 -.07 1.17.89.89 0 0 0 1.16.23z"/><path d="m626.53 323.34a4.48 4.48 0 0 0 .79-.65l.61-.66 1.21-1.35c.43-.49.82-1 1.22-1.52s.77-1 1.11-1.51a1.15 1.15 0 0 0 -1.81-1.39c-.8 1-1.55 2-2.27 3l-1 1.43-.51.68a5.08 5.08 0 0 0 -.48.81.88.88 0 0 0 .13 1 .85.85 0 0 0 1 .13z"/><path d="m365.85 361.29c-4.83 32.21-.55 64.57 3 96.67.5 4.55 1 9.09 1.41 13.64.38 3.95 1 8.27-.93 11.92a1.15 1.15 0 0 0 2 1.16c1.76-3 1.88-6.52 1.63-9.93-.3-4-.77-7.95-1.2-11.91-.87-8.14-1.83-16.26-2.72-24.4-1.77-16.27-3.24-32.62-3.23-49a203.36 203.36 0 0 1 1.78-27.68c.15-1.09-1.52-1.57-1.68-.46z" fill="#18c4ff"/><g fill="#fff"><path d="m545.26 933.67a29.07 29.07 0 0 1 9.2-.75 1 1 0 1 0 0-1.95 23 23 0 0 0 -9.67 1 .89.89 0 0 0 .47 1.71z"/><path d="m545.72 941.34a14.6 14.6 0 0 1 9.13-1.31 1 1 0 0 0 1.23-.7 1 1 0 0 0 -.7-1.24 14.48 14.48 0 0 0 -10.54 1.74.87.87 0 0 0 .88 1.51z"/><path d="m546.83 948.76a23.85 23.85 0 0 1 7.64-1.68 1 1 0 0 0 0-2 26.21 26.21 0 0 0 -8.32 2.07c-.91.39-.25 2 .68 1.62z"/><path d="m680.25 934.85c.59-.42 1.08-1 1.66-1.41a13.43 13.43 0 0 1 1.65-1.08 14 14 0 0 1 3.76-1.42 1 1 0 0 0 .72-1.26 1.05 1.05 0 0 0 -1.27-.72 13.71 13.71 0 0 0 -4.22 1.66 14.61 14.61 0 0 0 -1.89 1.33 7 7 0 0 0 -1.64 1.67c-.45.73.49 1.77 1.23 1.23z"/><path d="m683.52 941.9a9.69 9.69 0 0 1 3-2.25 9.16 9.16 0 0 1 1.61-.64c.31-.1.64-.18 1-.25l.44-.08h.11.28a1.05 1.05 0 0 0 1-1 1 1 0 0 0 -1-1 11.45 11.45 0 0 0 -7.65 4.06.94.94 0 0 0 0 1.27.91.91 0 0 0 1.27 0z"/><path d="m687.56 949.42a18 18 0 0 1 7.36-1.72 1 1 0 1 0 0-2.06 17.27 17.27 0 0 0 -8.34 2.1 1 1 0 0 0 -.35 1.33 1 1 0 0 0 1.33.35z"/></g><g fill="#18c4ff"><path d="m685.34 618.33a9.83 9.83 0 0 0 1.78 5.44 44.72 44.72 0 0 0 6.9 8.78 22.87 22.87 0 0 0 4.42 3.68 1.15 1.15 0 0 0 1.39-1.8c-1.24-1.19-2.67-2.18-3.94-3.35a43.23 43.23 0 0 1 -3.57-3.72 40.68 40.68 0 0 1 -3-4 11.49 11.49 0 0 1 -2.17-5 .9.9 0 0 0 -1.79 0z"/><path d="m611.63 630.44a29.43 29.43 0 0 0 7.39-4.26 24.91 24.91 0 0 0 3-2.87 18.8 18.8 0 0 0 2.63-3.46c.56-1-.89-2.25-1.65-1.28s-1.58 2.13-2.46 3.12a30.12 30.12 0 0 1 -2.92 2.84 26.8 26.8 0 0 1 -6.74 4.22c-.94.42-.26 2.08.72 1.69z"/><path d="m560.21 763a33.75 33.75 0 0 1 12.48-1.28c1.3.11 1.3-1.94 0-2a35.58 35.58 0 0 0 -13 1.52c-1.13.36-.66 2.13.49 1.79z"/><path d="m562.11 771.1 9.89-1.49a1 1 0 0 0 .67-1.17 1 1 0 0 0 -1.17-.66l-9.87 1.56a.92.92 0 0 0 -.64 1.12.94.94 0 0 0 1.12.64z"/><path d="m622.66 762.6 9.44-1.26a1 1 0 1 0 -.26-2l-9.43 1.39c-1 .15-.78 2 .25 1.82z"/><path d="m625.48 769.74h7.07a1.06 1.06 0 0 0 0-2.11h-7.07a1.07 1.07 0 0 0 -1.06 1 1.09 1.09 0 0 0 1.06 1.06z"/><path d="m632 485.2a58.91 58.91 0 0 0 11.74 1.67 31.66 31.66 0 0 0 11.26-2.33c6-2.21 12.28-4.77 16.14-10.18 1.08-1.51-1.42-2.95-2.49-1.45-3.45 4.84-9.45 7.11-14.84 9.07a34 34 0 0 1 -10 2.25 56.14 56.14 0 0 1 -11.2-1c-1.26-.2-1.84 1.68-.54 1.95z"/></g><path d="m619 285.82c8.31-1.07 14.57-8.74 16.49-16.89s.36-16.69-1.56-24.84c-.58-2.42-1.36-5.09-3.49-6.37a8.14 8.14 0 0 0 -3.51-.92 24.65 24.65 0 0 0 -12.54 2.3c-1.32.63-2.73 1.6-2.86 3.06a3.19 3.19 0 0 0 2.68 3.05 9.23 9.23 0 0 0 4.37-.48 11.56 11.56 0 0 0 -9.58 4.27c-1 1.19-1.56 3.16-.34 4.09a3.13 3.13 0 0 0 1.68.47 16.38 16.38 0 0 0 5.74-.7 15.63 15.63 0 0 0 -8.6 4.58c-1.24 1.31-2.28 3.31-1.32 4.84.84 1.33 2.74 1.48 4.27 1.11s3-1.11 4.57-1.05c-3.86 1.62-7.84 4-9.28 7.91a2.24 2.24 0 0 0 -.16 1.3c.38 1.4 2.4 1.09 3.83 1.24 3.21.34 4.66 4.12 5.35 7.28s1.15 5.16 4.32 5.77" fill="#fff"/><path d="m619 286.69c5.74-.45 10.56-3.89 13.81-8.52 3.71-5.3 5-11.73 4.91-18.12a64.9 64.9 0 0 0 -1.35-11.2c-.61-3.07-1.09-6.4-2.5-9.22-1.49-3-4.2-4-7.38-4.23a25.43 25.43 0 0 0 -10.41 1.52c-2.6 1-6.69 2.75-5.83 6.27 1 4 5.61 3.72 8.7 2.88a1.39 1.39 0 0 0 -.37-2.72c-4.3-.22-9.66 2-11.54 6.1-.85 1.88-.65 4.28 1.49 5.15 2.31.94 5.56.26 7.86-.41a1.41 1.41 0 0 0 -.75-2.71 17.11 17.11 0 0 0 -6.84 2.9c-1.87 1.35-3.87 3.16-4.37 5.52a4.05 4.05 0 0 0 3 4.88c2.68.68 4.9-1 7.5-1l-.72-2.65c-3.37 1.43-6.75 3.33-8.83 6.46-.92 1.38-1.93 3.37-1.06 5s2.59 1.6 4.09 1.67c3.39.16 4.27 3.8 4.9 6.59.71 3.15 1.85 5.72 5.29 6.47 1.87.41 2.67-2.47.79-2.88a3 3 0 0 1 -2.5-1.82 21.55 21.55 0 0 1 -.89-3.62c-.64-2.59-1.77-5.49-4.16-6.94a7.44 7.44 0 0 0 -3.71-.85 2.45 2.45 0 0 1 -1-.09c-.36-.2-.16.11-.12-.3a5.58 5.58 0 0 1 1.1-2.1c1.82-2.5 4.78-4 7.55-5.18 1.35-.58.6-2.67-.72-2.66-2 0-3.67 1-5.59 1.22-1.75.16-2.68-.85-1.82-2.48 1.64-3.06 5.62-4.84 8.86-5.44l-.75-2.71a14.51 14.51 0 0 1 -5.36.66c-.69-.06-1.08-.21-.91-1a4 4 0 0 1 1.05-1.78 10.29 10.29 0 0 1 8.16-3.27l-.37-2.72c-1.23.34-2.7.84-4 .39s-1.76-1.42-.88-2.38a8.18 8.18 0 0 1 3-1.69 24.25 24.25 0 0 1 4.27-1.23c2.54-.49 5.82-.84 8.31.06 2.32.83 3 3.4 3.56 5.56 2.57 10.42 4.58 22.54-1.6 32.12a19.3 19.3 0 0 1 -12.07 8.81.87.87 0 0 0 .23 1.71z" fill="#fff"/><path d="m604.75 272.37a8.41 8.41 0 0 0 1.8 2.35 8.88 8.88 0 0 0 2.53 1.62 10.53 10.53 0 0 0 1.52.53l.37.09h.12c.14.05.16.05.07 0a2.62 2.62 0 0 1 -.22-.25c-.08-.1 0 .18 0-.06.07.57.09 1.16.15 1.74a17.6 17.6 0 0 0 .38 2.15 1.29 1.29 0 0 0 2.54-.34 14.89 14.89 0 0 0 -.24-4 2.4 2.4 0 0 0 -1.25-1.67 3.16 3.16 0 0 0 -.94-.27h-.31c.1 0 .08 0-.07 0l-.37-.07a8.49 8.49 0 0 1 -4.72-2.84c-.66-.77-1.79.21-1.35 1z"/><path d="m607.36 265.32c1.44-.51 2.9-1 4.39-1.38a11.06 11.06 0 0 1 2-.32c.77-.05 1.53 0 2.3.05a1.17 1.17 0 0 0 .31-2.28 9.25 9.25 0 0 0 -5.1.33 26.35 26.35 0 0 0 -4.63 2 .88.88 0 0 0 .68 1.59z"/><path d="m609.06 256.31c.48-1 1.87-1.17 2.91-1.31a32.19 32.19 0 0 1 4.71-.11 1 1 0 0 0 .27-2 13.4 13.4 0 0 0 -5.84.21c-1.53.35-3.05 1-3.66 2.53-.37.93 1.18 1.58 1.61.68z"/><path d="m609.69 247.49a24.32 24.32 0 0 1 8.92-.26 1.16 1.16 0 0 0 1.38-.79 1.12 1.12 0 0 0 -.79-1.37 23.72 23.72 0 0 0 -10 .71.89.89 0 0 0 .47 1.71z"/><path d="m626.86 236c6.12 3.74 7.32 11.35 7.56 17.91.15 3.9.17 7.81.16 11.71 0 1.8 0 3.61-.11 5.4a21.08 21.08 0 0 1 -.31 2.74c-.18.95-.56 1.87-.72 2.82a1.43 1.43 0 0 0 2.6 1.1c1.08-1.66 1.27-4.05 1.42-6s.15-4.06.15-6.08c0-4.29-.05-8.6-.33-12.88-.47-7-2.5-15.11-9.54-18.25a.87.87 0 0 0 -.88 1.51z"/><path d="m495.41 282.75a16.52 16.52 0 0 1 4.26-3 21 21 0 0 1 5-1.38c1.23-.24.93-2.15-.29-2.15a13 13 0 0 0 -5.69 1.65 13.9 13.9 0 0 0 -4.48 3.61c-.69.86.39 2 1.23 1.23z"/><path d="m507.78 281a11.9 11.9 0 0 1 12.86 2 23.3 23.3 0 0 1 4.34 6.51 65.71 65.71 0 0 1 3.46 8.21c.61 1.77 3.45 1 2.83-.78a62 62 0 0 0 -4-9.23c-1.44-2.68-3-5.35-5.51-7.19a14.07 14.07 0 0 0 -14.82-1.06c-1 .54-.12 1.94.87 1.48z"/><g fill="#18c4ff"><path d="m656.37 399.81c4 9.12 8.09 18.16 12 27.32q2.91 6.89 5.7 13.82c1.84 4.59 3.52 9.26 5.57 13.76.52 1.16 2.43.34 2-.86-1.52-4.76-3.51-9.39-5.41-14s-3.8-9.14-5.77-13.68c-4-9.17-8.06-18.33-12.64-27.22-.52-1-1.91-.12-1.48.87z"/><path d="m680.47 462.55a1 1 0 0 0 0-2 1 1 0 0 0 0 2z"/><path d="m696 375.79a243.82 243.82 0 0 1 26.23 53 28.93 28.93 0 0 1 1.19 3.95 28.14 28.14 0 0 0 1.27 3.72c.94 2.67 1.72 5.41 2.49 8.13a1.11 1.11 0 0 0 2.14-.59c-.66-2.45-1.39-4.87-2.09-7.31-.34-1.15-.64-2.3-1-3.44s-1-2.34-1.4-3.56q-2.45-7.08-5.35-14a236.3 236.3 0 0 0 -13-26.31q-4.24-7.37-9-14.44c-.62-.92-2.12-.06-1.5.88z"/><path d="m633.72 485.9a38.91 38.91 0 0 0 .91 5.55c.37 1.82.8 3.63 1.27 5.43a92.45 92.45 0 0 0 3.58 10.77 1.23 1.23 0 0 0 2.2.29q6.93-11.06 13.84-22.14c.86-1.39-1.33-2.67-2.19-1.28q-6.89 11.09-13.73 22.21l2.2.28a107.51 107.51 0 0 1 -3.74-10.51c-.51-1.72-1-3.45-1.39-5.19s-.7-3.8-1.22-5.64c-.26-.94-1.79-.79-1.73.23z"/></g><g fill="#fff"><path d="m383.71 580.55c-.5 15.5-4.34 30.71-10.23 45-6 14.58-14.08 28.26-22.79 41.38-4.33 6.54-8.83 13-13.4 19.34-5 7-10 13.9-15.6 20.39a212.2 212.2 0 0 1 -17.94 18.05q-9.57 8.71-19.35 17.18-19.74 17.11-40.24 33.36l-5.11 4c-1.12.88.46 2.44 1.57 1.57q20.76-16.26 40.77-33.44 10-8.64 19.91-17.48c6.38-5.72 12.73-11.51 18.56-17.8a214.2 214.2 0 0 0 15.89-19.78c4.77-6.54 9.48-13.14 14-19.84 8.93-13.14 17.26-26.79 23.74-41.32 6.31-14.17 10.87-29.27 11.71-44.83.11-1.93.16-3.87.16-5.8a.85.85 0 0 0 -1.69 0z"/><path d="m456 505.05a39 39 0 0 1 -9.29 18.76 1.08 1.08 0 0 0 .48 1.79c2.79.73 3.23 5.37 3.85 7.65q1.46 5.38 2.89 10.78 2.89 10.94 5.68 21.91 5.57 21.93 10.66 44c1.6 6.92 4.47 15.3.79 22l2 1.16-.42.08c-.49 0-.56.09-.18.38 0 .19.11.52.13.72a19.32 19.32 0 0 1 -.08 2.15c-.06 1.64-.14 3.28-.23 4.92q-.28 4.62-.75 9.21-.93 9.2-2.63 18.28c-2.26 12.12-5.35 24.1-8.2 36.09l-17.18 72.45c-3.23 13.59-6.58 27.17-9.64 40.8-.3 1.35 1.75 1.93 2.09.57 6.4-25.58 12.24-51.33 18.33-77l9.12-38.35c3-12.78 6.35-25.54 8.5-38.51 1.16-7 2-14 2.49-21.09.13-1.84.24-3.69.32-5.53.07-1.53.44-3.44.09-4.95s-2.69-3.51-3.74-1.39c-.64 1.31 1.27 2.47 2 1.16 3.23-5.9 2-12.71.54-19q-2.71-11.94-5.6-23.84-5.71-23.65-12-47.18-1.71-6.43-3.47-12.87c-.74-2.7-1.72-6-4.79-6.73l.47 1.8a40 40 0 0 0 9.42-19.82c.18-1.08-1.44-1.55-1.65-.46z"/></g></svg>